<svg width="36" height="36" viewBox="0 0 36 36" fill="none" xmlns="http://www.w3.org/2000/svg">
<g clip-path="url(#clip0_1276_5692)">
<path d="M36 25.5638C36.0105 26.1267 35.688 26.6429 35.1705 26.8952L29.6175 29.5946L26.841 34.9933C26.586 35.4877 26.0655 35.7998 25.4985 35.7998H25.47C24.891 35.7896 24.372 35.4571 24.132 34.9452L18.216 22.2942C17.7885 21.1027 18.0615 19.9506 18.879 19.1573C19.695 18.3625 20.88 18.1 21.972 18.4588C22.017 18.4748 35.1195 24.2629 35.1195 24.2629C35.646 24.4948 35.9895 25.0008 36 25.5638ZM19.7145 32.1948C20.283 32.8438 20.4105 33.7552 20.043 34.5296C19.674 35.304 18.8775 35.7998 18 35.7998C8.0745 35.7998 0 27.9496 0 18.2998C0 8.71418 8.1645 0.901888 18 0.799805C27.9255 0.799805 36 8.65001 36 18.2998C36 19.5088 34.9935 20.4873 33.75 20.4873C32.5065 20.4873 31.5 19.5088 31.5 18.2998C31.5 12.6911 27.855 7.9048 22.752 6.03085C23.853 7.99814 24.9885 10.5079 25.653 13.3604C26.0325 14.9908 24.378 16.3792 22.752 15.8381C22.0155 15.5931 21.435 15.0098 21.261 14.2733C20.535 11.1933 19.134 8.55668 18.003 6.78335C16.3995 9.30189 14.25 13.5602 14.25 18.2998C14.25 25.8656 19.659 32.1321 19.7145 32.1948ZM4.7025 16.1123H9.867C10.29 12.1238 11.793 8.61064 13.239 6.03376C8.82 7.66126 5.5095 11.4719 4.7025 16.1123ZM13.2465 30.5848C11.799 28.0079 10.3035 24.4817 9.879 20.4873H4.692C5.4975 25.1336 8.82 28.9602 13.2465 30.5848Z" fill="black"/>
</g>
<defs>
<clipPath id="clip0_1276_5692">
<rect width="36" height="35" fill="white" transform="translate(0 0.799805)"/>
</clipPath>
</defs>
</svg>
