<svg width="36" height="36" viewBox="0 0 36 36" fill="none" xmlns="http://www.w3.org/2000/svg">
<g clip-path="url(#clip0_1276_5714)">
<path d="M16.0005 11.9428C16.86 12.8413 16.8285 14.2648 15.9315 15.1243L13.8885 17.0818C13.2765 17.6938 12.4605 18.0028 11.6385 18.0028C10.8045 18.0028 9.966 17.6863 9.3285 17.0473C9.2895 17.0098 8.1735 15.7213 8.1735 15.7213C7.3605 14.7808 7.464 13.3603 8.4045 12.5473C9.345 11.7358 10.7655 11.8378 11.5785 12.7783L11.7135 12.9343L12.819 11.8738C13.7175 11.0143 15.1395 11.0428 16.0005 11.9428ZM12.819 20.8753L11.6115 22.0318L11.2785 21.7243C10.3665 20.8798 8.9415 20.9338 8.0985 21.8458C7.254 22.7563 7.308 24.1813 8.22 25.0258L9.3255 26.0473C9.939 26.6623 10.7565 27.0013 11.625 27.0013C12.4935 27.0013 13.311 26.6623 13.8885 26.0833L15.9315 24.1258C16.8285 23.2678 16.86 21.8428 16.0005 20.9458C15.1395 20.0473 13.7175 20.0173 12.819 20.8768V20.8753ZM36 25.4998V31.4998C36 33.9853 33.9855 35.9998 31.5 35.9998H24C21.5145 35.9998 19.5 33.9853 19.5 31.4998V25.4998C19.5 23.0143 21.5145 20.9998 24 20.9998H31.5C33.9855 20.9998 36 23.0143 36 25.4998ZM30.75 26.9998C30.75 26.1718 30.078 25.4998 29.25 25.4998H26.25C25.422 25.4998 24.75 26.1718 24.75 26.9998C24.75 27.8278 25.422 28.4998 26.25 28.4998H29.25C30.078 28.4998 30.75 27.8278 30.75 26.9998ZM20.25 7.49976H21.75C23.8185 7.49976 25.5 9.18276 25.5 11.2498V15.7498C25.5 16.9933 26.508 17.9998 27.75 17.9998C28.992 17.9998 30 16.9933 30 15.7498V11.2498C30 6.78276 26.4315 3.13326 21.9945 3.00276C21.1515 1.22826 19.341 -0.000244141 17.25 -0.000244141H12.75C10.6575 -0.000244141 8.8485 1.22826 8.0055 3.00276C3.5685 3.13176 0 6.78276 0 11.2498V27.7498C0 32.2978 3.7005 35.9998 8.25 35.9998H14.25C15.4935 35.9998 16.5 34.9918 16.5 33.7498C16.5 32.5078 15.4935 31.4998 14.25 31.4998H8.25C6.183 31.4998 4.5 29.8183 4.5 27.7498V11.2498C4.5 9.18276 6.183 7.49976 8.25 7.49976H9.75C10.9935 7.49976 12 6.49326 12 5.24976C12 4.83576 12.336 4.49976 12.75 4.49976H17.25C17.664 4.49976 18 4.83576 18 5.24976C18 6.49326 19.0065 7.49976 20.25 7.49976ZM22.6245 15.7498C22.6245 14.5063 21.6165 13.4998 20.3745 13.4998H20.25C19.0065 13.4998 18.063 14.5063 18.063 15.7498C18.063 16.9933 19.1325 17.9998 20.376 17.9998C21.6195 17.9998 22.6245 16.9933 22.6245 15.7498Z" fill="black"/>
</g>
<defs>
<clipPath id="clip0_1276_5714">
<rect width="36" height="36" fill="white" transform="translate(0 -0.000244141)"/>
</clipPath>
</defs>
</svg>
