<svg width="28" height="27" viewBox="0 0 28 27" fill="none" xmlns="http://www.w3.org/2000/svg">
<g clip-path="url(#clip0_1417_1416)">
<path d="M27.5 18.6728C27.5079 19.095 27.266 19.4822 26.8779 19.6714L22.7131 21.6959L20.6307 25.745C20.4395 26.1158 20.0491 26.3499 19.6239 26.3499H19.6025C19.1682 26.3422 18.779 26.0928 18.599 25.7089L14.162 16.2206C13.8414 15.327 14.0461 14.463 14.6593 13.868C15.2713 13.2719 16.16 13.075 16.979 13.3441C17.0127 13.3561 26.8396 17.6972 26.8396 17.6972C27.2345 17.8711 27.4921 18.2506 27.5 18.6728ZM15.2859 23.6461C15.7122 24.1328 15.8079 24.8164 15.5323 25.3972C15.2555 25.978 14.6581 26.3499 14 26.3499C6.55587 26.3499 0.5 20.4622 0.5 13.2249C0.5 6.03563 6.62337 0.176416 14 0.0998535C21.4441 0.0998535 27.5 5.98751 27.5 13.2249C27.5 14.1316 26.7451 14.8655 25.8125 14.8655C24.8799 14.8655 24.125 14.1316 24.125 13.2249C24.125 9.01829 21.3913 5.4286 17.564 4.02313C18.3898 5.4986 19.2414 7.38095 19.7397 9.52032C20.0244 10.7431 18.7835 11.7844 17.564 11.3786C17.0116 11.1949 16.5762 10.7574 16.4457 10.205C15.9012 7.89501 14.8505 5.91751 14.0022 4.58751C12.7996 6.47642 11.1875 9.67017 11.1875 13.2249C11.1875 18.8992 15.2442 23.5991 15.2859 23.6461ZM4.02687 11.5842H7.90025C8.2175 8.59282 9.34475 5.95798 10.4293 4.02532C7.115 5.24595 4.63212 8.10392 4.02687 11.5842ZM10.4349 22.4386C9.34925 20.5059 8.22762 17.8613 7.90925 14.8655H4.019C4.62313 18.3502 7.115 21.2202 10.4349 22.4386Z" fill="black"/>
</g>
<defs>
<clipPath id="clip0_1417_1416">
<rect width="27" height="26.25" fill="white" transform="translate(0.5 0.0998535)"/>
</clipPath>
</defs>
</svg>
