<svg width="28" height="28" viewBox="0 0 28 28" fill="none" xmlns="http://www.w3.org/2000/svg">
<g clip-path="url(#clip0_1417_1438)">
<path d="M12.5004 9.20731C13.145 9.88119 13.1214 10.9488 12.4486 11.5934L10.9164 13.0616C10.4574 13.5206 9.84537 13.7523 9.22887 13.7523C8.60337 13.7523 7.9745 13.5149 7.49637 13.0357C7.46712 13.0076 6.63012 12.0412 6.63012 12.0412C6.02037 11.3358 6.098 10.2704 6.80338 9.66069C7.50875 9.05206 8.57412 9.12856 9.18387 9.83394L9.28513 9.95094L10.1142 9.15556C10.7881 8.51094 11.8546 8.53231 12.5004 9.20731ZM10.1142 15.9067L9.20863 16.7741L8.95888 16.5434C8.27488 15.9101 7.20613 15.9506 6.57388 16.6346C5.9405 17.3174 5.981 18.3862 6.665 19.0196L7.49413 19.7857C7.95425 20.2469 8.56738 20.5012 9.21875 20.5012C9.87012 20.5012 10.4832 20.2469 10.9164 19.8127L12.4486 18.3446C13.1214 17.7011 13.145 16.6323 12.5004 15.9596C11.8546 15.2857 10.7881 15.2632 10.1142 15.9078V15.9067ZM27.5 19.3751V23.8751C27.5 25.7392 25.9891 27.2501 24.125 27.2501H18.5C16.6359 27.2501 15.125 25.7392 15.125 23.8751V19.3751C15.125 17.5109 16.6359 16.0001 18.5 16.0001H24.125C25.9891 16.0001 27.5 17.5109 27.5 19.3751ZM23.5625 20.5001C23.5625 19.8791 23.0585 19.3751 22.4375 19.3751H20.1875C19.5665 19.3751 19.0625 19.8791 19.0625 20.5001C19.0625 21.1211 19.5665 21.6251 20.1875 21.6251H22.4375C23.0585 21.6251 23.5625 21.1211 23.5625 20.5001ZM15.6875 5.87506H16.8125C18.3639 5.87506 19.625 7.13731 19.625 8.68756V12.0626C19.625 12.9952 20.381 13.7501 21.3125 13.7501C22.244 13.7501 23 12.9952 23 12.0626V8.68756C23 5.33731 20.3236 2.60019 16.9959 2.50231C16.3636 1.17144 15.0058 0.250061 13.4375 0.250061H10.0625C8.49313 0.250061 7.13637 1.17144 6.50412 2.50231C3.17637 2.59906 0.5 5.33731 0.5 8.68756V21.0626C0.5 24.4736 3.27538 27.2501 6.6875 27.2501H11.1875C12.1201 27.2501 12.875 26.4941 12.875 25.5626C12.875 24.6311 12.1201 23.8751 11.1875 23.8751H6.6875C5.13725 23.8751 3.875 22.6139 3.875 21.0626V8.68756C3.875 7.13731 5.13725 5.87506 6.6875 5.87506H7.8125C8.74512 5.87506 9.5 5.12019 9.5 4.18756C9.5 3.87706 9.752 3.62506 10.0625 3.62506H13.4375C13.748 3.62506 14 3.87706 14 4.18756C14 5.12019 14.7549 5.87506 15.6875 5.87506ZM17.4684 12.0626C17.4684 11.1299 16.7124 10.3751 15.7809 10.3751H15.6875C14.7549 10.3751 14.0472 11.1299 14.0472 12.0626C14.0472 12.9952 14.8494 13.7501 15.782 13.7501C16.7146 13.7501 17.4684 12.9952 17.4684 12.0626Z" fill="black"/>
</g>
<defs>
<clipPath id="clip0_1417_1438">
<rect width="27" height="27" fill="white" transform="translate(0.5 0.249817)"/>
</clipPath>
</defs>
</svg>
