<svg width="29" height="28" viewBox="0 0 29 28" fill="none" xmlns="http://www.w3.org/2000/svg">
<g clip-path="url(#clip0_1426_3613)">
<path d="M28.7255 19.9066C28.7338 20.3499 28.4798 20.7565 28.0723 20.9552L23.6993 23.0809L21.5128 27.3324C21.312 27.7218 20.9021 27.9675 20.4556 27.9675H20.4331C19.9771 27.9595 19.5684 27.6976 19.3794 27.2945L14.7206 17.3319C14.3839 16.3936 14.5989 15.4863 15.2427 14.8616C15.8853 14.2357 16.8185 14.0289 17.6784 14.3115C17.7139 14.3241 28.0321 18.8822 28.0321 18.8822C28.4467 19.0648 28.7172 19.4634 28.7255 19.9066ZM15.9007 25.1286C16.3484 25.6396 16.4488 26.3574 16.1594 26.9672C15.8688 27.5771 15.2415 27.9675 14.5505 27.9675C6.73416 27.9675 0.375488 21.7855 0.375488 14.1863C0.375488 6.6376 6.80503 0.48542 14.5505 0.405029C22.3668 0.405029 28.7255 6.58707 28.7255 14.1863C28.7255 15.1383 27.9329 15.9089 26.9536 15.9089C25.9744 15.9089 25.1817 15.1383 25.1817 14.1863C25.1817 9.76939 22.3113 6.00022 18.2927 4.52447C19.1597 6.07372 20.0539 8.05018 20.5772 10.2965C20.8761 11.5805 19.5732 12.6738 18.2927 12.2477C17.7127 12.0548 17.2556 11.5954 17.1185 11.0154C16.5468 8.58994 15.4435 6.51357 14.5529 5.11707C13.2901 7.10042 11.5974 10.4539 11.5974 14.1863C11.5974 20.1444 15.8569 25.0792 15.9007 25.1286ZM4.07871 12.4636H8.14575C8.47886 9.32265 9.66248 6.55606 10.8012 4.52677C7.32124 5.80843 4.71422 8.80929 4.07871 12.4636ZM10.8071 23.8607C9.6672 21.8314 8.48949 19.0545 8.1552 15.9089H4.07044C4.70477 19.5679 7.32124 22.5814 10.8071 23.8607Z" fill="black"/>
</g>
<defs>
<clipPath id="clip0_1426_3613">
<rect width="28.35" height="27.5625" fill="white" transform="translate(0.375488 0.405029)"/>
</clipPath>
</defs>
</svg>
