<svg width="29" height="30" viewBox="0 0 29 30" fill="none" xmlns="http://www.w3.org/2000/svg">
<g clip-path="url(#clip0_1426_3635)">
<path d="M13.0257 10.0675C13.7025 10.775 13.6777 11.896 12.9713 12.5729L11.3625 14.1144C10.8805 14.5964 10.2379 14.8397 9.59061 14.8397C8.93384 14.8397 8.27352 14.5905 7.77149 14.0873C7.74077 14.0577 6.86192 13.043 6.86192 13.043C6.22169 12.3024 6.30319 11.1837 7.04384 10.5435C7.78448 9.90445 8.90312 9.98478 9.54336 10.7254L9.64967 10.8483L10.5203 10.0131C11.2278 9.33627 12.3476 9.35872 13.0257 10.0675ZM10.5203 17.1018L9.56935 18.0126L9.30711 17.7704C8.58891 17.1054 7.46672 17.1479 6.80286 17.8661C6.13782 18.5831 6.18034 19.7053 6.89854 20.3703L7.76912 21.1748C8.25226 21.6591 8.89604 21.926 9.57998 21.926C10.2639 21.926 10.9077 21.6591 11.3625 21.2031L12.9713 19.6616C13.6777 18.9859 13.7025 17.8637 13.0257 17.1573C12.3476 16.4498 11.2278 16.4261 10.5203 17.103V17.1018ZM28.7753 20.7436V25.4686C28.7753 27.4259 27.1889 29.0124 25.2315 29.0124H19.3253C17.368 29.0124 15.7815 27.4259 15.7815 25.4686V20.7436C15.7815 18.7863 17.368 17.1999 19.3253 17.1999H25.2315C27.1889 17.1999 28.7753 18.7863 28.7753 20.7436ZM24.6409 21.9249C24.6409 21.2728 24.1117 20.7436 23.4597 20.7436H21.0972C20.4451 20.7436 19.9159 21.2728 19.9159 21.9249C19.9159 22.5769 20.4451 23.1061 21.0972 23.1061H23.4597C24.1117 23.1061 24.6409 22.5769 24.6409 21.9249ZM16.3722 6.5686H17.5534C19.1824 6.5686 20.5065 7.89397 20.5065 9.52173V13.0655C20.5065 14.0447 21.3003 14.8374 22.2784 14.8374C23.2565 14.8374 24.0503 14.0447 24.0503 13.0655V9.52173C24.0503 6.00397 21.2401 3.12998 17.746 3.02722C17.0821 1.6298 15.6563 0.662354 14.0097 0.662354H10.4659C8.81807 0.662354 7.39349 1.6298 6.72962 3.02722C3.23549 3.1288 0.425293 6.00397 0.425293 9.52173V22.5155C0.425293 26.097 3.33944 29.0124 6.92217 29.0124H11.6472C12.6264 29.0124 13.419 28.2186 13.419 27.2405C13.419 26.2624 12.6264 25.4686 11.6472 25.4686H6.92217C5.29441 25.4686 3.96904 24.1444 3.96904 22.5155V9.52173C3.96904 7.89397 5.29441 6.5686 6.92217 6.5686H8.10342C9.08267 6.5686 9.87529 5.77598 9.87529 4.79673C9.87529 4.4707 10.1399 4.2061 10.4659 4.2061H14.0097C14.3357 4.2061 14.6003 4.4707 14.6003 4.79673C14.6003 5.77598 15.3929 6.5686 16.3722 6.5686ZM18.2421 13.0655C18.2421 12.0862 17.4483 11.2936 16.4702 11.2936H16.3722C15.3929 11.2936 14.6499 12.0862 14.6499 13.0655C14.6499 14.0447 15.4921 14.8374 16.4714 14.8374C17.4506 14.8374 18.2421 14.0447 18.2421 13.0655Z" fill="black"/>
</g>
<defs>
<clipPath id="clip0_1426_3635">
<rect width="28.35" height="28.35" fill="white" transform="translate(0.425781 0.662354)"/>
</clipPath>
</defs>
</svg>
