<svg width="37" height="38" viewBox="0 0 37 38" fill="none" xmlns="http://www.w3.org/2000/svg">
<path fill-rule="evenodd" clip-rule="evenodd" d="M27.8124 18.8751C27.8124 19.1797 27.6914 19.4718 27.476 19.6872C27.2606 19.9026 26.9685 20.0235 26.6639 20.0235H13.3581L18.2895 24.9526C18.3963 25.0594 18.481 25.1862 18.5388 25.3257C18.5966 25.4652 18.6263 25.6147 18.6263 25.7657C18.6263 25.9167 18.5966 26.0663 18.5388 26.2058C18.481 26.3453 18.3963 26.4721 18.2895 26.5788C18.1827 26.6856 18.056 26.7703 17.9165 26.8281C17.777 26.8859 17.6274 26.9156 17.4764 26.9156C17.3254 26.9156 17.1759 26.8859 17.0364 26.8281C16.8969 26.7703 16.7701 26.6856 16.6633 26.5788L9.7727 19.6882C9.66575 19.5815 9.5809 19.4548 9.523 19.3153C9.4651 19.1757 9.4353 19.0262 9.4353 18.8751C9.4353 18.724 9.4651 18.5745 9.523 18.4349C9.5809 18.2954 9.66575 18.1687 9.7727 18.062L16.6633 11.1714C16.879 10.9557 17.1714 10.8346 17.4764 10.8346C17.7814 10.8346 18.0739 10.9557 18.2895 11.1714C18.5052 11.387 18.6263 11.6795 18.6263 11.9845C18.6263 12.2895 18.5052 12.5819 18.2895 12.7976L13.3581 17.7267H26.6639C26.9685 17.7267 27.2606 17.8477 27.476 18.063C27.6914 18.2784 27.8124 18.5705 27.8124 18.8751Z" fill="black" fill-opacity="0.3"/>
</svg>
