<svg width="39" height="40" viewBox="0 0 39 40" fill="none" xmlns="http://www.w3.org/2000/svg">
<path fill-rule="evenodd" clip-rule="evenodd" d="M29.353 19.8688C29.353 20.1886 29.226 20.4953 28.9998 20.7215C28.7737 20.9476 28.467 21.0747 28.1472 21.0747H14.1761L19.354 26.2502C19.4662 26.3623 19.5551 26.4954 19.6158 26.6419C19.6765 26.7884 19.7077 26.9454 19.7077 27.104C19.7077 27.2625 19.6765 27.4195 19.6158 27.566C19.5551 27.7125 19.4662 27.8456 19.354 27.9577C19.2419 28.0698 19.1088 28.1588 18.9623 28.2194C18.8159 28.2801 18.6589 28.3113 18.5003 28.3113C18.3417 28.3113 18.1847 28.2801 18.0383 28.2194C17.8918 28.1588 17.7587 28.0698 17.6466 27.9577L10.4114 20.7226C10.2991 20.6105 10.21 20.4775 10.1492 20.331C10.0884 20.1845 10.0571 20.0274 10.0571 19.8688C10.0571 19.7102 10.0884 19.5531 10.1492 19.4066C10.21 19.2601 10.2991 19.1271 10.4114 19.0151L17.6466 11.7799C17.873 11.5535 18.1801 11.4263 18.5003 11.4263C18.8205 11.4263 19.1276 11.5535 19.354 11.7799C19.5805 12.0063 19.7077 12.3134 19.7077 12.6337C19.7077 12.9539 19.5805 13.261 19.354 13.4874L14.1761 18.6629H28.1472C28.467 18.6629 28.7737 18.79 28.9998 19.0161C29.226 19.2423 29.353 19.549 29.353 19.8688Z" fill="black" fill-opacity="0.3"/>
</svg>
