<svg width="39" height="40" viewBox="0 0 39 40" fill="none" xmlns="http://www.w3.org/2000/svg">
<path fill-rule="evenodd" clip-rule="evenodd" d="M9.74706 19.8688C9.74706 20.1886 9.87411 20.4953 10.1003 20.7215C10.3264 20.9476 10.6331 21.0747 10.9529 21.0747H24.924L19.746 26.2502C19.6339 26.3623 19.545 26.4954 19.4843 26.6419C19.4236 26.7884 19.3924 26.9454 19.3924 27.104C19.3924 27.2625 19.4236 27.4195 19.4843 27.566C19.545 27.7125 19.6339 27.8456 19.746 27.9577C19.8582 28.0698 19.9913 28.1588 20.1378 28.2194C20.2842 28.2801 20.4412 28.3113 20.5998 28.3113C20.7584 28.3113 20.9154 28.2801 21.0618 28.2194C21.2083 28.1588 21.3414 28.0698 21.4535 27.9577L28.6887 20.7226C28.801 20.6105 28.8901 20.4775 28.9509 20.331C29.0117 20.1845 29.043 20.0274 29.043 19.8688C29.043 19.7102 29.0117 19.5531 28.9509 19.4066C28.8901 19.2601 28.801 19.1271 28.6887 19.0151L21.4535 11.7799C21.2271 11.5535 20.92 11.4263 20.5998 11.4263C20.2796 11.4263 19.9725 11.5535 19.746 11.7799C19.5196 12.0063 19.3924 12.3134 19.3924 12.6337C19.3924 12.9539 19.5196 13.261 19.746 13.4874L24.924 18.6629H10.9529C10.6331 18.6629 10.3264 18.79 10.1003 19.0161C9.87411 19.2423 9.74706 19.549 9.74706 19.8688Z" fill="white"/>
</svg>
