<svg width="49" height="49" viewBox="0 0 49 49" fill="none" xmlns="http://www.w3.org/2000/svg">
<path fill-rule="evenodd" clip-rule="evenodd" d="M12.2502 24.5001C12.2502 24.9062 12.4115 25.2957 12.6987 25.5829C12.9858 25.87 13.3753 26.0314 13.7814 26.0314H31.5225L24.9473 32.6035C24.8049 32.7458 24.692 32.9149 24.615 33.1009C24.5379 33.2869 24.4983 33.4863 24.4983 33.6876C24.4983 33.8889 24.5379 34.0883 24.615 34.2743C24.692 34.4603 24.8049 34.6294 24.9473 34.7717C25.0897 34.9141 25.2587 35.027 25.4447 35.1041C25.6307 35.1811 25.8301 35.2208 26.0314 35.2208C26.2328 35.2208 26.4322 35.1811 26.6182 35.1041C26.8042 35.027 26.9732 34.9141 27.1156 34.7717L36.3031 25.5842C36.4457 25.442 36.5588 25.273 36.636 25.087C36.7132 24.9009 36.7529 24.7015 36.7529 24.5001C36.7529 24.2987 36.7132 24.0993 36.636 23.9132C36.5588 23.7272 36.4457 23.5582 36.3031 23.416L27.1156 14.2285C26.828 13.941 26.4381 13.7794 26.0314 13.7794C25.6248 13.7794 25.2348 13.941 24.9473 14.2285C24.6598 14.516 24.4983 14.906 24.4983 15.3126C24.4983 15.7192 24.6598 16.1092 24.9473 16.3967L31.5225 22.9689H13.7814C13.3753 22.9689 12.9858 23.1302 12.6987 23.4173C12.4115 23.7045 12.2502 24.094 12.2502 24.5001Z" fill="white"/>
</svg>
