<svg width="49" height="49" viewBox="0 0 49 49" fill="none" xmlns="http://www.w3.org/2000/svg">
<path fill-rule="evenodd" clip-rule="evenodd" d="M36.7498 24.5001C36.7498 24.9062 36.5885 25.2957 36.3013 25.5829C36.0142 25.87 35.6247 26.0314 35.2186 26.0314H17.4775L24.0527 32.6035C24.1951 32.7458 24.308 32.9149 24.385 33.1009C24.4621 33.2869 24.5017 33.4863 24.5017 33.6876C24.5017 33.8889 24.4621 34.0883 24.385 34.2743C24.308 34.4603 24.1951 34.6294 24.0527 34.7717C23.9103 34.9141 23.7413 35.027 23.5553 35.1041C23.3693 35.1811 23.1699 35.2208 22.9686 35.2208C22.7672 35.2208 22.5678 35.1811 22.3818 35.1041C22.1958 35.027 22.0268 34.9141 21.8844 34.7717L12.6969 25.5842C12.5543 25.442 12.4412 25.273 12.364 25.087C12.2868 24.9009 12.2471 24.7015 12.2471 24.5001C12.2471 24.2987 12.2868 24.0993 12.364 23.9132C12.4412 23.7272 12.5543 23.5582 12.6969 23.416L21.8844 14.2285C22.172 13.941 22.5619 13.7794 22.9686 13.7794C23.3752 13.7794 23.7652 13.941 24.0527 14.2285C24.3402 14.516 24.5017 14.906 24.5017 15.3126C24.5017 15.7192 24.3402 16.1092 24.0527 16.3967L17.4775 22.9689H35.2186C35.6247 22.9689 36.0142 23.1302 36.3013 23.4173C36.5885 23.7045 36.7498 24.094 36.7498 24.5001Z" fill="black" fill-opacity="0.3"/>
</svg>
