<svg width="37" height="38" viewBox="0 0 37 38" fill="none" xmlns="http://www.w3.org/2000/svg">
<path fill-rule="evenodd" clip-rule="evenodd" d="M9.18764 18.8751C9.18764 19.1797 9.30864 19.4718 9.52401 19.6872C9.73939 19.9026 10.0315 20.0235 10.3361 20.0235H23.6419L18.7105 24.9526C18.6037 25.0594 18.519 25.1862 18.4612 25.3257C18.4034 25.4652 18.3737 25.6147 18.3737 25.7657C18.3737 25.9167 18.4034 26.0663 18.4612 26.2058C18.519 26.3453 18.6037 26.4721 18.7105 26.5788C18.8173 26.6856 18.944 26.7703 19.0835 26.8281C19.223 26.8859 19.3726 26.9156 19.5236 26.9156C19.6746 26.9156 19.8241 26.8859 19.9636 26.8281C20.1031 26.7703 20.2299 26.6856 20.3367 26.5788L27.2273 19.6882C27.3343 19.5815 27.4191 19.4548 27.477 19.3153C27.5349 19.1757 27.5647 19.0262 27.5647 18.8751C27.5647 18.724 27.5349 18.5745 27.477 18.4349C27.4191 18.2954 27.3343 18.1687 27.2273 18.062L20.3367 11.1714C20.121 10.9557 19.8286 10.8346 19.5236 10.8346C19.2186 10.8346 18.9261 10.9557 18.7105 11.1714C18.4948 11.387 18.3737 11.6795 18.3737 11.9845C18.3737 12.2895 18.4948 12.5819 18.7105 12.7976L23.6419 17.7267H10.3361C10.0315 17.7267 9.73939 17.8477 9.52401 18.063C9.30864 18.2784 9.18764 18.5705 9.18764 18.8751Z" fill="white"/>
</svg>
