<svg width="26" height="28" viewBox="0 0 26 28" fill="none" xmlns="http://www.w3.org/2000/svg">
<g clip-path="url(#clip0_1417_1449)">
<path d="M7.9375 13.1876C7.9375 12.74 8.10541 12.3108 8.4043 11.9943C8.70318 11.6779 9.10856 11.5001 9.53125 11.5001H12.7188C13.1414 11.5001 13.5468 11.6779 13.8457 11.9943C14.1446 12.3108 14.3125 12.74 14.3125 13.1876C14.3125 13.6351 14.1446 14.0643 13.8457 14.3808C13.5468 14.6973 13.1414 14.8751 12.7188 14.8751H9.53125C9.10856 14.8751 8.70318 14.6973 8.4043 14.3808C8.10541 14.0643 7.9375 13.6351 7.9375 13.1876ZM9.53125 9.25006H16.9688C17.3914 9.25006 17.7968 9.07227 18.0957 8.7558C18.3946 8.43934 18.5625 8.01011 18.5625 7.56256C18.5625 7.11501 18.3946 6.68579 18.0957 6.36932C17.7968 6.05285 17.3914 5.87506 16.9688 5.87506H9.53125C9.10856 5.87506 8.70318 6.05285 8.4043 6.36932C8.10541 6.68579 7.9375 7.11501 7.9375 7.56256C7.9375 8.01011 8.10541 8.43934 8.4043 8.7558C8.70318 9.07227 9.10856 9.25006 9.53125 9.25006ZM22.8125 22.7208V26.0306C22.8125 26.2713 22.745 26.5066 22.6187 26.7067C22.4924 26.9069 22.3128 27.0629 22.1028 27.155C21.8927 27.2471 21.6616 27.2712 21.4386 27.2242C21.2157 27.1773 21.0108 27.0614 20.8501 26.8912L19.625 25.5941L18.3999 26.8912C18.2392 27.0614 18.0343 27.1773 17.8114 27.2242C17.5884 27.2712 17.3573 27.2471 17.1472 27.155C16.9372 27.0629 16.7576 26.9069 16.6313 26.7067C16.505 26.5066 16.4375 26.2713 16.4375 26.0306V22.7208C15.476 21.9547 14.7894 20.8649 14.4904 19.6307C14.1914 18.3966 14.2979 17.0914 14.7924 15.9298C15.2869 14.7683 16.14 13.8194 17.2113 13.2393C18.2827 12.6591 19.5086 12.4822 20.6875 12.7376V6.43756C20.6875 5.69164 20.4076 4.97627 19.9095 4.44882C19.4114 3.92138 18.7357 3.62506 18.0312 3.62506L8.47619 3.66781C8.12674 3.66678 7.78053 3.73876 7.4574 3.87964C7.13427 4.02051 6.84057 4.22752 6.59313 4.48878C6.34568 4.75005 6.14936 5.06045 6.0154 5.40219C5.88145 5.74393 5.8125 6.11031 5.8125 6.48031V19.9376C5.8125 20.6835 6.09235 21.3989 6.5905 21.9263C7.08864 22.4537 7.76427 22.7501 8.46875 22.7501H12.7188C13.1414 22.7501 13.5468 22.9279 13.8457 23.2443C14.1446 23.5608 14.3125 23.99 14.3125 24.4376C14.3125 24.8851 14.1446 25.3143 13.8457 25.6308C13.5468 25.9473 13.1414 26.1251 12.7188 26.1251H8.46875C6.9195 26.123 5.43426 25.4704 4.33877 24.3105C3.24328 23.1506 2.62697 21.578 2.625 19.9376V6.48031C2.62697 4.83992 3.24328 3.26732 4.33877 2.10739C5.43426 0.947459 6.9195 0.294895 8.46875 0.292811L18.0238 0.250061C19.5742 0.250655 21.061 0.90249 22.158 2.06252C23.255 3.22254 23.8725 4.79599 23.875 6.43756V14.9099C24.2934 15.4951 24.5981 16.1624 24.7713 16.8731C24.9445 17.5838 24.9827 18.3238 24.8839 19.0503C24.7851 19.7767 24.5511 20.4752 24.1956 21.1053C23.84 21.7354 23.3699 22.2845 22.8125 22.7208ZM17.5 18.2501C17.5 18.6951 17.6246 19.1301 17.8581 19.5001C18.0916 19.8701 18.4235 20.1585 18.8118 20.3288C19.2001 20.4991 19.6274 20.5436 20.0396 20.4568C20.4518 20.37 20.8304 20.1557 21.1276 19.8411C21.4248 19.5264 21.6272 19.1255 21.7092 18.689C21.7912 18.2526 21.7491 17.8002 21.5882 17.389C21.4274 16.9779 21.155 16.6265 20.8056 16.3793C20.4561 16.132 20.0453 16.0001 19.625 16.0001C19.0614 16.0001 18.5209 16.2371 18.1224 16.6591C17.7239 17.081 17.5 17.6533 17.5 18.2501Z" fill="black"/>
</g>
<defs>
<clipPath id="clip0_1417_1449">
<rect width="25.5" height="27" fill="white" transform="translate(0.5 0.249817)"/>
</clipPath>
</defs>
</svg>
