<svg width="34" height="36" viewBox="0 0 34 36" fill="none" xmlns="http://www.w3.org/2000/svg">
<g clip-path="url(#clip0_1276_5725)">
<path d="M9.91671 17.2498C9.91671 16.653 10.1406 16.0807 10.5391 15.6588C10.9376 15.2368 11.4781 14.9998 12.0417 14.9998H16.2917C16.8553 14.9998 17.3958 15.2368 17.7943 15.6588C18.1928 16.0807 18.4167 16.653 18.4167 17.2498C18.4167 17.8465 18.1928 18.4188 17.7943 18.8407C17.3958 19.2627 16.8553 19.4998 16.2917 19.4998H12.0417C11.4781 19.4998 10.9376 19.2627 10.5391 18.8407C10.1406 18.4188 9.91671 17.8465 9.91671 17.2498ZM12.0417 11.9998H21.9584C22.522 11.9998 23.0625 11.7627 23.461 11.3407C23.8595 10.9188 24.0834 10.3465 24.0834 9.74976C24.0834 9.15302 23.8595 8.58072 23.461 8.15877C23.0625 7.73681 22.522 7.49976 21.9584 7.49976H12.0417C11.4781 7.49976 10.9376 7.73681 10.5391 8.15877C10.1406 8.58072 9.91671 9.15302 9.91671 9.74976C9.91671 10.3465 10.1406 10.9188 10.5391 11.3407C10.9376 11.7627 11.4781 11.9998 12.0417 11.9998ZM29.75 29.9608V34.3738C29.75 34.6947 29.6601 35.0085 29.4916 35.2753C29.3232 35.5422 29.0838 35.7501 28.8038 35.873C28.5237 35.9958 28.2155 36.0279 27.9182 35.9653C27.6209 35.9027 27.3478 35.7482 27.1335 35.5213L25.5 33.7918L23.8666 35.5213C23.6523 35.7482 23.3792 35.9027 23.0818 35.9653C22.7845 36.0279 22.4764 35.9958 22.1963 35.873C21.9163 35.7501 21.6769 35.5422 21.5084 35.2753C21.34 35.0085 21.2501 34.6947 21.25 34.3738V29.9608C19.9681 28.9392 19.0525 27.4862 18.6539 25.8407C18.2553 24.1951 18.3973 22.4549 19.0566 20.9061C19.7159 19.3574 20.8533 18.0922 22.2818 17.3187C23.7103 16.5451 25.3448 16.3092 26.9167 16.6498V8.24976C26.9167 7.25519 26.5436 6.30137 25.8794 5.59811C25.2152 4.89484 24.3143 4.49976 23.375 4.49976L10.635 4.55676C10.169 4.55538 9.70741 4.65135 9.27657 4.83919C8.84573 5.02703 8.45413 5.30303 8.12421 5.65139C7.79428 5.99974 7.53252 6.41361 7.35391 6.86926C7.17531 7.32492 7.08337 7.81341 7.08337 8.30676V26.2498C7.08337 27.2443 7.45651 28.1981 8.1207 28.9014C8.7849 29.6047 9.68573 29.9998 10.625 29.9998H16.2917C16.8553 29.9998 17.3958 30.2368 17.7943 30.6588C18.1928 31.0807 18.4167 31.653 18.4167 32.2498C18.4167 32.8465 18.1928 33.4188 17.7943 33.8407C17.3958 34.2627 16.8553 34.4998 16.2917 34.4998H10.625C8.55937 34.497 6.57905 33.6269 5.1184 32.0803C3.65775 30.5337 2.836 28.4369 2.83337 26.2498V8.30676C2.836 6.11957 3.65775 4.02277 5.1184 2.47619C6.57905 0.92962 8.55937 0.0595342 10.625 0.0567559L23.3651 -0.000244141C25.4323 0.000547551 27.4147 0.869661 28.8773 2.41636C30.34 3.96307 31.1633 6.061 31.1667 8.24976V19.5463C31.7246 20.3265 32.1308 21.2161 32.3617 22.1637C32.5926 23.1113 32.6437 24.098 32.5119 25.0667C32.3802 26.0353 32.0682 26.9667 31.5941 27.8067C31.12 28.6468 30.4932 29.379 29.75 29.9608ZM22.6667 23.9998C22.6667 24.5931 22.8329 25.1731 23.1442 25.6665C23.4555 26.1598 23.898 26.5443 24.4158 26.7714C24.9335 26.9985 25.5032 27.0579 26.0528 26.9421C26.6024 26.8264 27.1073 26.5406 27.5035 26.1211C27.8998 25.7015 28.1696 25.167 28.2789 24.585C28.3883 24.0031 28.3321 23.3999 28.1177 22.8517C27.9033 22.3035 27.5401 21.835 27.0742 21.5053C26.6082 21.1757 26.0604 20.9998 25.5 20.9998C24.7486 20.9998 24.0279 21.3158 23.4966 21.8784C22.9652 22.441 22.6667 23.2041 22.6667 23.9998Z" fill="black"/>
</g>
<defs>
<clipPath id="clip0_1276_5725">
<rect width="34" height="36" fill="white" transform="translate(0 -0.000244141)"/>
</clipPath>
</defs>
</svg>
