<svg width="28" height="30" viewBox="0 0 28 30" fill="none" xmlns="http://www.w3.org/2000/svg">
<g clip-path="url(#clip0_1426_3646)">
<path d="M8.18506 14.247C8.18506 13.777 8.36137 13.3264 8.6752 12.9941C8.98903 12.6618 9.41467 12.4751 9.8585 12.4751H13.2054C13.6492 12.4751 14.0748 12.6618 14.3887 12.9941C14.7025 13.3264 14.8788 13.777 14.8788 14.247C14.8788 14.7169 14.7025 15.1676 14.3887 15.4999C14.0748 15.8322 13.6492 16.0188 13.2054 16.0188H9.8585C9.41467 16.0188 8.98903 15.8322 8.6752 15.4999C8.36137 15.1676 8.18506 14.7169 8.18506 14.247ZM9.8585 10.1126H17.6679C18.1117 10.1126 18.5373 9.92592 18.8512 9.59363C19.165 9.26134 19.3413 8.81065 19.3413 8.34072C19.3413 7.87079 19.165 7.42011 18.8512 7.08782C18.5373 6.75553 18.1117 6.56885 17.6679 6.56885H9.8585C9.41467 6.56885 8.98903 6.75553 8.6752 7.08782C8.36137 7.42011 8.18506 7.87079 8.18506 8.34072C8.18506 8.81065 8.36137 9.26134 8.6752 9.59363C8.98903 9.92592 9.41467 10.1126 9.8585 10.1126ZM23.8038 24.2569V27.7321C23.8038 27.9849 23.733 28.2319 23.6003 28.4421C23.4677 28.6522 23.2792 28.816 23.0586 28.9127C22.8381 29.0095 22.5954 29.0348 22.3613 28.9855C22.1271 28.9362 21.9121 28.8145 21.7432 28.6358L20.4569 27.2738L19.1706 28.6358C19.0018 28.8145 18.7867 28.9362 18.5526 28.9855C18.3185 29.0348 18.0758 29.0095 17.8553 28.9127C17.6347 28.816 17.4462 28.6522 17.3136 28.4421C17.1809 28.2319 17.1101 27.9849 17.1101 27.7321V24.2569C16.1005 23.4524 15.3795 22.3082 15.0656 21.0123C14.7517 19.7164 14.8635 18.346 15.3827 17.1264C15.902 15.9067 16.7977 14.9104 17.9226 14.3013C19.0475 13.6921 20.3347 13.5063 21.5726 13.7745V7.15947C21.5726 6.37626 21.2787 5.62512 20.7557 5.0713C20.2326 4.51748 19.5232 4.20635 18.7835 4.20635L8.75068 4.25124C8.38376 4.25015 8.02024 4.32573 7.68095 4.47365C7.34167 4.62157 7.03328 4.83893 6.77347 5.11326C6.51365 5.38759 6.30751 5.71351 6.16686 6.07234C6.02621 6.43117 5.95381 6.81585 5.95381 7.20436V21.3345C5.95381 22.1177 6.24766 22.8688 6.77071 23.4226C7.29376 23.9765 8.00317 24.2876 8.74287 24.2876H13.2054C13.6492 24.2876 14.0748 24.4743 14.3887 24.8066C14.7025 25.1389 14.8788 25.5895 14.8788 26.0595C14.8788 26.5294 14.7025 26.9801 14.3887 27.3124C14.0748 27.6447 13.6492 27.8314 13.2054 27.8314H8.74287C7.11615 27.8292 5.55665 27.144 4.40639 25.926C3.25613 24.7081 2.609 23.0569 2.60693 21.3345V7.20436C2.609 5.48195 3.25613 3.83072 4.40639 2.61279C5.55665 1.39487 7.11615 0.709673 8.74287 0.707485L18.7757 0.662598C20.4036 0.663221 21.9647 1.34765 23.1166 2.56568C24.2684 3.7837 24.9168 5.43583 24.9194 7.15947V16.0555C25.3588 16.6699 25.6787 17.3705 25.8605 18.1167C26.0424 18.863 26.0826 19.64 25.9788 20.4028C25.875 21.1656 25.6294 21.899 25.256 22.5606C24.8827 23.2222 24.3891 23.7987 23.8038 24.2569ZM18.2257 19.5626C18.2257 20.0299 18.3565 20.4866 18.6017 20.8751C18.8469 21.2636 19.1954 21.5665 19.6031 21.7453C20.0108 21.9241 20.4594 21.9709 20.8922 21.8797C21.325 21.7885 21.7226 21.5635 22.0347 21.2331C22.3467 20.9027 22.5592 20.4818 22.6453 20.0235C22.7314 19.5652 22.6872 19.0902 22.5183 18.6585C22.3495 18.2268 22.0635 17.8578 21.6965 17.5983C21.3296 17.3387 20.8982 17.2001 20.4569 17.2001C19.8652 17.2001 19.2976 17.449 18.8792 17.8921C18.4608 18.3351 18.2257 18.936 18.2257 19.5626Z" fill="black"/>
</g>
<defs>
<clipPath id="clip0_1426_3646">
<rect width="26.775" height="28.35" fill="white" transform="translate(0.375488 0.662598)"/>
</clipPath>
</defs>
</svg>
