<svg width="91" height="97" viewBox="0 0 91 97" fill="none" xmlns="http://www.w3.org/2000/svg">
<rect x="1.05664" y="1.30005" width="88.6" height="88.6" rx="44.3" stroke="#E2E2E2"/>
<path d="M59.3622 43.5992V37.2525C59.3622 36.1921 58.9401 35.1737 58.1897 34.4234L52.5314 28.765C51.7811 28.0147 50.7627 27.5925 49.7022 27.5925H35.3522C33.1413 27.5925 31.3506 29.3833 31.3506 31.5942V59.6058C31.3506 61.8168 33.1413 63.6075 35.3522 63.6075H45.3564" stroke="#C8982A" stroke-width="1.5" stroke-linecap="round" stroke-linejoin="round"/>
<path d="M59.3625 37.5967H51.3592C50.2548 37.5967 49.3584 36.7003 49.3584 35.5958V27.5925" stroke="#C8982A" stroke-width="1.5" stroke-linecap="round" stroke-linejoin="round"/>
<path d="M58.0473 61.6529L61.5588 63.4977C62.243 63.8578 63.0414 63.2756 62.9113 62.5153L62.241 58.6056L65.0822 55.8385C65.6365 55.3002 65.3303 54.3599 64.566 54.2498L60.6404 53.6796L58.8856 50.1201C58.5435 49.4278 57.5551 49.4278 57.2149 50.1201L55.4602 53.6796L51.5346 54.2498C50.7703 54.3619 50.4641 55.3002 51.0184 55.8385L53.8596 58.6056L53.1873 62.5173C53.0572 63.2776 53.8556 63.8578 54.5398 63.4997L58.0513 61.6549" stroke="#C8982A" stroke-width="1.5" stroke-linecap="round" stroke-linejoin="round"/>
</svg>
