<svg width="90" height="96" viewBox="0 0 90 96" fill="none" xmlns="http://www.w3.org/2000/svg">
<rect x="0.59668" y="1.09998" width="88.6" height="88.6" rx="44.3" stroke="#E2E2E2"/>
<path d="M38.834 51.4L44.896 39.4L50.9581 51.4" stroke="#C8982A" stroke-width="1.8" stroke-linecap="round" stroke-linejoin="round"/>
<path d="M40.3564 48.4399H49.4564" stroke="#C8982A" stroke-width="1.8" stroke-linecap="round" stroke-linejoin="round"/>
<path d="M30.8965 35.4V55.3999" stroke="#C8982A" stroke-width="1.8" stroke-linecap="round" stroke-linejoin="round"/>
<path d="M58.8965 55.3999V35.4" stroke="#C8982A" stroke-width="1.8" stroke-linecap="round" stroke-linejoin="round"/>
<path fill-rule="evenodd" clip-rule="evenodd" d="M60.8965 63.4001H56.8965C55.7925 63.4001 54.8965 62.504 54.8965 61.4V57.4001C54.8965 56.2961 55.7925 55.4 56.8965 55.4H60.8965C62.0005 55.4 62.8965 56.2961 62.8965 57.4001V61.4C62.8965 62.504 62.0005 63.4001 60.8965 63.4001Z" stroke="#C8982A" stroke-width="1.8" stroke-linecap="round" stroke-linejoin="round"/>
<path fill-rule="evenodd" clip-rule="evenodd" d="M32.8965 63.4001H28.8965C27.7925 63.4001 26.8965 62.504 26.8965 61.4V57.4001C26.8965 56.2961 27.7925 55.4 28.8965 55.4H32.8965C34.0005 55.4 34.8965 56.2961 34.8965 57.4001V61.4C34.8965 62.504 34.0005 63.4001 32.8965 63.4001Z" stroke="#C8982A" stroke-width="1.8" stroke-linecap="round" stroke-linejoin="round"/>
<path fill-rule="evenodd" clip-rule="evenodd" d="M60.8965 35.4001H56.8965C55.7925 35.4001 54.8965 34.504 54.8965 33.4V29.4C54.8965 28.296 55.7925 27.4 56.8965 27.4H60.8965C62.0005 27.4 62.8965 28.296 62.8965 29.4V33.4C62.8965 34.504 62.0005 35.4001 60.8965 35.4001Z" stroke="#C8982A" stroke-width="1.8" stroke-linecap="round" stroke-linejoin="round"/>
<path fill-rule="evenodd" clip-rule="evenodd" d="M32.8965 35.4001H28.8965C27.7925 35.4001 26.8965 34.504 26.8965 33.4V29.4C26.8965 28.296 27.7925 27.4 28.8965 27.4H32.8965C34.0005 27.4 34.8965 28.296 34.8965 29.4V33.4C34.8965 34.504 34.0005 35.4001 32.8965 35.4001Z" stroke="#C8982A" stroke-width="1.8" stroke-linecap="round" stroke-linejoin="round"/>
<path d="M34.8965 59.3999H54.8964" stroke="#C8982A" stroke-width="1.8" stroke-linecap="round" stroke-linejoin="round"/>
<path d="M54.8964 31.4H34.8965" stroke="#C8982A" stroke-width="1.8" stroke-linecap="round" stroke-linejoin="round"/>
</svg>
