<svg width="90" height="97" viewBox="0 0 90 97" fill="none" xmlns="http://www.w3.org/2000/svg">
<rect x="0.59668" y="1.39996" width="88.6" height="88.6" rx="44.3" stroke="#E2E2E2"/>
<path fill-rule="evenodd" clip-rule="evenodd" d="M57.7245 34.528L52.0685 28.872C51.3185 28.122 50.3004 27.7 49.2405 27.7H34.8965C32.6865 27.7 30.8965 29.49 30.8965 31.6999V59.7C30.8965 61.9099 32.6865 63.7 34.8965 63.7H54.8964C57.1065 63.7 58.8965 61.9099 58.8965 59.7V37.356C58.8965 36.2959 58.4745 35.278 57.7245 34.528Z" stroke="#C8982A" stroke-width="1.8" stroke-linecap="round" stroke-linejoin="round"/>
<path d="M58.8966 37.6999H50.8965C49.7925 37.6999 48.8965 36.804 48.8965 35.7V27.7" stroke="#C8982A" stroke-width="1.8" stroke-linecap="round" stroke-linejoin="round"/>
<path fill-rule="evenodd" clip-rule="evenodd" d="M36.8965 57.6999V53.6998L45.4825 45.1138C46.2645 44.3319 47.5305 44.3319 48.3105 45.1138L49.4826 46.2859C50.2645 47.0679 50.2645 48.3339 49.4826 49.1139L40.8966 57.6999H36.8965Z" stroke="#C8982A" stroke-width="1.8" stroke-linecap="round" stroke-linejoin="round"/>
<path d="M48.8965 57.7H52.8966" stroke="#C8982A" stroke-width="1.8" stroke-linecap="round" stroke-linejoin="round"/>
</svg>
