<svg width="91" height="97" viewBox="0 0 91 97" fill="none" xmlns="http://www.w3.org/2000/svg">
<rect x="1.07715" y="1.30005" width="88.6" height="88.6" rx="44.3" stroke="#E2E2E2"/>
<path d="M39.377 32.6001H51.377" stroke="#C8982A" stroke-width="1.5" stroke-linecap="round" stroke-linejoin="round"/>
<path d="M57.377 39.6001H33.377" stroke="#C8982A" stroke-width="1.5" stroke-linecap="round" stroke-linejoin="round"/>
<path d="M33.377 50.6001H39.377" stroke="#C8982A" stroke-width="1.5" stroke-linecap="round" stroke-linejoin="round"/>
<path d="M55.6196 47.3574C57.9627 49.7006 57.9627 53.4996 55.6196 55.8427C53.2765 58.1858 49.4775 58.1858 47.1343 55.8427C44.7912 53.4996 44.7912 49.7006 47.1343 47.3574C49.4775 45.0143 53.2765 45.0143 55.6196 47.3574Z" stroke="#C8982A" stroke-width="1.5" stroke-linecap="round" stroke-linejoin="round"/>
<path d="M55.377 56.042V65.6L51.377 63.6L47.377 65.6V56.042" stroke="#C8982A" stroke-width="1.5" stroke-linecap="round" stroke-linejoin="round"/>
<path d="M55.377 59.6001H61.377C63.587 59.6001 65.377 57.8101 65.377 55.6001V29.6001C65.377 27.3901 63.587 25.6001 61.377 25.6001H29.377C27.167 25.6001 25.377 27.3901 25.377 29.6001V55.6001C25.377 57.8101 27.167 59.6001 29.377 59.6001H47.377" stroke="#C8982A" stroke-width="1.5" stroke-linecap="round" stroke-linejoin="round"/>
</svg>
