<svg width="90" height="97" viewBox="0 0 90 97" fill="none" xmlns="http://www.w3.org/2000/svg">
<rect x="0.59668" y="1.39996" width="88.6" height="88.6" rx="44.3" stroke="#E2E2E2"/>
<path d="M56.9013 41.6982V37.3524C56.9013 36.2919 56.4792 35.2735 55.7288 34.5233L50.0705 28.8649C49.3201 28.1146 48.3018 27.6924 47.2413 27.6924H32.8913C30.6804 27.6924 28.8896 29.4831 28.8896 31.6941V59.7057C28.8896 61.9166 30.6804 63.7074 32.8913 63.7074H40.8947" stroke="#C8982A" stroke-width="1.8" stroke-linecap="round" stroke-linejoin="round"/>
<path d="M56.9016 37.6965H48.8982C47.7939 37.6965 46.8975 36.8001 46.8975 35.6958V27.6924" stroke="#C8982A" stroke-width="1.8" stroke-linecap="round" stroke-linejoin="round"/>
<path d="M53.9002 65.7081C48.9281 65.7081 44.8965 61.6765 44.8965 56.7044C44.8965 51.7323 48.9281 47.7007 53.9002 47.7007C58.8743 47.7007 62.9039 51.7323 62.9039 56.7044C62.9039 61.6765 58.8743 65.7081 53.9002 65.7081Z" stroke="#C8982A" stroke-width="1.8" stroke-linecap="round" stroke-linejoin="round"/>
<path d="M53.9023 56.3704V53.067" stroke="#C8982A" stroke-width="1.8" stroke-linecap="round" stroke-linejoin="round"/>
<path d="M53.9003 60.0158C53.8103 60.0158 53.7363 60.0898 53.7383 60.18C53.7383 60.27 53.8124 60.344 53.9024 60.344C53.9924 60.344 54.0645 60.27 54.0645 60.18C54.0645 60.0898 53.9924 60.0158 53.9003 60.0158Z" stroke="#C8982A" stroke-width="1.8" stroke-linecap="round" stroke-linejoin="round"/>
</svg>
