<svg width="159" height="224" viewBox="0 0 159 224" fill="none" xmlns="http://www.w3.org/2000/svg">
<g clip-path="url(#clip0_2772_6466)">
<g clip-path="url(#clip1_2772_6466)">
<g clip-path="url(#clip2_2772_6466)">
<path d="M51.1963 10.8569L50.3281 17.9211C47.7555 17.7276 45.8904 18.2436 44.7328 19.4694C43.5751 20.6951 42.8677 22.3402 42.6104 24.4046C42.3532 26.469 42.2888 28.6947 42.4175 31.0817H51.1963V51.5H34.6998V27.2109C34.6998 21.2758 36.179 16.8244 39.1375 13.8568C42.1602 10.8892 46.1798 9.88924 51.1963 10.8569ZM26.6928 10.8569L25.8245 17.9211C23.252 17.7276 21.3869 18.2436 20.2292 19.4694C19.0716 20.6951 18.3641 22.3402 18.1069 24.4046C17.8496 26.469 17.7853 28.6947 17.9139 31.0817H26.6928V51.5H10.1963V27.2109C10.1963 21.2758 11.6755 16.8244 14.6339 13.8568C17.6567 10.8892 21.6763 9.88924 26.6928 10.8569Z" fill="#C8982A"/>
</g>
</g>
</g>
<defs>
<clipPath id="clip0_2772_6466">
<rect width="41" height="41" fill="white" transform="translate(10.1963 10.5)"/>
</clipPath>
<clipPath id="clip1_2772_6466">
<rect width="41" height="41" fill="white" transform="translate(10.1963 10.5)"/>
</clipPath>
<clipPath id="clip2_2772_6466">
<rect width="41" height="41" fill="white" transform="translate(10.1963 10.5)"/>
</clipPath>
</defs>
</svg>
