<svg width="90" height="96" viewBox="0 0 90 96" fill="none" xmlns="http://www.w3.org/2000/svg">
<rect x="0.59668" y="1.09998" width="88.6" height="88.6" rx="44.3" stroke="#E2E2E2"/>
<path fill-rule="evenodd" clip-rule="evenodd" d="M37.3985 64.4041C30.5045 64.4041 24.8965 58.796 24.8965 51.902C24.8965 45.008 30.5045 39.4 37.3985 39.4C44.2925 39.4 49.9005 45.008 49.9005 51.902C49.9005 58.796 44.2925 64.4041 37.3985 64.4041Z" stroke="#C8982A" stroke-width="1.8" stroke-linecap="round" stroke-linejoin="round"/>
<path fill-rule="evenodd" clip-rule="evenodd" d="M52.3945 64.4041C45.5005 64.4041 39.8926 58.796 39.8926 51.902C39.8926 45.008 45.5005 39.4 52.3945 39.4C59.2885 39.4 64.8966 45.008 64.8966 51.902C64.8966 58.796 59.2885 64.4041 52.3945 64.4041Z" stroke="#C8982A" stroke-width="1.8" stroke-linecap="round" stroke-linejoin="round"/>
<path fill-rule="evenodd" clip-rule="evenodd" d="M44.9161 51.4C38.0221 51.4 32.4141 45.792 32.4141 38.898C32.4141 32.004 38.0221 26.396 44.9161 26.396C51.8101 26.396 57.4181 32.004 57.4181 38.898C57.4181 45.792 51.8101 51.4 44.9161 51.4Z" stroke="#C8982A" stroke-width="1.8" stroke-linecap="round" stroke-linejoin="round"/>
</svg>
