<svg width="91" height="97" viewBox="0 0 91 97" fill="none" xmlns="http://www.w3.org/2000/svg">
<rect x="1.08691" y="1.30005" width="88.6" height="88.6" rx="44.3" stroke="#E2E2E2"/>
<path d="M25.3867 59.6001C25.3867 55.2001 28.9867 51.6001 33.3867 51.6001H41.3867C45.7867 51.6001 49.3867 55.2001 49.3867 59.6001" stroke="#C8982A" stroke-width="1.5" stroke-linecap="round" stroke-linejoin="round"/>
<path d="M42.3871 33.6002C45.1871 36.4002 45.1871 40.8002 42.3871 43.4002C39.5871 46.0002 35.1871 46.2002 32.5871 43.4002C29.9871 40.6002 29.7871 36.4002 32.3871 33.6002C34.9871 30.8002 39.5871 31.0002 42.3871 33.6002Z" stroke="#C8982A" stroke-width="1.5" stroke-linecap="round" stroke-linejoin="round"/>
<path d="M53.3867 49.6001H59.3867C62.7867 49.6001 65.3867 52.2001 65.3867 55.6001" stroke="#C8982A" stroke-width="1.5" stroke-linecap="round" stroke-linejoin="round"/>
<path d="M59.9865 35.0001C61.9865 37.0001 61.9865 40.2001 59.9865 42.0001C57.9865 43.8001 54.7865 44.0001 52.9865 42.0001C51.1865 40.0001 50.9865 36.8001 52.9865 35.0001C54.7865 33.2001 57.9865 33.2001 59.9865 35.0001Z" stroke="#C8982A" stroke-width="1.5" stroke-linecap="round" stroke-linejoin="round"/>
</svg>
