<svg width="90" height="96" viewBox="0 0 90 96" fill="none" xmlns="http://www.w3.org/2000/svg">
<rect x="0.59668" y="1.09998" width="88.6" height="88.6" rx="44.3" stroke="#E2E2E2"/>
<path d="M57.6244 32.6721C64.6538 39.7016 64.6538 51.0985 57.6244 58.1279C50.5949 65.1573 39.1979 65.1573 32.1686 58.1279C25.1391 51.0985 25.1391 39.7015 32.1686 32.6721C39.1981 25.6427 50.5949 25.6427 57.6244 32.6721Z" stroke="#C8982A" stroke-width="1.8" stroke-linecap="round" stroke-linejoin="round"/>
<path d="M47.8964 50.4001C44.0304 50.4001 40.8965 47.266 40.8965 43.4C40.8965 39.5341 44.0304 36.4 47.8964 36.4C51.7644 36.4 54.8964 39.5341 54.8964 43.4C54.8964 47.266 51.7644 50.4001 47.8964 50.4001Z" stroke="#C8982A" stroke-width="1.8" stroke-linecap="round" stroke-linejoin="round"/>
<path d="M41.5565 40.436C37.8524 40.616 34.8965 43.652 34.8965 47.4001C34.8965 51.266 38.0304 54.4001 41.8964 54.4001C44.6904 54.4001 47.0825 52.7521 48.2064 50.384" stroke="#C8982A" stroke-width="1.8" stroke-linecap="round" stroke-linejoin="round"/>
</svg>
