<svg width="90" height="96" viewBox="0 0 90 96" fill="none" xmlns="http://www.w3.org/2000/svg">
<rect x="0.59668" y="1.09998" width="88.6" height="88.6" rx="44.3" stroke="#E2E2E2"/>
<path d="M58.8965 51.4V37.0561C58.8965 35.996 58.4745 34.978 57.7245 34.228L52.0685 28.572C51.3185 27.822 50.3004 27.4 49.2405 27.4H34.8965C32.6865 27.4 30.8965 29.19 30.8965 31.4V59.4001C30.8965 61.61 32.6865 63.4 34.8965 63.4H46.8965" stroke="#C8982A" stroke-width="1.8" stroke-linecap="round" stroke-linejoin="round"/>
<path d="M62.8964 57.4L56.8964 63.4L52.8965 59.4001" stroke="#C8982A" stroke-width="1.8" stroke-linecap="round" stroke-linejoin="round"/>
<path d="M36.8965 43.4H48.8965" stroke="#C8982A" stroke-width="1.8" stroke-linecap="round" stroke-linejoin="round"/>
<path d="M36.8965 49.4H48.8965" stroke="#C8982A" stroke-width="1.8" stroke-linecap="round" stroke-linejoin="round"/>
<path d="M36.8965 55.4H45.5565" stroke="#C8982A" stroke-width="1.8" stroke-linecap="round" stroke-linejoin="round"/>
<path d="M58.8966 37.4H50.8965C49.7925 37.4 48.8965 36.5041 48.8965 35.4001V27.4" stroke="#C8982A" stroke-width="1.8" stroke-linecap="round" stroke-linejoin="round"/>
</svg>
