<svg width="90" height="97" viewBox="0 0 90 97" fill="none" xmlns="http://www.w3.org/2000/svg">
<rect x="0.59668" y="1.39996" width="88.6" height="88.6" rx="44.3" stroke="#E2E2E2"/>
<path fill-rule="evenodd" clip-rule="evenodd" d="M60.8965 63.7H28.8965C26.6865 63.7 24.8965 61.9099 24.8965 59.7V31.6999C24.8965 29.49 26.6865 27.7 28.8965 27.7H60.8965C63.1065 27.7 64.8965 29.49 64.8965 31.6999V59.7C64.8965 61.9099 63.1065 63.7 60.8965 63.7Z" stroke="#C8982A" stroke-width="1.8" stroke-linecap="round" stroke-linejoin="round"/>
<path d="M24.8965 37.6999H64.8965" stroke="#C8982A" stroke-width="1.8" stroke-linecap="round" stroke-linejoin="round"/>
<path d="M30.4543 32.68C30.4483 32.68 30.4443 32.684 30.4443 32.69C30.4443 32.696 30.4483 32.7 30.4543 32.7C30.4603 32.7 30.4643 32.696 30.4643 32.69C30.4643 32.684 30.4603 32.68 30.4543 32.68Z" stroke="#C8982A" stroke-width="1.8" stroke-linecap="round" stroke-linejoin="round"/>
<path d="M35.5402 32.68C35.5342 32.68 35.5303 32.684 35.5303 32.69C35.5303 32.696 35.5363 32.7 35.5402 32.7C35.5462 32.7 35.5503 32.696 35.5503 32.69C35.5503 32.684 35.5462 32.68 35.5402 32.68Z" stroke="#C8982A" stroke-width="1.8" stroke-linecap="round" stroke-linejoin="round"/>
<path d="M40.6184 32.68C40.6124 32.68 40.6084 32.684 40.6084 32.69C40.6084 32.696 40.6124 32.7 40.6184 32.7C40.6244 32.7 40.6283 32.696 40.6283 32.69C40.6283 32.684 40.6244 32.68 40.6184 32.68Z" stroke="#C8982A" stroke-width="1.8" stroke-linecap="round" stroke-linejoin="round"/>
<path fill-rule="evenodd" clip-rule="evenodd" d="M44.8962 58.612C49.0442 54.232 49.0442 47.17 44.8962 42.79C40.7481 47.1679 40.7481 54.232 44.8962 58.612Z" stroke="#C8982A" stroke-width="1.8" stroke-linecap="round" stroke-linejoin="round"/>
<path fill-rule="evenodd" clip-rule="evenodd" d="M44.8965 58.6999C49.3245 58.6999 52.8966 55.128 52.8966 50.7C52.8966 46.272 49.3245 42.7 44.8965 42.7C40.4685 42.7 36.8965 46.272 36.8965 50.7C36.8965 55.128 40.4685 58.6999 44.8965 58.6999Z" stroke="#C8982A" stroke-width="1.8" stroke-linecap="round" stroke-linejoin="round"/>
<path d="M52.8966 50.6999H36.8965" stroke="#C8982A" stroke-width="1.8" stroke-linecap="round" stroke-linejoin="round"/>
</svg>
