<svg width="28" height="29" viewBox="0 0 28 29" fill="none" xmlns="http://www.w3.org/2000/svg">
<g clip-path="url(#clip0_1426_3591)">
<path d="M19.4414 15.1707C19.4414 15.6406 19.2651 16.0913 18.9513 16.4236C18.6374 16.7559 18.2118 16.9426 17.768 16.9426H9.95859C9.51477 16.9426 9.08913 16.7559 8.77529 16.4236C8.46146 16.0913 8.28516 15.6406 8.28516 15.1707C8.28516 14.7007 8.46146 14.2501 8.77529 13.9178C9.08913 13.5855 9.51477 13.3988 9.95859 13.3988H17.768C18.2118 13.3988 18.6374 13.5855 18.9513 13.9178C19.2651 14.2501 19.4414 14.7007 19.4414 15.1707ZM14.4211 19.3051H9.95859C9.51477 19.3051 9.08913 19.4917 8.77529 19.824C8.46146 20.1563 8.28516 20.607 8.28516 21.0769C8.28516 21.5469 8.46146 21.9975 8.77529 22.3298C9.08913 22.6621 9.51477 22.8488 9.95859 22.8488H14.4211C14.8649 22.8488 15.2906 22.6621 15.6044 22.3298C15.9182 21.9975 16.0945 21.5469 16.0945 21.0769C16.0945 20.607 15.9182 20.1563 15.6044 19.824C15.2906 19.4917 14.8649 19.3051 14.4211 19.3051ZM25.0195 10.0405V22.2582C25.0178 23.9807 24.3707 25.6321 23.2204 26.8501C22.0701 28.0681 20.5104 28.7532 18.8836 28.7551H8.84297C7.21616 28.7532 5.65649 28.0681 4.50616 26.8501C3.35584 25.6321 2.7088 23.9807 2.70703 22.2582V6.90193C2.7088 5.17943 3.35584 3.52801 4.50616 2.31002C5.65649 1.09202 7.21616 0.406932 8.84297 0.405056H15.9194C16.7255 0.402622 17.5241 0.569568 18.2688 0.896224C19.0136 1.22288 19.6897 1.70275 20.258 2.30805L23.2223 5.44663C23.7938 6.0485 24.247 6.76442 24.5555 7.55296C24.864 8.3415 25.0217 9.18699 25.0195 10.0405ZM21.6727 22.2582V11.0363H17.2102C16.6184 11.0363 16.0509 10.7874 15.6324 10.3443C15.214 9.90129 14.9789 9.30038 14.9789 8.67381V3.94881H8.84297C8.10326 3.94881 7.39385 4.25994 6.8708 4.81376C6.34775 5.36757 6.05391 6.11871 6.05391 6.90193V22.2582C6.05391 23.0414 6.34775 23.7925 6.8708 24.3464C7.39385 24.9002 8.10326 25.2113 8.84297 25.2113H18.8836C19.6233 25.2113 20.3327 24.9002 20.8558 24.3464C21.3788 23.7925 21.6727 23.0414 21.6727 22.2582Z" fill="black"/>
</g>
<defs>
<clipPath id="clip0_1426_3591">
<rect width="26.775" height="28.35" fill="white" transform="translate(0.475586 0.405029)"/>
</clipPath>
</defs>
</svg>
