<svg width="34" height="37" viewBox="0 0 34 37" fill="none" xmlns="http://www.w3.org/2000/svg">
<g clip-path="url(#clip0_1276_5670)">
<path d="M24.0833 19.5498C24.0833 20.1466 23.8594 20.7189 23.4609 21.1408C23.0624 21.5628 22.5219 21.7998 21.9583 21.7998H12.0416C11.4781 21.7998 10.9376 21.5628 10.539 21.1408C10.1405 20.7189 9.91665 20.1466 9.91665 19.5498C9.91665 18.9531 10.1405 18.3808 10.539 17.9588C10.9376 17.5369 11.4781 17.2998 12.0416 17.2998H21.9583C22.5219 17.2998 23.0624 17.5369 23.4609 17.9588C23.8594 18.3808 24.0833 18.9531 24.0833 19.5498ZM17.7083 24.7998H12.0416C11.4781 24.7998 10.9376 25.0369 10.539 25.4588C10.1405 25.8808 9.91665 26.4531 9.91665 27.0498C9.91665 27.6466 10.1405 28.2189 10.539 28.6408C10.9376 29.0628 11.4781 29.2998 12.0416 29.2998H17.7083C18.2719 29.2998 18.8124 29.0628 19.2109 28.6408C19.6094 28.2189 19.8333 27.6466 19.8333 27.0498C19.8333 26.4531 19.6094 25.8808 19.2109 25.4588C18.8124 25.0369 18.2719 24.7998 17.7083 24.7998ZM31.1666 13.0353V28.5498C31.1644 30.7371 30.3428 32.8342 28.882 34.3808C27.4213 35.9275 25.4408 36.7975 23.375 36.7998H10.625C8.55919 36.7975 6.57866 35.9275 5.11792 34.3808C3.65719 32.8342 2.83556 30.7371 2.83331 28.5498V9.04984C2.83556 6.86253 3.65719 4.7655 5.11792 3.21884C6.57866 1.67218 8.55919 0.80222 10.625 0.799838H19.6109C20.6345 0.796747 21.6486 1.00874 22.5943 1.42354C23.54 1.83835 24.3986 2.44771 25.1203 3.21634L28.8844 7.20184C29.6102 7.96611 30.1856 8.87522 30.5774 9.87654C30.9691 10.8779 31.1694 11.9515 31.1666 13.0353ZM26.9166 28.5498V14.2998H21.25C20.4985 14.2998 19.7779 13.9838 19.2465 13.4212C18.7152 12.8585 18.4166 12.0955 18.4166 11.2998V5.29984H10.625C9.68567 5.29984 8.78483 5.69493 8.12064 6.39819C7.45645 7.10145 7.08331 8.05528 7.08331 9.04984V28.5498C7.08331 29.5444 7.45645 30.4982 8.12064 31.2015C8.78483 31.9048 9.68567 32.2998 10.625 32.2998H23.375C24.3143 32.2998 25.2151 31.9048 25.8793 31.2015C26.5435 30.4982 26.9166 29.5444 26.9166 28.5498Z" fill="black"/>
</g>
<defs>
<clipPath id="clip0_1276_5670">
<rect width="34" height="36" fill="white" transform="translate(0 0.799805)"/>
</clipPath>
</defs>
</svg>
