<svg width="26" height="28" viewBox="0 0 26 28" fill="none" xmlns="http://www.w3.org/2000/svg">
<g clip-path="url(#clip0_1417_1394)">
<path d="M18.5625 14.1624C18.5625 14.6099 18.3946 15.0392 18.0957 15.3556C17.7968 15.6721 17.3914 15.8499 16.9688 15.8499H9.53125C9.10856 15.8499 8.70319 15.6721 8.4043 15.3556C8.10541 15.0392 7.9375 14.6099 7.9375 14.1624C7.9375 13.7148 8.10541 13.2856 8.4043 12.9691C8.70319 12.6527 9.10856 12.4749 9.53125 12.4749H16.9688C17.3914 12.4749 17.7968 12.6527 18.0957 12.9691C18.3946 13.2856 18.5625 13.7148 18.5625 14.1624ZM13.7813 18.0999H9.53125C9.10856 18.0999 8.70319 18.2777 8.4043 18.5941C8.10541 18.9106 7.9375 19.3398 7.9375 19.7874C7.9375 20.2349 8.10541 20.6642 8.4043 20.9806C8.70319 21.2971 9.10856 21.4749 9.53125 21.4749H13.7813C14.2039 21.4749 14.6093 21.2971 14.9082 20.9806C15.2071 20.6642 15.375 20.2349 15.375 19.7874C15.375 19.3398 15.2071 18.9106 14.9082 18.5941C14.6093 18.2777 14.2039 18.0999 13.7813 18.0999ZM23.875 9.2765V20.9124C23.8733 22.5529 23.2571 24.1256 22.1615 25.2856C21.066 26.4456 19.5806 27.0981 18.0313 27.0999H8.46875C6.91941 27.0981 5.43401 26.4456 4.33846 25.2856C3.24291 24.1256 2.62669 22.5529 2.625 20.9124V6.28738C2.62669 4.6469 3.24291 3.07412 4.33846 1.91413C5.43401 0.754134 6.91941 0.101665 8.46875 0.0998785H15.2082C15.9759 0.0975604 16.7365 0.256557 17.4457 0.567658C18.155 0.87876 18.799 1.33578 19.3403 1.91225L22.1633 4.90138C22.7077 5.47458 23.1392 6.15641 23.433 6.90741C23.7269 7.6584 23.8771 8.46363 23.875 9.2765ZM20.6875 20.9124V10.2249H16.4375C15.8739 10.2249 15.3334 9.98782 14.9349 9.56587C14.5364 9.14391 14.3125 8.57162 14.3125 7.97488V3.47488H8.46875C7.76427 3.47488 7.08864 3.77119 6.5905 4.29864C6.09235 4.82609 5.8125 5.54146 5.8125 6.28738V20.9124C5.8125 21.6583 6.09235 22.3737 6.5905 22.9011C7.08864 23.4286 7.76427 23.7249 8.46875 23.7249H18.0313C18.7357 23.7249 19.4114 23.4286 19.9095 22.9011C20.4076 22.3737 20.6875 21.6583 20.6875 20.9124Z" fill="black"/>
</g>
<defs>
<clipPath id="clip0_1417_1394">
<rect width="25.5" height="27" fill="white" transform="translate(0.5 0.0998535)"/>
</clipPath>
</defs>
</svg>
