<svg width="38" height="38" viewBox="0 0 38 38" fill="none" xmlns="http://www.w3.org/2000/svg">
<g clip-path="url(#clip0_1417_1691)">
<path d="M2.59379 2.80147C-0.353088 5.8624 0.250037 9.11397 0.250037 18.9921C0.250037 27.1952 -1.18121 35.4187 6.30941 37.3546C8.64847 37.9562 29.3735 37.9562 31.7094 37.3515C34.8282 36.5468 37.3657 34.0171 37.7125 29.6062C37.761 28.9905 37.761 9.00459 37.711 8.37647C37.3422 3.67803 34.45 0.970217 30.6391 0.42178C29.7657 0.295217 29.5907 0.257717 25.1094 0.249905C9.2141 0.257717 5.72972 -0.450096 2.59379 2.80147Z" fill="url(#paint0_linear_1417_1691)"/>
<path d="M18.9968 5.15484C13.3234 5.15484 7.93589 4.65015 5.87808 9.93141C5.02808 12.1127 5.15152 14.9455 5.15152 19.0017C5.15152 22.5611 5.03745 25.9064 5.87808 28.0705C7.9312 33.3548 13.3625 32.8486 18.9937 32.8486C24.4265 32.8486 30.0281 33.4142 32.1109 28.0705C32.9625 25.8673 32.8375 23.0767 32.8375 19.0017C32.8375 13.5923 33.1359 10.1002 30.5125 7.47828C27.8562 4.82203 24.264 5.15484 18.9906 5.15484H18.9968ZM17.7562 7.65015C29.5906 7.6314 31.0968 6.31578 30.2656 24.5923C29.9703 31.0564 25.0484 30.347 18.9984 30.347C7.96714 30.347 7.64995 30.0314 7.64995 18.9955C7.64995 7.83141 8.52495 7.65641 17.7562 7.64703V7.65015ZM26.3875 9.94859C25.4703 9.94859 24.7265 10.6923 24.7265 11.6095C24.7265 12.5267 25.4703 13.2705 26.3875 13.2705C27.3046 13.2705 28.0484 12.5267 28.0484 11.6095C28.0484 10.6923 27.3046 9.94859 26.3875 9.94859ZM18.9968 11.8908C15.0703 11.8908 11.8875 15.0752 11.8875 19.0017C11.8875 22.9283 15.0703 26.1111 18.9968 26.1111C22.9234 26.1111 26.1046 22.9283 26.1046 19.0017C26.1046 15.0752 22.9234 11.8908 18.9968 11.8908ZM18.9968 14.3861C25.0984 14.3861 25.1062 23.6173 18.9968 23.6173C12.8968 23.6173 12.8875 14.3861 18.9968 14.3861Z" fill="white"/>
</g>
<defs>
<linearGradient id="paint0_linear_1417_1691" x1="2.66569" y1="35.3547" x2="37.518" y2="5.19049" gradientUnits="userSpaceOnUse">
<stop stop-color="#FFDD55"/>
<stop offset="0.5" stop-color="#FF543E"/>
<stop offset="1" stop-color="#C837AB"/>
</linearGradient>
<clipPath id="clip0_1417_1691">
<rect width="37.5" height="37.5" fill="white" transform="translate(0.25 0.25)"/>
</clipPath>
</defs>
</svg>
