<svg width="40" height="41" viewBox="0 0 40 41" fill="none" xmlns="http://www.w3.org/2000/svg">
<g clip-path="url(#clip0_1426_3888)">
<path d="M2.72377 3.44156C-0.37045 6.65555 0.262831 10.0697 0.262831 20.4417C0.262831 29.055 -1.23998 37.6896 6.62517 39.7223C9.08119 40.354 30.8424 40.354 33.2952 39.7191C36.5699 38.8741 39.2342 36.218 39.5985 31.5865C39.6493 30.9401 39.6493 9.95485 39.5968 9.29531C39.2096 4.36196 36.1728 1.51875 32.1713 0.942893C31.2542 0.810002 31.0705 0.770627 26.3652 0.762424C9.6751 0.770627 6.0165 0.0274242 2.72377 3.44156Z" fill="url(#paint0_linear_1426_3888)"/>
<path d="M19.947 5.91247C13.9899 5.91247 8.33299 5.38255 6.17229 10.9279C5.27979 13.2182 5.4094 16.1926 5.4094 20.4517C5.4094 24.189 5.28963 27.7016 6.17229 29.9739C8.32807 35.5225 14.0309 34.9909 19.9437 34.9909C25.6481 34.9909 31.5298 35.5848 33.7167 29.9739C34.6109 27.6606 34.4796 24.7304 34.4796 20.4517C34.4796 14.7718 34.793 11.105 32.0384 8.35208C29.2493 5.56302 25.4775 5.91247 19.9404 5.91247H19.947ZM18.6443 8.53255C31.0704 8.51286 32.652 7.13146 31.7792 26.3218C31.4691 33.1091 26.3011 32.3643 19.9486 32.3643C8.3658 32.3643 8.03276 32.0329 8.03276 20.4451C8.03276 8.72286 8.95151 8.53911 18.6443 8.52927V8.53255ZM27.7071 10.9459C26.7441 10.9459 25.9631 11.7268 25.9631 12.6899C25.9631 13.6529 26.7441 14.4339 27.7071 14.4339C28.6702 14.4339 29.4511 13.6529 29.4511 12.6899C29.4511 11.7268 28.6702 10.9459 27.7071 10.9459ZM19.947 12.9852C15.8241 12.9852 12.4821 16.3288 12.4821 20.4517C12.4821 24.5746 15.8241 27.9165 19.947 27.9165C24.0699 27.9165 27.4102 24.5746 27.4102 20.4517C27.4102 16.3288 24.0699 12.9852 19.947 12.9852ZM19.947 15.6053C26.3536 15.6053 26.3618 25.2981 19.947 25.2981C13.542 25.2981 13.5321 15.6053 19.947 15.6053Z" fill="white"/>
</g>
<defs>
<linearGradient id="paint0_linear_1426_3888" x1="2.79927" y1="37.6225" x2="39.3942" y2="5.95004" gradientUnits="userSpaceOnUse">
<stop stop-color="#FFDD55"/>
<stop offset="0.5" stop-color="#FF543E"/>
<stop offset="1" stop-color="#C837AB"/>
</linearGradient>
<clipPath id="clip0_1426_3888">
<rect width="39.375" height="39.375" fill="white" transform="translate(0.262695 0.762451)"/>
</clipPath>
</defs>
</svg>
