<svg width="39" height="38" viewBox="0 0 39 38" fill="none" xmlns="http://www.w3.org/2000/svg">
<g clip-path="url(#clip0_1417_1694)">
<path d="M33.1364 0.25H5.86364C3.03945 0.25 0.75 2.53945 0.75 5.36364V32.6364C0.75 35.4605 3.03945 37.75 5.86364 37.75H33.1364C35.9605 37.75 38.25 35.4605 38.25 32.6364V5.36364C38.25 2.53945 35.9605 0.25 33.1364 0.25Z" fill="#3A559F"/>
<path d="M25.4404 16.7798L25.0633 20.0462C25.0476 20.1952 24.9778 20.3333 24.867 20.4343C24.7563 20.5352 24.6123 20.592 24.4624 20.5938H21.0534L21.0363 30.2777C21.0375 30.3925 20.9934 30.5031 20.9137 30.5856C20.8339 30.6681 20.7249 30.716 20.6102 30.7188H17.1563C17.0989 30.7188 17.0421 30.7072 16.9892 30.6848C16.9364 30.6623 16.8886 30.6294 16.8488 30.588C16.809 30.5466 16.778 30.4976 16.7576 30.4439C16.7372 30.3902 16.7279 30.3329 16.7302 30.2756V20.5938H14.1734C14.0931 20.5929 14.0137 20.5763 13.9398 20.5448C13.866 20.5133 13.799 20.4675 13.7428 20.4101C13.6866 20.3528 13.6423 20.2849 13.6124 20.2104C13.5824 20.1358 13.5674 20.0562 13.5683 19.9759L13.5555 16.7095C13.5544 16.6289 13.5691 16.5489 13.5989 16.474C13.6287 16.3991 13.673 16.3309 13.7292 16.2731C13.7854 16.2153 13.8524 16.1692 13.9264 16.1373C14.0004 16.1054 14.08 16.0885 14.1606 16.0874H16.7302V12.9339C16.7302 9.27344 18.9035 7.28125 22.091 7.28125H24.7032C24.784 7.28208 24.8638 7.29885 24.9381 7.3306C25.0123 7.36234 25.0796 7.40844 25.136 7.46624C25.1924 7.52405 25.2369 7.59242 25.2668 7.66744C25.2967 7.74246 25.3116 7.82265 25.3105 7.90341V10.652C25.3116 10.7328 25.2967 10.8129 25.2668 10.888C25.2369 10.963 25.1924 11.0314 25.136 11.0892C25.0796 11.147 25.0123 11.1931 24.9381 11.2248C24.8638 11.2565 24.784 11.2733 24.7032 11.2741H23.1009C21.3687 11.2741 21.032 12.1264 21.032 13.358V16.0874H24.8396C24.9262 16.0884 25.0115 16.1078 25.0901 16.1443C25.1687 16.1807 25.2386 16.2334 25.2954 16.2988C25.3521 16.3642 25.3944 16.4409 25.4194 16.5238C25.4444 16.6067 25.4516 16.694 25.4404 16.7798Z" fill="white"/>
</g>
<defs>
<clipPath id="clip0_1417_1694">
<rect width="37.5" height="37.5" fill="white" transform="translate(0.75 0.25)"/>
</clipPath>
</defs>
</svg>
