<svg width="40" height="41" viewBox="0 0 40 41" fill="none" xmlns="http://www.w3.org/2000/svg">
<g clip-path="url(#clip0_1426_3891)">
<path d="M34.2933 0.762451H5.65692C2.69152 0.762451 0.287598 3.16638 0.287598 6.13177V34.7681C0.287598 37.7335 2.69152 40.1375 5.65692 40.1375H34.2933C37.2587 40.1375 39.6626 37.7335 39.6626 34.7681V6.13177C39.6626 3.16638 37.2587 0.762451 34.2933 0.762451Z" fill="#3A559F"/>
<path d="M26.2127 18.1188L25.8167 21.5484C25.8002 21.7049 25.7269 21.8499 25.6106 21.9559C25.4943 22.0619 25.3431 22.1215 25.1858 22.1234H21.6062L21.5883 32.2915C21.5895 32.412 21.5433 32.5282 21.4595 32.6148C21.3758 32.7015 21.2613 32.7517 21.1409 32.7546H17.5144C17.4541 32.7547 17.3944 32.7425 17.3389 32.719C17.2834 32.6954 17.2333 32.6608 17.1915 32.6173C17.1497 32.5739 17.1171 32.5224 17.0957 32.466C17.0743 32.4097 17.0645 32.3495 17.0669 32.2893V22.1234H14.3823C14.2979 22.1225 14.2146 22.105 14.137 22.072C14.0595 22.0389 13.9892 21.9908 13.9302 21.9306C13.8712 21.8703 13.8246 21.7991 13.7932 21.7208C13.7617 21.6426 13.746 21.5589 13.7469 21.4746L13.7335 18.0449C13.7323 17.9603 13.7478 17.8763 13.7791 17.7977C13.8104 17.7191 13.8568 17.6474 13.9158 17.5867C13.9748 17.526 14.0452 17.4776 14.1229 17.4441C14.2007 17.4107 14.2842 17.3928 14.3688 17.3917H17.0669V14.0806C17.0669 10.2371 19.3489 8.14526 22.6958 8.14526H25.4386C25.5234 8.14614 25.6072 8.16375 25.6852 8.19708C25.7631 8.23041 25.8338 8.27881 25.893 8.33951C25.9523 8.4002 25.9989 8.47199 26.0304 8.55076C26.0618 8.62953 26.0774 8.71373 26.0762 8.79853V11.6845C26.0774 11.7693 26.0618 11.8535 26.0304 11.9323C25.9989 12.0111 25.9523 12.0829 25.893 12.1436C25.8338 12.2043 25.7631 12.2527 25.6852 12.286C25.6072 12.3193 25.5234 12.3369 25.4386 12.3378H23.7562C21.9373 12.3378 21.5839 13.2327 21.5839 14.5258V17.3917H25.5818C25.6727 17.3928 25.7623 17.4132 25.8448 17.4515C25.9273 17.4897 26.0007 17.545 26.0603 17.6137C26.1199 17.6824 26.1643 17.7629 26.1906 17.8499C26.2168 17.937 26.2243 18.0286 26.2127 18.1188Z" fill="white"/>
</g>
<defs>
<clipPath id="clip0_1426_3891">
<rect width="39.375" height="39.375" fill="white" transform="translate(0.287598 0.762451)"/>
</clipPath>
</defs>
</svg>
