<svg width="50" height="50" viewBox="0 0 50 50" fill="none" xmlns="http://www.w3.org/2000/svg">
<g clip-path="url(#clip0_1276_5970)">
<path d="M43.1818 0H6.81818C3.0526 0 0 3.0526 0 6.81818V43.1818C0 46.9474 3.0526 50 6.81818 50H43.1818C46.9474 50 50 46.9474 50 43.1818V6.81818C50 3.0526 46.9474 0 43.1818 0Z" fill="#3A559F"/>
<path d="M32.9205 22.0398L32.4176 26.3949C32.3968 26.5936 32.3036 26.7777 32.1559 26.9123C32.0083 27.0469 31.8163 27.1226 31.6165 27.125H27.071L27.0483 40.0369C27.0498 40.1899 26.9911 40.3374 26.8848 40.4475C26.7785 40.5575 26.6331 40.6213 26.4801 40.625H21.875C21.7984 40.6251 21.7227 40.6096 21.6522 40.5797C21.5817 40.5497 21.5181 40.5058 21.465 40.4506C21.4119 40.3954 21.3706 40.3301 21.3434 40.2585C21.3162 40.1869 21.3038 40.1106 21.3068 40.0341V27.125H17.8977C17.7907 27.1239 17.6849 27.1017 17.5864 27.0597C17.4879 27.0177 17.3986 26.9567 17.3237 26.8802C17.2488 26.8037 17.1896 26.7132 17.1497 26.6138C17.1098 26.5145 17.0898 26.4082 17.0909 26.3011L17.0739 21.946C17.0724 21.8386 17.092 21.7319 17.1318 21.632C17.1715 21.5322 17.2305 21.4412 17.3055 21.3641C17.3804 21.2871 17.4697 21.2256 17.5684 21.1831C17.6671 21.1406 17.7732 21.118 17.8807 21.1165H21.3068V16.9119C21.3068 12.0312 24.2046 9.375 28.4546 9.375H31.9375C32.0452 9.37611 32.1516 9.39847 32.2506 9.4408C32.3497 9.48313 32.4394 9.54459 32.5146 9.62166C32.5898 9.69873 32.6491 9.78989 32.689 9.88991C32.7289 9.98994 32.7487 10.0969 32.7472 10.2045V13.8693C32.7487 13.977 32.7289 14.0839 32.689 14.1839C32.6491 14.284 32.5898 14.3751 32.5146 14.4522C32.4394 14.5293 32.3497 14.5907 32.2506 14.6331C32.1516 14.6754 32.0452 14.6978 31.9375 14.6989H29.8011C27.4915 14.6989 27.0426 15.8352 27.0426 17.4773V21.1165H32.1193C32.2348 21.1179 32.3486 21.1438 32.4534 21.1924C32.5581 21.241 32.6514 21.3112 32.727 21.3984C32.8027 21.4856 32.8591 21.5878 32.8924 21.6984C32.9257 21.8089 32.9353 21.9253 32.9205 22.0398Z" fill="white"/>
</g>
<defs>
<clipPath id="clip0_1276_5970">
<rect width="50" height="50" fill="white"/>
</clipPath>
</defs>
</svg>
