<svg width="28" height="28" viewBox="0 0 28 28" fill="none" xmlns="http://www.w3.org/2000/svg">
<g clip-path="url(#clip0_1417_1427)">
<path d="M21.3125 0.250061H6.6875C5.04702 0.251897 3.47424 0.922491 2.31425 2.11471C1.15426 3.30692 0.501787 4.92339 0.5 6.60944L0.5 21.6407C0.501787 23.3267 1.15426 24.9432 2.31425 26.1354C3.47424 27.3276 5.04702 27.9982 6.6875 28.0001H21.3125C22.953 27.9982 24.5258 27.3276 25.6857 26.1354C26.8457 24.9432 27.4982 23.3267 27.5 21.6407V6.60944C27.4982 4.92339 26.8457 3.30692 25.6857 2.11471C24.5258 0.922491 22.953 0.251897 21.3125 0.250061ZM3.875 11.8126H6.125V16.4376H3.875V11.8126ZM18.5 12.3907H9.5V3.71881H18.5V12.3907ZM9.5 15.8594H18.5V24.5313H9.5V15.8594ZM21.875 11.8126H24.125V16.4376H21.875V11.8126ZM24.125 6.60944V8.34381H21.875V3.77778C22.5101 3.91102 23.0809 4.26561 23.4909 4.78159C23.9009 5.29757 24.1249 5.94326 24.125 6.60944ZM6.125 3.77778V8.34381H3.875V6.60944C3.87513 5.94326 4.09913 5.29757 4.50912 4.78159C4.91911 4.26561 5.48992 3.91102 6.125 3.77778ZM3.875 21.6407V19.9063H6.125V24.4723C5.48992 24.3391 4.91911 23.9845 4.50912 23.4685C4.09913 22.9526 3.87513 22.3069 3.875 21.6407ZM21.875 24.4723V19.9063H24.125V21.6407C24.1249 22.3069 23.9009 22.9526 23.4909 23.4685C23.0809 23.9845 22.5101 24.3391 21.875 24.4723Z" fill="black"/>
</g>
<defs>
<clipPath id="clip0_1417_1427">
<rect width="27" height="27.75" fill="white" transform="translate(0.5 0.249817)"/>
</clipPath>
</defs>
</svg>
