<svg width="36" height="37" viewBox="0 0 36 37" fill="none" xmlns="http://www.w3.org/2000/svg">
<g clip-path="url(#clip0_1276_5703)">
<path d="M27.75 -0.000244141H8.25C6.0627 0.00220429 3.96566 0.896329 2.419 2.48595C0.872341 4.07557 0.00238225 6.23086 0 8.47892L0 28.5206C0.00238225 30.7687 0.872341 32.9239 2.419 34.5136C3.96566 36.1032 6.0627 36.9973 8.25 36.9998H27.75C29.9373 36.9973 32.0343 36.1032 33.581 34.5136C35.1277 32.9239 35.9976 30.7687 36 28.5206V8.47892C35.9976 6.23086 35.1277 4.07557 33.581 2.48595C32.0343 0.896329 29.9373 0.00220429 27.75 -0.000244141ZM4.5 15.4164H7.5V21.5831H4.5V15.4164ZM24 16.1873H12V4.62476H24V16.1873ZM12 20.8123H24V32.3748H12V20.8123ZM28.5 15.4164H31.5V21.5831H28.5V15.4164ZM31.5 8.47892V10.7914H28.5V4.70338C29.3468 4.88103 30.1079 5.35382 30.6545 6.0418C31.2012 6.72977 31.4998 7.59068 31.5 8.47892ZM7.5 4.70338V10.7914H4.5V8.47892C4.50017 7.59068 4.79884 6.72977 5.34549 6.0418C5.89215 5.35382 6.65323 4.88103 7.5 4.70338ZM4.5 28.5206V26.2081H7.5V32.2961C6.65323 32.1185 5.89215 31.6457 5.34549 30.9577C4.79884 30.2697 4.50017 29.4088 4.5 28.5206ZM28.5 32.2961V26.2081H31.5V28.5206C31.4998 29.4088 31.2012 30.2697 30.6545 30.9577C30.1079 31.6457 29.3468 32.1185 28.5 32.2961Z" fill="black"/>
</g>
<defs>
<clipPath id="clip0_1276_5703">
<rect width="36" height="37" fill="white" transform="translate(0 -0.000244141)"/>
</clipPath>
</defs>
</svg>
