<svg width="29" height="30" viewBox="0 0 29 30" fill="none" xmlns="http://www.w3.org/2000/svg">
<g clip-path="url(#clip0_1426_3624)">
<path d="M22.3287 0.662598H6.97246C5.24996 0.664526 3.59854 1.36865 2.38055 2.62048C1.16255 3.8723 0.477462 5.56959 0.475586 7.33994L0.475586 23.1228C0.477462 24.8931 1.16255 26.5904 2.38055 27.8422C3.59854 29.094 5.24996 29.7982 6.97246 29.8001H22.3287C24.0512 29.7982 25.7026 29.094 26.9206 27.8422C28.1386 26.5904 28.8237 24.8931 28.8256 23.1228V7.33994C28.8237 5.56959 28.1386 3.8723 26.9206 2.62048C25.7026 1.36865 24.0512 0.664526 22.3287 0.662598ZM4.01934 12.8032H6.38184V17.6595H4.01934V12.8032ZM19.3756 13.4103H9.92559V4.30479H19.3756V13.4103ZM9.92559 17.0524H19.3756V26.1579H9.92559V17.0524ZM22.9193 12.8032H25.2818V17.6595H22.9193V12.8032ZM25.2818 7.33994V9.16104H22.9193V4.3667C23.5862 4.5066 24.1855 4.87893 24.616 5.4207C25.0465 5.96248 25.2817 6.64045 25.2818 7.33994ZM6.38184 4.3667V9.16104H4.01934V7.33994C4.01947 6.64045 4.25467 5.96248 4.68516 5.4207C5.11565 4.87893 5.715 4.5066 6.38184 4.3667ZM4.01934 23.1228V21.3017H6.38184V26.096C5.715 25.9561 5.11565 25.5838 4.68516 25.042C4.25467 24.5002 4.01947 23.8222 4.01934 23.1228ZM22.9193 26.096V21.3017H25.2818V23.1228C25.2817 23.8222 25.0465 24.5002 24.616 25.042C24.1855 25.5838 23.5862 25.9561 22.9193 26.096Z" fill="black"/>
</g>
<defs>
<clipPath id="clip0_1426_3624">
<rect width="28.35" height="29.1375" fill="white" transform="translate(0.475586 0.662598)"/>
</clipPath>
</defs>
</svg>
