<svg width="20" height="20" viewBox="0 0 20 20" fill="none" xmlns="http://www.w3.org/2000/svg">
<path d="M10 5.00016C10.9167 5.00016 11.6667 5.75016 11.6667 6.66683C11.6667 7.5835 10.9167 8.3335 10 8.3335C9.08337 8.3335 8.33337 7.5835 8.33337 6.66683C8.33337 5.75016 9.08337 5.00016 10 5.00016ZM10 13.3335C12.25 13.3335 14.8334 14.4085 15 15.0002H5.00004C5.19171 14.4002 7.75837 13.3335 10 13.3335ZM10 3.3335C8.15837 3.3335 6.66671 4.82516 6.66671 6.66683C6.66671 8.5085 8.15837 10.0002 10 10.0002C11.8417 10.0002 13.3334 8.5085 13.3334 6.66683C13.3334 4.82516 11.8417 3.3335 10 3.3335ZM10 11.6668C7.77504 11.6668 3.33337 12.7835 3.33337 15.0002V16.6668H16.6667V15.0002C16.6667 12.7835 12.225 11.6668 10 11.6668Z" fill="#C59318"/>
</svg>
