<svg width="38" height="38" viewBox="0 0 38 38" fill="none" xmlns="http://www.w3.org/2000/svg">
<g clip-path="url(#clip0_1417_1700)">
<path d="M34.2706 0.25H3.7294C1.80778 0.25 0.25 1.80778 0.25 3.7294V34.2706C0.25 36.1922 1.80778 37.75 3.7294 37.75H34.2706C36.1922 37.75 37.75 36.1922 37.75 34.2706V3.7294C37.75 1.80778 36.1922 0.25 34.2706 0.25Z" fill="#0B63BD"/>
<path d="M13.7585 10.4773C13.7585 11.1094 13.5711 11.7273 13.2199 12.2529C12.8687 12.7785 12.3695 13.1881 11.7855 13.43C11.2015 13.6719 10.5589 13.7352 9.93897 13.6119C9.319 13.4886 8.74952 13.1842 8.30255 12.7372C7.85558 12.2902 7.55119 11.7208 7.42787 11.1008C7.30455 10.4808 7.36784 9.8382 7.60974 9.25421C7.85164 8.67021 8.26128 8.17106 8.78686 7.81988C9.31245 7.46869 9.93037 7.28125 10.5625 7.28125C11.4101 7.28125 12.223 7.61797 12.8224 8.21734C13.4218 8.81671 13.7585 9.62963 13.7585 10.4773Z" fill="white"/>
<path d="M13.034 15.8038V29.9239C13.0345 30.028 13.0145 30.1313 12.975 30.2277C12.9356 30.3241 12.8774 30.4117 12.804 30.4856C12.7305 30.5594 12.6432 30.6181 12.547 30.658C12.4508 30.698 12.3477 30.7186 12.2435 30.7186H8.87489C8.77073 30.7189 8.66753 30.6986 8.57124 30.6589C8.47495 30.6191 8.38746 30.5607 8.3138 30.4871C8.24015 30.4134 8.18177 30.3259 8.14204 30.2297C8.10231 30.1334 8.082 30.0302 8.08228 29.926V15.8038C8.08228 15.5936 8.16579 15.392 8.31443 15.2434C8.46307 15.0947 8.66468 15.0112 8.87489 15.0112H12.2435C12.4533 15.0118 12.6544 15.0956 12.8026 15.2441C12.9508 15.3927 13.034 15.594 13.034 15.8038Z" fill="white"/>
<path d="M30.642 23.1547V29.9899C30.6423 30.0857 30.6237 30.1806 30.5871 30.2691C30.5506 30.3577 30.4969 30.4381 30.4292 30.5058C30.3615 30.5735 30.2811 30.6272 30.1925 30.6637C30.104 30.7002 30.0091 30.7189 29.9133 30.7186H26.2912C26.1954 30.7189 26.1005 30.7002 26.012 30.6637C25.9234 30.6272 25.843 30.5735 25.7753 30.5058C25.7076 30.4381 25.6539 30.3577 25.6174 30.2691C25.5809 30.1806 25.5622 30.0857 25.5625 29.9899V23.3656C25.5625 22.377 25.8523 19.0361 22.978 19.0361C20.7514 19.0361 20.2976 21.3223 20.2081 22.3493V29.9899C20.2081 30.1814 20.1328 30.3651 19.9984 30.5015C19.8641 30.6378 19.6814 30.7158 19.49 30.7186H15.9915C15.8959 30.7186 15.8012 30.6998 15.7129 30.6631C15.6246 30.6265 15.5444 30.5728 15.4769 30.5051C15.4095 30.4374 15.356 30.357 15.3196 30.2686C15.2832 30.1802 15.2646 30.0855 15.2649 29.9899V15.7421C15.2646 15.6465 15.2832 15.5518 15.3196 15.4634C15.356 15.375 15.4095 15.2946 15.4769 15.2269C15.5444 15.1592 15.6246 15.1055 15.7129 15.0689C15.8012 15.0322 15.8959 15.0134 15.9915 15.0134H19.49C19.6833 15.0134 19.8686 15.0901 20.0053 15.2268C20.142 15.3634 20.2187 15.5488 20.2187 15.7421V16.9736C21.0454 15.7335 22.2706 14.7769 24.8849 14.7769C30.6761 14.7769 30.642 20.1845 30.642 23.1547Z" fill="white"/>
</g>
<defs>
<clipPath id="clip0_1417_1700">
<rect width="37.5" height="37.5" fill="white" transform="translate(0.25 0.25)"/>
</clipPath>
</defs>
</svg>
