<svg width="40" height="41" viewBox="0 0 40 41" fill="none" xmlns="http://www.w3.org/2000/svg">
<g clip-path="url(#clip0_1426_3897)">
<path d="M36.0341 0.762451H3.96587C1.94817 0.762451 0.3125 2.39812 0.3125 4.41582V36.4841C0.3125 38.5018 1.94817 40.1375 3.96587 40.1375H36.0341C38.0518 40.1375 39.6875 38.5018 39.6875 36.4841V4.41582C39.6875 2.39812 38.0518 0.762451 36.0341 0.762451Z" fill="#0B63BD"/>
<path d="M14.4963 11.5011C14.4963 12.1648 14.2995 12.8136 13.9308 13.3655C13.562 13.9173 13.0379 14.3475 12.4247 14.6015C11.8115 14.8555 11.1368 14.9219 10.4858 14.7924C9.83484 14.6629 9.23689 14.3433 8.76757 13.874C8.29825 13.4047 7.97864 12.8067 7.84915 12.1558C7.71967 11.5048 7.78612 10.8301 8.04012 10.2169C8.29411 9.60367 8.72424 9.07956 9.2761 8.71082C9.82796 8.34208 10.4768 8.14526 11.1405 8.14526C12.0305 8.14526 12.8841 8.49882 13.5134 9.12816C14.1428 9.7575 14.4963 10.6111 14.4963 11.5011Z" fill="white"/>
<path d="M13.7359 17.094V31.92C13.7365 32.0294 13.7155 32.1378 13.674 32.239C13.6326 32.3402 13.5715 32.4322 13.4944 32.5098C13.4173 32.5873 13.3256 32.6489 13.2246 32.6909C13.1236 32.7329 13.0153 32.7545 12.9059 32.7545H9.36887C9.25949 32.7548 9.15114 32.7334 9.05003 32.6917C8.94893 32.65 8.85706 32.5887 8.77972 32.5114C8.70238 32.434 8.64109 32.3422 8.59937 32.2411C8.55765 32.14 8.53633 32.0316 8.53662 31.9222V17.094C8.53662 16.8732 8.62431 16.6616 8.78038 16.5055C8.93646 16.3494 9.14814 16.2617 9.36887 16.2617H12.9059C13.1262 16.2623 13.3374 16.3503 13.4929 16.5063C13.6485 16.6623 13.7359 16.8736 13.7359 17.094Z" fill="white"/>
<path d="M32.2241 24.8124V31.9893C32.2244 32.0899 32.2048 32.1895 32.1665 32.2825C32.1281 32.3755 32.0718 32.4599 32.0007 32.531C31.9296 32.6021 31.8451 32.6585 31.7521 32.6968C31.6592 32.7352 31.5596 32.7548 31.459 32.7545H27.6557C27.5552 32.7548 27.4555 32.7352 27.3626 32.6968C27.2696 32.6585 27.1851 32.6021 27.114 32.531C27.0429 32.4599 26.9866 32.3755 26.9482 32.2825C26.9099 32.1895 26.8903 32.0899 26.8906 31.9893V25.0338C26.8906 23.9958 27.1949 20.4878 24.1769 20.4878C21.839 20.4878 21.3624 22.8884 21.2685 23.9667V31.9893C21.2685 32.1903 21.1894 32.3833 21.0483 32.5265C20.9073 32.6696 20.7155 32.7515 20.5145 32.7545H16.841C16.7406 32.7545 16.6413 32.7347 16.5486 32.6962C16.4559 32.6577 16.3717 32.6013 16.3008 32.5302C16.2299 32.4592 16.1738 32.3748 16.1356 32.282C16.0973 32.1892 16.0778 32.0897 16.0781 31.9893V17.0291C16.0778 16.9287 16.0973 16.8293 16.1356 16.7365C16.1738 16.6436 16.2299 16.5593 16.3008 16.4882C16.3717 16.4171 16.4559 16.3607 16.5486 16.3222C16.6413 16.2838 16.7406 16.264 16.841 16.264H20.5145C20.7175 16.264 20.9121 16.3446 21.0556 16.4881C21.199 16.6315 21.2797 16.8262 21.2797 17.0291V18.3222C22.1477 17.0201 23.4341 16.0156 26.1792 16.0156C32.2599 16.0156 32.2241 21.6937 32.2241 24.8124Z" fill="white"/>
</g>
<defs>
<clipPath id="clip0_1426_3897">
<rect width="39.375" height="39.375" fill="white" transform="translate(0.3125 0.762451)"/>
</clipPath>
</defs>
</svg>
