<svg width="50" height="50" viewBox="0 0 50 50" fill="none" xmlns="http://www.w3.org/2000/svg">
<g clip-path="url(#clip0_1276_5976)">
<path d="M45.3608 0H4.6392C2.07704 0 0 2.07704 0 4.6392V45.3608C0 47.923 2.07704 50 4.6392 50H45.3608C47.923 50 50 47.923 50 45.3608V4.6392C50 2.07704 47.923 0 45.3608 0Z" fill="#0B63BD"/>
<path d="M18.0114 13.6364C18.0114 14.4792 17.7615 15.3031 17.2932 16.0039C16.825 16.7046 16.1594 17.2508 15.3808 17.5734C14.6021 17.8959 13.7453 17.9803 12.9187 17.8158C12.092 17.6514 11.3327 17.2456 10.7368 16.6496C10.1408 16.0536 9.73496 15.2943 9.57053 14.4677C9.4061 13.6411 9.49049 12.7843 9.81303 12.0056C10.1356 11.2269 10.6817 10.5614 11.3825 10.0932C12.0833 9.62492 12.9072 9.375 13.75 9.375C14.8802 9.375 15.9641 9.82396 16.7633 10.6231C17.5624 11.4223 18.0114 12.5062 18.0114 13.6364Z" fill="white"/>
<path d="M17.0455 20.7385V39.5652C17.0462 39.7041 17.0195 39.8417 16.9669 39.9702C16.9142 40.0988 16.8367 40.2156 16.7388 40.3141C16.6408 40.4126 16.5244 40.4907 16.3961 40.5441C16.2679 40.5974 16.1304 40.6248 15.9915 40.6248H11.5C11.3611 40.6252 11.2235 40.5981 11.0951 40.5451C10.9667 40.4922 10.8501 40.4143 10.7519 40.3161C10.6537 40.2179 10.5758 40.1013 10.5229 39.9729C10.4699 39.8445 10.4428 39.7069 10.4432 39.568V20.7385C10.4432 20.4582 10.5545 20.1894 10.7527 19.9912C10.9509 19.793 11.2197 19.6816 11.5 19.6816H15.9915C16.2713 19.6824 16.5393 19.7941 16.7369 19.9922C16.9345 20.1903 17.0455 20.4587 17.0455 20.7385Z" fill="white"/>
<path d="M40.5227 30.5396V39.6532C40.5231 39.7809 40.4982 39.9074 40.4495 40.0255C40.4009 40.1435 40.3293 40.2508 40.239 40.3411C40.1487 40.4314 40.0415 40.5029 39.9234 40.5516C39.8054 40.6003 39.6788 40.6252 39.5512 40.6248H34.7216C34.5939 40.6252 34.4674 40.6003 34.3494 40.5516C34.2313 40.5029 34.124 40.4314 34.0338 40.3411C33.9435 40.2508 33.8719 40.1435 33.8232 40.0255C33.7745 39.9074 33.7496 39.7809 33.75 39.6532V30.8208C33.75 29.5027 34.1364 25.0481 30.304 25.0481C27.3352 25.0481 26.7301 28.0964 26.6108 29.4657V39.6532C26.6108 39.9085 26.5104 40.1535 26.3313 40.3353C26.1521 40.5171 25.9086 40.6211 25.6534 40.6248H20.9887C20.8612 40.6248 20.735 40.5997 20.6173 40.5508C20.4996 40.5019 20.3926 40.4303 20.3026 40.3401C20.2126 40.2498 20.1413 40.1427 20.0928 40.0248C20.0443 39.907 20.0195 39.7807 20.0199 39.6532V20.6561C20.0195 20.5286 20.0443 20.4023 20.0928 20.2845C20.1413 20.1666 20.2126 20.0595 20.3026 19.9692C20.3926 19.879 20.4996 19.8074 20.6173 19.7585C20.735 19.7096 20.8612 19.6845 20.9887 19.6845H25.6534C25.9111 19.6845 26.1582 19.7868 26.3404 19.9691C26.5227 20.1513 26.625 20.3984 26.625 20.6561V22.2981C27.7273 20.6447 29.3608 19.3691 32.8466 19.3691C40.5682 19.3691 40.5227 26.5794 40.5227 30.5396Z" fill="white"/>
</g>
<defs>
<clipPath id="clip0_1276_5976">
<rect width="50" height="50" fill="white"/>
</clipPath>
</defs>
</svg>
