<svg width="36" height="37" viewBox="0 0 36 37" fill="none" xmlns="http://www.w3.org/2000/svg">
<g clip-path="url(#clip0_1276_5681)">
<path d="M36 18.8C36 28.73 27.93 36.8 18 36.8C8.07 36.8 0 28.73 0 18.8C0 8.87 8.07 0.800001 18 0.800001C18.285 0.800001 18.57 0.800001 18.855 0.815001C20.1 0.875001 21.06 1.925 21 3.17C20.94 4.415 19.92 5.345 18.645 5.315C18.435 5.315 18.21 5.3 18 5.3C10.56 5.3 4.5 11.36 4.5 18.8C4.5 26.24 10.56 32.3 18 32.3C25.44 32.3 31.5 26.24 31.5 18.8C31.5 18.59 31.5 18.365 31.485 18.155C31.425 16.91 32.385 15.86 33.63 15.8C34.905 15.755 35.925 16.7 35.985 17.945C35.985 18.23 36 18.515 36 18.8ZM16.365 13.025C17.565 12.68 18.255 11.45 17.925 10.25C17.595 9.05 16.335 8.36 15.15 8.69C10.65 9.965 7.515 14.12 7.515 18.8C7.515 24.59 12.225 29.3 18.015 29.3C22.695 29.3 26.85 26.165 28.125 21.665C28.47 20.465 27.765 19.22 26.565 18.89C25.365 18.545 24.12 19.25 23.79 20.45C23.07 23.015 20.685 24.815 18.015 24.815C14.7 24.815 12.015 22.13 12.015 18.815C12.015 16.145 13.815 13.76 16.38 13.04L16.365 13.025ZM16.41 17.21C15.525 18.095 15.525 19.52 16.41 20.39C16.845 20.825 17.43 21.05 18 21.05C18.57 21.05 19.155 20.825 19.59 20.39L27.18 12.8H30.75C31.35 12.8 31.92 12.56 32.34 12.14L35.34 9.14C35.985 8.495 36.18 7.535 35.835 6.695C35.49 5.855 34.665 5.3 33.75 5.3H31.5V3.05C31.5 2.135 30.945 1.325 30.105 0.965001C29.265 0.620001 28.29 0.815001 27.66 1.46L24.66 4.46C24.24 4.88 24 5.45 24 6.05V9.62L16.41 17.21Z" fill="black"/>
</g>
<defs>
<clipPath id="clip0_1276_5681">
<rect width="36" height="36" fill="white" transform="translate(0 0.799805)"/>
</clipPath>
</defs>
</svg>
