<svg width="28" height="28" viewBox="0 0 28 28" fill="none" xmlns="http://www.w3.org/2000/svg">
<g clip-path="url(#clip0_1417_1405)">
<path d="M27.5 13.6C27.5 21.0475 21.4475 27.1 14 27.1C6.5525 27.1 0.5 21.0475 0.5 13.6C0.5 6.1525 6.5525 0.100001 14 0.100001C14.2137 0.100001 14.4275 0.100001 14.6412 0.111251C15.575 0.156251 16.295 0.943751 16.25 1.8775C16.205 2.81125 15.44 3.50875 14.4838 3.48625C14.3263 3.48625 14.1575 3.475 14 3.475C8.42 3.475 3.875 8.02 3.875 13.6C3.875 19.18 8.42 23.725 14 23.725C19.58 23.725 24.125 19.18 24.125 13.6C24.125 13.4425 24.125 13.2738 24.1137 13.1163C24.0687 12.1825 24.7888 11.395 25.7225 11.35C26.6788 11.3163 27.4437 12.025 27.4887 12.9588C27.4887 13.1725 27.5 13.3863 27.5 13.6ZM12.7737 9.26875C13.6737 9.01 14.1912 8.0875 13.9437 7.1875C13.6962 6.2875 12.7513 5.77 11.8625 6.0175C8.4875 6.97375 6.13625 10.09 6.13625 13.6C6.13625 17.9425 9.66875 21.475 14.0113 21.475C17.5213 21.475 20.6375 19.1238 21.5938 15.7488C21.8525 14.8488 21.3237 13.915 20.4237 13.6675C19.5237 13.4088 18.59 13.9375 18.3425 14.8375C17.8025 16.7613 16.0138 18.1113 14.0113 18.1113C11.525 18.1113 9.51125 16.0975 9.51125 13.6113C9.51125 11.6088 10.8613 9.82 12.785 9.28L12.7737 9.26875ZM12.8075 12.4075C12.1437 13.0713 12.1437 14.14 12.8075 14.7925C13.1337 15.1188 13.5725 15.2875 14 15.2875C14.4275 15.2875 14.8663 15.1188 15.1925 14.7925L20.885 9.1H23.5625C24.0125 9.1 24.44 8.92 24.755 8.605L27.005 6.355C27.4887 5.87125 27.635 5.15125 27.3762 4.52125C27.1175 3.89125 26.4988 3.475 25.8125 3.475H24.125V1.7875C24.125 1.10125 23.7087 0.493751 23.0787 0.223751C22.4487 -0.0349993 21.7175 0.111251 21.245 0.595001L18.995 2.845C18.68 3.16 18.5 3.5875 18.5 4.0375V6.715L12.8075 12.4075Z" fill="black"/>
</g>
<defs>
<clipPath id="clip0_1417_1405">
<rect width="27" height="27" fill="white" transform="translate(0.5 0.0998535)"/>
</clipPath>
</defs>
</svg>
