<svg width="29" height="29" viewBox="0 0 29 29" fill="none" xmlns="http://www.w3.org/2000/svg">
<g clip-path="url(#clip0_1426_3602)">
<path d="M28.7753 14.58C28.7753 22.3999 22.4202 28.755 14.6003 28.755C6.78042 28.755 0.425293 22.3999 0.425293 14.58C0.425293 6.76012 6.78042 0.404998 14.6003 0.404998C14.8247 0.404998 15.0492 0.404998 15.2736 0.41681C16.254 0.46406 17.01 1.29094 16.9628 2.27137C16.9155 3.25181 16.1123 3.98419 15.1082 3.96056C14.9429 3.96056 14.7657 3.94875 14.6003 3.94875C8.74129 3.94875 3.96904 8.721 3.96904 14.58C3.96904 20.439 8.74129 25.2113 14.6003 25.2113C20.4593 25.2113 25.2315 20.439 25.2315 14.58C25.2315 14.4146 25.2315 14.2374 25.2197 14.0721C25.1725 13.0916 25.9285 12.2647 26.9089 12.2175C27.913 12.1821 28.7162 12.9262 28.7635 13.9067C28.7635 14.1311 28.7753 14.3556 28.7753 14.58ZM13.3127 10.0322C14.2577 9.7605 14.8011 8.79187 14.5412 7.84687C14.2814 6.90187 13.2891 6.3585 12.3559 6.61837C8.81217 7.62244 6.34336 10.8945 6.34336 14.58C6.34336 19.1396 10.0525 22.8487 14.6121 22.8487C18.2976 22.8487 21.5697 20.3799 22.5737 16.8362C22.8454 15.8912 22.2902 14.9107 21.3452 14.6509C20.4002 14.3792 19.4198 14.9344 19.1599 15.8794C18.5929 17.8993 16.7147 19.3168 14.6121 19.3168C12.0015 19.3168 9.88711 17.2024 9.88711 14.5918C9.88711 12.4892 11.3046 10.611 13.3245 10.044L13.3127 10.0322ZM13.3482 13.3279C12.6512 14.0248 12.6512 15.147 13.3482 15.8321C13.6907 16.1747 14.1514 16.3519 14.6003 16.3519C15.0492 16.3519 15.5099 16.1747 15.8524 15.8321L21.8295 9.855H24.6409C25.1134 9.855 25.5623 9.666 25.893 9.33525L28.2555 6.97275C28.7635 6.46481 28.917 5.70881 28.6454 5.04731C28.3737 4.38581 27.724 3.94875 27.0034 3.94875H25.2315V2.17687C25.2315 1.45631 24.7945 0.818435 24.133 0.534935C23.4715 0.263248 22.7037 0.41681 22.2075 0.924748L19.845 3.28725C19.5143 3.618 19.3253 4.06687 19.3253 4.53937V7.35075L13.3482 13.3279Z" fill="black"/>
</g>
<defs>
<clipPath id="clip0_1426_3602">
<rect width="28.35" height="28.35" fill="white" transform="translate(0.425781 0.404785)"/>
</clipPath>
</defs>
</svg>
