<?xml version="1.0" encoding="utf-8"?>
<!-- Generator: Adobe Illustrator 27.0.0, SVG Export Plug-In . SVG Version: 6.00 Build 0)  -->
<svg version="1.1" xmlns="http://www.w3.org/2000/svg" xmlns:xlink="http://www.w3.org/1999/xlink" x="0px" y="0px"
	 viewBox="0 0 600 600" style="enable-background:new 0 0 600 600;" xml:space="preserve">
<style type="text/css">
	.st0{fill:#DCDCDC;}
	.st1{fill:url(#SVGID_1_);}
	.st2{fill:url(#SVGID_00000181055887344004717040000006851461780444340136_);}
	.st3{fill:#282828;}
	.st4{fill:url(#SVGID_00000019649782891092402660000004678970831575384238_);}
	.st5{opacity:0.5;fill:#FFFFFF;}
	.st6{opacity:0.498;fill:#FDFDFD;}
	.st7{opacity:0.4961;fill:#FBFBFB;}
	.st8{opacity:0.4941;fill:#F9F9F9;}
	.st9{opacity:0.4922;fill:#F7F7F7;}
	.st10{opacity:0.4902;fill:#F5F5F5;}
	.st11{opacity:0.4882;fill:#F3F3F3;}
	.st12{opacity:0.4863;fill:#F1F1F1;}
	.st13{opacity:0.4843;fill:#EFEFEF;}
	.st14{opacity:0.4824;fill:#ECECEC;}
	.st15{opacity:0.4804;fill:#EAEAEA;}
	.st16{opacity:0.4784;fill:#E8E8E8;}
	.st17{opacity:0.4765;fill:#E6E6E6;}
	.st18{opacity:0.4745;fill:#E4E4E4;}
	.st19{opacity:0.4725;fill:#E2E2E2;}
	.st20{opacity:0.4706;fill:#E0E0E0;}
	.st21{opacity:0.4686;fill:#DEDEDE;}
	.st22{opacity:0.4667;fill:#DCDCDC;}
	.st23{opacity:0.4647;fill:#DADADA;}
	.st24{opacity:0.4627;fill:#D8D8D8;}
	.st25{opacity:0.4608;fill:#D6D6D6;}
	.st26{opacity:0.4588;fill:#D4D4D4;}
	.st27{opacity:0.4569;fill:#D2D2D2;}
	.st28{opacity:0.4549;fill:#D0D0D0;}
	.st29{opacity:0.4529;fill:#CECECE;}
	.st30{opacity:0.451;fill:#CCCCCC;}
	.st31{opacity:0.449;fill:#C9C9C9;}
	.st32{opacity:0.4471;fill:#C7C7C7;}
	.st33{opacity:0.4451;fill:#C5C5C5;}
	.st34{opacity:0.4431;fill:#C3C3C3;}
	.st35{opacity:0.4412;fill:#C1C1C1;}
	.st36{opacity:0.4392;fill:#BFBFBF;}
	.st37{opacity:0.4373;fill:#BDBDBD;}
	.st38{opacity:0.4353;fill:#BBBBBB;}
	.st39{opacity:0.4333;fill:#B9B9B9;}
	.st40{opacity:0.4314;fill:#B7B7B7;}
	.st41{opacity:0.4294;fill:#B5B5B5;}
	.st42{opacity:0.4275;fill:#B3B3B3;}
	.st43{opacity:0.4255;fill:#B1B1B1;}
	.st44{opacity:0.4235;fill:#AFAFAF;}
	.st45{opacity:0.4216;fill:#ADADAD;}
	.st46{opacity:0.4196;fill:#ABABAB;}
	.st47{opacity:0.4176;fill:#A9A9A9;}
	.st48{opacity:0.4157;fill:#A6A6A6;}
	.st49{opacity:0.4137;fill:#A4A4A4;}
	.st50{opacity:0.4118;fill:#A2A2A2;}
	.st51{opacity:0.4098;fill:#A0A0A0;}
	.st52{opacity:0.4078;fill:#9E9E9E;}
	.st53{opacity:0.4059;fill:#9C9C9C;}
	.st54{opacity:0.4039;fill:#9A9A9A;}
	.st55{opacity:0.402;fill:#989898;}
	.st56{opacity:0.4;fill:#969696;}
	.st57{fill:url(#SVGID_00000067214065426142072880000017708682214904219568_);}
	.st58{fill:#96969C;}
	.st59{fill:url(#SVGID_00000021803163552758235120000012498081410622680220_);}
	.st60{fill:#FAFAFA;}
</style>
<g id="background">
	<rect x="0.13" class="st0" width="599.87" height="600"/>
</g>
<g id="Layer_2">
	<g>
		
			<radialGradient id="SVGID_1_" cx="316.5303" cy="-733.6874" r="100.7228" gradientTransform="matrix(1.0072 0 0 0.0998 2.5559 548.7503)" gradientUnits="userSpaceOnUse">
			<stop  offset="0.2509" style="stop-color:#3C3C3C"/>
			<stop  offset="0.267" style="stop-color:#444444"/>
			<stop  offset="0.3821" style="stop-color:#7D7D7D"/>
			<stop  offset="0.494" style="stop-color:#ABABAB"/>
			<stop  offset="0.5998" style="stop-color:#D0D0D0"/>
			<stop  offset="0.6983" style="stop-color:#EAEAEA"/>
			<stop  offset="0.7866" style="stop-color:#F9F9F9"/>
			<stop  offset="0.856" style="stop-color:#FFFFFF"/>
		</radialGradient>
		<path class="st1" d="M425.62,476.09c0,5.7-46.67,9.21-104.25,9.21c-57.58,0-104.25-3.51-104.25-9.21
			c0-5.7,46.67-10.32,104.25-10.32C378.94,465.76,425.62,470.38,425.62,476.09z"/>
		
			<radialGradient id="SVGID_00000093882583588594912000000003051535348705134515_" cx="282.7733" cy="-733.6874" r="100.7228" gradientTransform="matrix(1.0072 0 0 0.0998 2.5559 548.7503)" gradientUnits="userSpaceOnUse">
			<stop  offset="0.2509" style="stop-color:#3C3C3C"/>
			<stop  offset="0.3418" style="stop-color:#696969"/>
			<stop  offset="0.4639" style="stop-color:#9E9E9E"/>
			<stop  offset="0.5781" style="stop-color:#C8C8C8"/>
			<stop  offset="0.6808" style="stop-color:#E6E6E6"/>
			<stop  offset="0.7684" style="stop-color:#F8F8F8"/>
			<stop  offset="0.8305" style="stop-color:#FFFFFF"/>
		</radialGradient>
		<path style="fill:url(#SVGID_00000093882583588594912000000003051535348705134515_);" d="M391.62,476.09
			c0,5.7-46.67,9.21-104.25,9.21c-57.58,0-104.25-3.51-104.25-9.21c0-5.7,46.67-10.32,104.25-10.32
			C344.94,465.76,391.62,470.38,391.62,476.09z"/>
		<g>
			<g>
				<path class="st3" d="M365.54,477.44h-120.5c0,0-7.14-0.01-8.32-2.8c-0.11,0.33-0.18,0.65-0.18,0.95c0,3.61,8.5,3.61,8.5,3.61
					h120.5c0,0,8.5,0,8.5-3.61c0-0.3-0.07-0.62-0.18-0.95C372.68,477.43,365.54,477.44,365.54,477.44z"/>
				
					<linearGradient id="SVGID_00000041296306399248109320000000979609761544789654_" gradientUnits="userSpaceOnUse" x1="305.291" y1="478.5273" x2="305.291" y2="420.2773">
					<stop  offset="0.0776" style="stop-color:#F0F0F4"/>
					<stop  offset="0.1483" style="stop-color:#D3D3D8"/>
					<stop  offset="0.2704" style="stop-color:#A7A7AD"/>
					<stop  offset="0.3323" style="stop-color:#96969C"/>
					<stop  offset="0.3825" style="stop-color:#9B9BA1"/>
					<stop  offset="0.4423" style="stop-color:#AAAAAE"/>
					<stop  offset="0.5068" style="stop-color:#C1C1C4"/>
					<stop  offset="0.5621" style="stop-color:#DCDCDC"/>
					<stop  offset="0.6056" style="stop-color:#E6E6E6"/>
					<stop  offset="0.6848" style="stop-color:#D5D5D7"/>
					<stop  offset="0.8409" style="stop-color:#AAAAB0"/>
					<stop  offset="1" style="stop-color:#787882"/>
				</linearGradient>
				<path style="fill:url(#SVGID_00000041296306399248109320000000979609761544789654_);" d="M362.79,463.7
					c-3.89-3.99-5.83-6.42-7-10.17c-2.64-8.5-3.25-33.25-3.25-33.25h-94.5c0,0-0.61,24.75-3.25,33.25c-1.17,3.75-3.11,6.18-7,10.17
					c-4.13,4.24-11.25,8.92-11.25,11.75c0,3.08,8.5,3.08,8.5,3.08h120.5c0,0,8.5,0,8.5-3.08
					C374.04,472.61,366.92,467.94,362.79,463.7z"/>
				<g>
					<path class="st5" d="M254.94,458.53c1.8,6.47,12.82,21,12.82,21h77c0,0,9.46-14.53,10.89-21H254.94z"/>
					<path class="st6" d="M255.32,458.63c1.79,6.42,12.72,20.86,12.72,20.86h76.42c0,0,9.39-14.44,10.81-20.86H255.32z"/>
					<path class="st7" d="M255.7,458.73c1.77,6.37,12.62,20.71,12.62,20.71h75.83c0,0,9.32-14.34,10.73-20.71H255.7z"/>
					<path class="st8" d="M256.08,458.84c1.76,6.32,12.52,20.57,12.52,20.57h75.25c0,0,9.25-14.25,10.64-20.57H256.08z"/>
					<path class="st9" d="M256.47,458.94c1.74,6.27,12.43,20.43,12.43,20.43h74.66c0,0,9.17-14.16,10.56-20.43H256.47z"/>
					<path class="st10" d="M256.85,459.04c1.73,6.22,12.33,20.29,12.33,20.29h74.08c0,0,9.1-14.07,10.48-20.29H256.85z"/>
					<path class="st11" d="M257.23,459.15c1.72,6.17,12.23,20.15,12.23,20.15h73.49c0,0,9.03-13.98,10.4-20.15H257.23z"/>
					<path class="st12" d="M257.61,459.25c1.7,6.12,12.13,20.01,12.13,20.01h72.91c0,0,8.96-13.89,10.31-20.01H257.61z"/>
					<path class="st13" d="M258,459.35c1.69,6.06,12.04,19.86,12.04,19.86h72.32c0,0,8.89-13.8,10.23-19.86H258z"/>
					<path class="st14" d="M258.38,459.46c1.68,6.01,11.94,19.72,11.94,19.72h71.74c0,0,8.82-13.71,10.15-19.72H258.38z"/>
					<path class="st15" d="M258.76,459.56c1.66,5.96,11.84,19.58,11.84,19.58h71.15c0,0,8.74-13.61,10.07-19.58H258.76z"/>
					<path class="st16" d="M259.14,459.66c1.65,5.91,11.75,19.44,11.75,19.44h70.57c0,0,8.67-13.52,9.98-19.44H259.14z"/>
					<path class="st17" d="M259.52,459.76c1.63,5.86,11.65,19.29,11.65,19.29h69.98c0,0,8.6-13.43,9.9-19.29H259.52z"/>
					<path class="st18" d="M259.91,459.87c1.62,5.81,11.55,19.15,11.55,19.15h69.4c0,0,8.53-13.34,9.82-19.15H259.91z"/>
					<path class="st19" d="M260.29,459.97c1.61,5.76,11.45,19.01,11.45,19.01h68.81c0,0,8.46-13.25,9.73-19.01H260.29z"/>
					<path class="st20" d="M260.67,460.07c1.59,5.71,11.36,18.87,11.36,18.87h68.23c0,0,8.38-13.16,9.65-18.87H260.67z"/>
					<path class="st21" d="M261.05,460.18c1.58,5.66,11.26,18.72,11.26,18.72h67.65c0,0,8.31-13.07,9.57-18.72H261.05z"/>
					<path class="st22" d="M261.44,460.28c1.57,5.61,11.16,18.58,11.16,18.58h67.06c0,0,8.24-12.98,9.49-18.58H261.44z"/>
					<path class="st23" d="M261.82,460.38c1.55,5.55,11.06,18.44,11.06,18.44h66.48c0,0,8.17-12.89,9.4-18.44H261.82z"/>
					<path class="st24" d="M262.2,460.48c1.54,5.5,10.97,18.3,10.97,18.3h65.89c0,0,8.1-12.79,9.32-18.3H262.2z"/>
					<path class="st25" d="M262.58,460.59c1.53,5.45,10.87,18.16,10.87,18.16h65.31c0,0,8.02-12.71,9.24-18.16H262.58z"/>
					<path class="st26" d="M262.97,460.69c1.51,5.4,10.77,18.02,10.77,18.02h64.72c0,0,7.95-12.61,9.16-18.02H262.97z"/>
					<path class="st27" d="M263.35,460.79c1.5,5.35,10.67,17.87,10.67,17.87h64.14c0,0,7.88-12.52,9.07-17.87H263.35z"/>
					<path class="st28" d="M263.73,460.9c1.48,5.3,10.58,17.73,10.58,17.73h63.55c0,0,7.81-12.43,8.99-17.73H263.73z"/>
					<path class="st29" d="M264.11,461c1.47,5.25,10.48,17.59,10.48,17.59h62.97c0,0,7.74-12.34,8.91-17.59H264.11z"/>
					<path class="st30" d="M264.5,461.1c1.46,5.2,10.38,17.45,10.38,17.45h62.38c0,0,7.67-12.25,8.83-17.45H264.5z"/>
					<path class="st31" d="M264.88,461.21c1.44,5.15,10.29,17.3,10.29,17.3h61.8c0,0,7.59-12.16,8.74-17.3H264.88z"/>
					<path class="st32" d="M265.26,461.31c1.43,5.1,10.19,17.16,10.19,17.16h61.21c0,0,7.52-12.07,8.66-17.16H265.26z"/>
					<path class="st33" d="M265.64,461.41c1.42,5.04,10.09,17.02,10.09,17.02h60.63c0,0,7.45-11.97,8.58-17.02H265.64z"/>
					<path class="st34" d="M266.02,461.51c1.4,4.99,9.99,16.88,9.99,16.88h60.04c0,0,7.38-11.88,8.49-16.88H266.02z"/>
					<path class="st35" d="M266.41,461.62c1.39,4.94,9.9,16.74,9.9,16.74h59.46c0,0,7.31-11.79,8.41-16.74H266.41z"/>
					<path class="st36" d="M266.79,461.72c1.38,4.89,9.8,16.59,9.8,16.59h58.87c0,0,7.23-11.7,8.33-16.59H266.79z"/>
					<path class="st37" d="M267.17,461.82c1.36,4.84,9.7,16.45,9.7,16.45h58.29c0,0,7.16-11.61,8.25-16.45H267.17z"/>
					<path class="st38" d="M267.55,461.93c1.35,4.79,9.6,16.31,9.6,16.31h57.71c0,0,7.09-11.52,8.16-16.31H267.55z"/>
					<path class="st39" d="M267.94,462.03c1.33,4.74,9.51,16.17,9.51,16.17h57.12c0,0,7.02-11.43,8.08-16.17H267.94z"/>
					<path class="st40" d="M268.32,462.13c1.32,4.69,9.41,16.03,9.41,16.03h56.54c0,0,6.95-11.34,8-16.03H268.32z"/>
					<path class="st41" d="M268.7,462.23c1.31,4.63,9.31,15.88,9.31,15.88h55.95c0,0,6.88-11.25,7.92-15.88H268.7z"/>
					<path class="st42" d="M269.08,462.34c1.29,4.59,9.22,15.74,9.22,15.74h55.37c0,0,6.8-11.15,7.83-15.74H269.08z"/>
					<path class="st43" d="M269.47,462.44c1.28,4.53,9.12,15.6,9.12,15.6h54.78c0,0,6.73-11.06,7.75-15.6H269.47z"/>
					<path class="st44" d="M269.85,462.54c1.27,4.48,9.02,15.45,9.02,15.45h54.2c0,0,6.66-10.97,7.67-15.45H269.85z"/>
					<path class="st45" d="M270.23,462.64c1.25,4.43,8.92,15.31,8.92,15.31h53.61c0,0,6.59-10.88,7.58-15.31H270.23z"/>
					<path class="st46" d="M270.61,462.75c1.24,4.38,8.83,15.17,8.83,15.17h53.03c0,0,6.52-10.79,7.5-15.17H270.61z"/>
					<path class="st47" d="M271,462.85c1.23,4.33,8.73,15.03,8.73,15.03h52.44c0,0,6.44-10.7,7.42-15.03H271z"/>
					<path class="st48" d="M271.38,462.96c1.21,4.28,8.63,14.89,8.63,14.89h51.86c0,0,6.37-10.61,7.33-14.89H271.38z"/>
					<path class="st49" d="M271.76,463.06c1.2,4.23,8.53,14.75,8.53,14.75h51.27c0,0,6.3-10.52,7.25-14.75H271.76z"/>
					<path class="st50" d="M272.14,463.16c1.18,4.18,8.44,14.6,8.44,14.6h50.69c0,0,6.23-10.43,7.17-14.6H272.14z"/>
					<path class="st51" d="M272.52,463.26c1.17,4.12,8.34,14.46,8.34,14.46h50.1c0,0,6.16-10.34,7.09-14.46H272.52z"/>
					<path class="st52" d="M272.91,463.37c1.16,4.08,8.24,14.32,8.24,14.32h49.52c0,0,6.09-10.24,7-14.32H272.91z"/>
					<path class="st53" d="M273.29,463.47c1.14,4.02,8.14,14.18,8.14,14.18h48.93c0,0,6.01-10.15,6.92-14.18H273.29z"/>
					<path class="st54" d="M273.67,463.57c1.13,3.97,8.05,14.03,8.05,14.03h48.35c0,0,5.94-10.06,6.84-14.03H273.67z"/>
					<path class="st55" d="M274.05,463.68c1.12,3.92,7.95,13.89,7.95,13.89h47.77c0,0,5.87-9.97,6.76-13.89H274.05z"/>
					<path class="st56" d="M274.44,463.78c1.1,3.87,7.85,13.75,7.85,13.75h47.18c0,0,5.8-9.88,6.67-13.75H274.44z"/>
				</g>
				
					<linearGradient id="SVGID_00000135685763061889706740000016337196868041169037_" gradientUnits="userSpaceOnUse" x1="236.541" y1="476.583" x2="374.041" y2="476.583">
					<stop  offset="0" style="stop-color:#78787E"/>
					<stop  offset="0.1584" style="stop-color:#F0F0F4"/>
					<stop  offset="0.4907" style="stop-color:#FFFFFF"/>
					<stop  offset="0.8075" style="stop-color:#F0F0F0"/>
					<stop  offset="0.8412" style="stop-color:#ECECEC"/>
					<stop  offset="0.8767" style="stop-color:#DFDFE0"/>
					<stop  offset="0.9131" style="stop-color:#CACACC"/>
					<stop  offset="0.95" style="stop-color:#ADADB0"/>
					<stop  offset="0.987" style="stop-color:#87878C"/>
					<stop  offset="1" style="stop-color:#78787E"/>
				</linearGradient>
				<path style="fill:url(#SVGID_00000135685763061889706740000016337196868041169037_);" d="M365.54,477.03h-120.5
					c0,0-7.14-0.01-8.32-2.39c-0.11,0.28-0.18,0.55-0.18,0.81c0,3.08,8.5,3.08,8.5,3.08h120.5c0,0,8.5,0,8.5-3.08
					c0-0.25-0.07-0.53-0.18-0.81C372.68,477.02,365.54,477.03,365.54,477.03z"/>
			</g>
			<path class="st58" d="M374.04,475.45c0-0.14-0.03-0.29-0.06-0.43c-0.03-0.12-0.07-0.24-0.12-0.37c0,0,0,0,0,0l0,0
				c-1.08-2.86-7.31-7.08-11.07-10.94c-3.89-3.99-5.83-6.42-7-10.17c-2.64-8.5-3.25-33.25-3.25-33.25h-94.5
				c0,0-0.61,24.75-3.25,33.25c-1.17,3.75-3.11,6.18-7,10.17c-3.76,3.86-9.98,8.08-11.07,10.94l0,0c0,0,0,0,0,0
				c-0.05,0.12-0.09,0.25-0.12,0.37c-0.04,0.15-0.06,0.29-0.06,0.43c0,0.02,0.01,0.04,0.01,0.05c0,0.03-0.01,0.06-0.01,0.08
				c0,3.61,8.5,3.61,8.5,3.61h120.5c0,0,8.5,0,8.5-3.61c0-0.03-0.01-0.06-0.01-0.08C374.03,475.48,374.04,475.46,374.04,475.45z"/>
			<g>
				<g>
					<path d="M542.84,102.28c0-5.5-4.5-10-10-10H77.74c-5.5,0-10,4.5-10,10v274h475.09V102.28z"/>
					<path class="st0" d="M67.74,376.28v34c0,5.5,4.5,10,10,10h455.09c5.5,0,10-4.5,10-10v-34H67.74z"/>
					
						<linearGradient id="SVGID_00000021830164188769298130000006169587028850042789_" gradientUnits="userSpaceOnUse" x1="67.7441" y1="399.2773" x2="542.8369" y2="399.2773">
						<stop  offset="0" style="stop-color:#BEBEC4"/>
						<stop  offset="0.4845" style="stop-color:#E6E6EC"/>
						<stop  offset="1" style="stop-color:#BEBEC4"/>
					</linearGradient>
					<path style="fill:url(#SVGID_00000021830164188769298130000006169587028850042789_);" d="M67.74,377.28v34c0,5.5,4.5,10,10,10
						h455.09c5.5,0,10-4.5,10-10v-34H67.74z"/>
				</g>
				<rect x="87.38" y="111.28" class="st60" width="436.25" height="246"/>
			</g>
		</g>
	</g>
</g>
</svg>
