<svg width="5" height="4" viewBox="0 0 5 4" fill="none" xmlns="http://www.w3.org/2000/svg">
<path d="M2.39338 0.819493C2.57568 0.370646 3.21122 0.370645 3.39352 0.819492L3.55204 1.2098C3.6347 1.41331 3.83244 1.54643 4.0521 1.54643H4.31085C4.84816 1.54643 5.0397 2.25714 4.57516 2.52714V2.52714C4.34865 2.6588 4.25357 2.93707 4.35215 3.1798L4.38119 3.25129C4.57484 3.72808 4.05481 4.17963 3.6099 3.92104L3.16468 3.66226C2.99699 3.56479 2.78991 3.56479 2.62222 3.66226L2.177 3.92104C1.73209 4.17963 1.21206 3.72808 1.40571 3.25129L1.43474 3.1798C1.53333 2.93707 1.43825 2.6588 1.21174 2.52714V2.52714C0.747196 2.25714 0.938737 1.54643 1.47605 1.54643H1.73479C1.95445 1.54643 2.1522 1.41331 2.23486 1.2098L2.39338 0.819493Z" fill="#C8982A"/>
</svg>
