<svg width="8" height="8" viewBox="0 0 8 8" fill="none" xmlns="http://www.w3.org/2000/svg">
<path d="M3.14179 1.53069C3.47955 0.699084 4.65704 0.699085 4.99479 1.53069L5.28849 2.25383C5.44164 2.63089 5.80802 2.87753 6.21499 2.87753H6.69438C7.68989 2.87753 8.04477 4.19429 7.18408 4.69455V4.69455C6.76443 4.93847 6.58826 5.45405 6.77091 5.90377L6.82471 6.03622C7.18349 6.91958 6.22001 7.7562 5.3957 7.27708L4.57081 6.79763C4.26013 6.61706 3.87645 6.61706 3.56578 6.79763L2.74089 7.27709C1.91657 7.7562 0.953097 6.91958 1.31187 6.03622L1.36567 5.90377C1.54832 5.45405 1.37216 4.93847 0.952499 4.69455V4.69455C0.0918128 4.19429 0.446689 2.87753 1.4422 2.87753H1.92159C2.32857 2.87753 2.69495 2.63089 2.84809 2.25383L3.14179 1.53069Z" fill="#C8982A"/>
</svg>
