<svg width="8" height="8" viewBox="0 0 8 8" fill="none" xmlns="http://www.w3.org/2000/svg">
<path d="M3.14178 1.53069C3.47953 0.699084 4.65702 0.699085 4.99478 1.53069L5.28848 2.25383C5.44162 2.63089 5.808 2.87753 6.21498 2.87753H6.69437C7.68988 2.87753 8.04476 4.19429 7.18407 4.69455V4.69455C6.76441 4.93847 6.58825 5.45405 6.7709 5.90377L6.8247 6.03622C7.18347 6.91958 6.21999 7.7562 5.39568 7.27708L4.57079 6.79763C4.26012 6.61706 3.87644 6.61706 3.56576 6.79763L2.74087 7.27709C1.91656 7.7562 0.953082 6.91958 1.31186 6.03622L1.36565 5.90377C1.54831 5.45405 1.37214 4.93847 0.952484 4.69455V4.69455C0.0917975 4.19429 0.446674 2.87753 1.44218 2.87753H1.92157C2.32855 2.87753 2.69493 2.63089 2.84807 2.25383L3.14178 1.53069Z" fill="#C8982A"/>
</svg>
