<svg width="5" height="4" viewBox="0 0 5 4" fill="none" xmlns="http://www.w3.org/2000/svg">
<path d="M2.18534 0.494217C2.36898 0.0420614 3.0092 0.0420612 3.19284 0.494217L3.35253 0.8874C3.4358 1.09241 3.63501 1.22652 3.85628 1.22652L4.11694 1.22652C4.65821 1.22652 4.85116 1.94246 4.38319 2.21446V2.21446C4.15502 2.34708 4.05924 2.62741 4.15855 2.87193L4.1878 2.94394C4.38287 3.42424 3.85901 3.87912 3.41082 3.61862L2.96232 3.35793C2.7934 3.25975 2.58478 3.25975 2.41586 3.35793L1.96736 3.61862C1.51917 3.87912 0.995311 3.42424 1.19038 2.94394L1.21963 2.87193C1.31894 2.62741 1.22316 2.34708 0.994986 2.21446V2.21446C0.527018 1.94246 0.71997 1.22652 1.26124 1.22652L1.5219 1.22652C1.74318 1.22652 1.94238 1.09241 2.02565 0.887399L2.18534 0.494217Z" fill="#C8982A"/>
</svg>
