<svg width="15" height="15" viewBox="0 0 15 15" fill="none" xmlns="http://www.w3.org/2000/svg">
<path d="M6.80359 1.16543C7.0786 0.535592 7.97198 0.535591 8.24699 1.16543L9.70287 4.49969C9.81707 4.76124 10.0638 4.94053 10.3479 4.96832L13.9688 5.32259C14.6528 5.38952 14.9289 6.23917 14.4149 6.69535L11.6937 9.11031C11.4802 9.29975 11.386 9.58985 11.4473 9.86858L12.2293 13.4218C12.377 14.093 11.6543 14.6181 11.0616 14.2702L7.92394 12.4285C7.67781 12.284 7.37278 12.284 7.12665 12.4285L3.989 14.2702C3.3963 14.6181 2.67354 14.093 2.82126 13.4218L3.60326 9.86858C3.66461 9.58985 3.57035 9.29975 3.35689 9.11031L0.635705 6.69535C0.12168 6.23917 0.397749 5.38952 1.08174 5.32259L4.7027 4.96832C4.98674 4.94053 5.23352 4.76124 5.34772 4.49969L6.80359 1.16543Z" fill="#FFB245"/>
</svg>
