<svg width="9" height="8" viewBox="0 0 9 8" fill="none" xmlns="http://www.w3.org/2000/svg">
<path d="M3.50514 0.953749C3.86659 0.0638179 5.12666 0.0638181 5.48811 0.95375L5.80241 1.72761C5.9663 2.13112 6.35837 2.39506 6.79389 2.39506H7.30691C8.37225 2.39506 8.75201 3.80417 7.83096 4.33952V4.33952C7.38186 4.60055 7.19334 5.15229 7.38881 5.63355L7.44638 5.77529C7.83032 6.72061 6.79926 7.61591 5.91713 7.10319L5.03439 6.59011C4.70192 6.39687 4.29133 6.39687 3.95886 6.59011L3.07612 7.10319C2.19399 7.61591 1.16293 6.72061 1.54688 5.77529L1.60444 5.63355C1.79991 5.15229 1.61139 4.60055 1.1623 4.33952V4.33952C0.241242 3.80417 0.621007 2.39506 1.68634 2.39506H2.19936C2.63488 2.39506 3.02696 2.13112 3.19084 1.72761L3.50514 0.953749Z" fill="#C8982A"/>
</svg>
