<svg width="14" height="13" viewBox="0 0 14 13" fill="none" xmlns="http://www.w3.org/2000/svg">
<path d="M6.70675 0.634545C6.96139 0.0513645 7.78859 0.0513645 8.04323 0.634545L9.39126 3.72182C9.49701 3.964 9.7255 4.13001 9.9885 4.15574L13.3412 4.48377C13.9746 4.54574 14.2302 5.33246 13.7542 5.75485L11.2346 7.99092C11.037 8.16633 10.9497 8.43494 11.0065 8.69302L11.7306 11.983C11.8674 12.6045 11.1981 13.0907 10.6493 12.7686L7.7441 11.0633C7.51621 10.9295 7.23377 10.9295 7.00587 11.0633L4.10064 12.7686C3.55185 13.0907 2.88262 12.6045 3.0194 11.983L3.74348 8.69302C3.80028 8.43494 3.713 8.16633 3.51535 7.99092L0.995741 5.75485C0.519791 5.33246 0.775412 4.54574 1.40874 4.48377L4.76148 4.15574C5.02448 4.13001 5.25297 3.964 5.35872 3.72182L6.70675 0.634545Z" fill="#FFB245"/>
</svg>
