<svg width="5" height="5" viewBox="0 0 5 5" fill="none" xmlns="http://www.w3.org/2000/svg">
<path d="M2.30842 1.26334C2.49072 0.814493 3.12626 0.814493 3.30855 1.26334L3.46708 1.65365C3.54973 1.85716 3.74748 1.99028 3.96714 1.99028H4.22589C4.7632 1.99028 4.95474 2.70098 4.4902 2.97099V2.97099C4.26369 3.10264 4.16861 3.38092 4.26719 3.62365L4.29623 3.69514C4.48987 4.17192 3.96985 4.62348 3.52494 4.36488L3.07972 4.10611C2.91203 4.00864 2.70495 4.00864 2.53726 4.1061L2.09204 4.36488C1.64713 4.62348 1.1271 4.17192 1.32075 3.69514L1.34978 3.62365C1.44837 3.38092 1.35329 3.10264 1.12678 2.97099V2.97099C0.662235 2.70098 0.853776 1.99028 1.39109 1.99028H1.64983C1.86949 1.99028 2.06724 1.85716 2.1499 1.65365L2.30842 1.26334Z" fill="#C8982A"/>
</svg>
