<svg width="5" height="5" viewBox="0 0 5 5" fill="none" xmlns="http://www.w3.org/2000/svg">
<path d="M2.39338 1.03092C2.57568 0.582071 3.21122 0.582071 3.39352 1.03092L3.55204 1.42122C3.6347 1.62474 3.83244 1.75786 4.0521 1.75786H4.31085C4.84816 1.75786 5.0397 2.46856 4.57516 2.73857V2.73857C4.34865 2.87022 4.25357 3.1485 4.35215 3.39123L4.38119 3.46272C4.57484 3.9395 4.05481 4.39106 3.6099 4.13246L3.16468 3.87368C2.99699 3.77622 2.78991 3.77622 2.62222 3.87368L2.177 4.13246C1.73209 4.39106 1.21206 3.9395 1.40571 3.46272L1.43474 3.39123C1.53333 3.1485 1.43825 2.87022 1.21174 2.73857V2.73857C0.747196 2.46856 0.938737 1.75786 1.47605 1.75786H1.73479C1.95445 1.75786 2.1522 1.62474 2.23486 1.42122L2.39338 1.03092Z" fill="#C8982A"/>
</svg>
