<svg width="5" height="4" viewBox="0 0 5 4" fill="none" xmlns="http://www.w3.org/2000/svg">
<path d="M1.63749 0.494217C1.82113 0.0420614 2.46135 0.0420612 2.64499 0.494217L2.80468 0.8874C2.88795 1.09241 3.08715 1.22652 3.30843 1.22652L3.56909 1.22652C4.11036 1.22652 4.30331 1.94246 3.83534 2.21446V2.21446C3.60717 2.34708 3.51138 2.62741 3.6107 2.87193L3.63994 2.94394C3.83502 3.42424 3.31116 3.87912 2.86297 3.61862L2.41446 3.35793C2.24554 3.25975 2.03693 3.25975 1.86801 3.35793L1.41951 3.61862C0.971318 3.87912 0.44746 3.42424 0.642532 2.94394L0.671781 2.87193C0.771093 2.62741 0.67531 2.34708 0.447135 2.21446V2.21446C-0.0208336 1.94246 0.172118 1.22652 0.713392 1.22652L0.974045 1.22652C1.19532 1.22652 1.39453 1.09241 1.4778 0.887399L1.63749 0.494217Z" fill="#C8982A"/>
</svg>
