<svg width="8" height="8" viewBox="0 0 8 8" fill="none" xmlns="http://www.w3.org/2000/svg">
<path d="M2.8892 1.53069C3.22695 0.699084 4.40444 0.699085 4.7422 1.53069L5.0359 2.25383C5.18904 2.63089 5.55542 2.87753 5.9624 2.87753H6.44179C7.4373 2.87753 7.79218 4.19429 6.93149 4.69455V4.69455C6.51183 4.93847 6.33567 5.45405 6.51832 5.90377L6.57212 6.03622C6.93089 6.91958 5.96741 7.7562 5.1431 7.27708L4.31821 6.79763C4.00754 6.61706 3.62386 6.61706 3.31318 6.79763L2.48829 7.27709C1.66398 7.7562 0.700503 6.91958 1.05928 6.03622L1.11308 5.90377C1.29573 5.45405 1.11956 4.93847 0.699905 4.69455V4.69455C-0.160781 4.19429 0.194095 2.87753 1.18961 2.87753H1.669C2.07597 2.87753 2.44235 2.63089 2.5955 2.25383L2.8892 1.53069Z" fill="#C8982A"/>
</svg>
