<svg width="5" height="4" viewBox="0 0 5 4" fill="none" xmlns="http://www.w3.org/2000/svg">
<path d="M2.30842 0.819493C2.49072 0.370646 3.12626 0.370645 3.30855 0.819492L3.46708 1.2098C3.54973 1.41331 3.74748 1.54643 3.96714 1.54643H4.22589C4.7632 1.54643 4.95474 2.25714 4.4902 2.52714V2.52714C4.26369 2.6588 4.16861 2.93707 4.26719 3.1798L4.29623 3.25129C4.48987 3.72808 3.96985 4.17963 3.52494 3.92104L3.07972 3.66226C2.91203 3.56479 2.70495 3.56479 2.53726 3.66226L2.09204 3.92104C1.64713 4.17963 1.1271 3.72808 1.32075 3.25129L1.34978 3.1798C1.44837 2.93707 1.35329 2.6588 1.12678 2.52714V2.52714C0.662235 2.25714 0.853776 1.54643 1.39109 1.54643H1.64983C1.86949 1.54643 2.06724 1.41331 2.1499 1.2098L2.30842 0.819493Z" fill="#C8982A"/>
</svg>
