<svg width="16" height="15" viewBox="0 0 16 15" fill="none" xmlns="http://www.w3.org/2000/svg">
<path d="M7.20349 1.16543C7.47851 0.535592 8.37189 0.535591 8.6469 1.16543L10.1028 4.49969C10.217 4.76124 10.4637 4.94053 10.7478 4.96832L14.3687 5.32259C15.0527 5.38952 15.3288 6.23917 14.8148 6.69535L12.0936 9.11031C11.8801 9.29975 11.7859 9.58985 11.8472 9.86858L12.6292 13.4218C12.777 14.093 12.0542 14.6181 11.4615 14.2702L8.32384 12.4285C8.07771 12.284 7.77268 12.284 7.52655 12.4285L4.3889 14.2702C3.7962 14.6181 3.07344 14.093 3.22116 13.4218L4.00316 9.86858C4.06451 9.58985 3.97025 9.29975 3.75679 9.11031L1.03561 6.69535C0.521582 6.23917 0.797651 5.38952 1.48164 5.32259L5.1026 4.96832C5.38664 4.94053 5.63342 4.76124 5.74762 4.49969L7.20349 1.16543Z" fill="#FFB245"/>
</svg>
