<svg width="14" height="13" viewBox="0 0 14 13" fill="none" xmlns="http://www.w3.org/2000/svg">
<path d="M6.41506 0.447045C6.6697 -0.136136 7.4969 -0.136135 7.75154 0.447045L9.09957 3.53432C9.20532 3.7765 9.43381 3.94251 9.69681 3.96824L13.0496 4.29627C13.6829 4.35824 13.9385 5.14496 13.4626 5.56735L10.9429 7.80342C10.7453 7.97883 10.658 8.24744 10.7148 8.50552L11.4389 11.7955C11.5757 12.417 10.9064 12.9032 10.3577 12.5811L7.45242 10.8758C7.22452 10.742 6.94208 10.742 6.71419 10.8758L3.80895 12.5811C3.26016 12.9032 2.59094 12.417 2.72771 11.7955L3.45179 8.50552C3.50859 8.24744 3.42131 7.97883 3.22367 7.80342L0.704054 5.56735C0.228104 5.14496 0.483725 4.35824 1.11705 4.29627L4.46979 3.96824C4.73279 3.94251 4.96129 3.7765 5.06703 3.53432L6.41506 0.447045Z" fill="#FFB245"/>
</svg>
