<svg width="5" height="4" viewBox="0 0 5 4" fill="none" xmlns="http://www.w3.org/2000/svg">
<path d="M1.91141 0.494217C2.09506 0.0420614 2.73527 0.0420612 2.91892 0.494217L3.07861 0.8874C3.16187 1.09241 3.36108 1.22652 3.58236 1.22652L3.84301 1.22652C4.38429 1.22652 4.57724 1.94246 4.10927 2.21446V2.21446C3.88109 2.34708 3.78531 2.62741 3.88462 2.87193L3.91387 2.94394C4.10894 3.42424 3.58508 3.87912 3.13689 3.61862L2.68839 3.35793C2.51947 3.25975 2.31086 3.25975 2.14194 3.35793L1.69344 3.61862C1.24524 3.87912 0.721385 3.42424 0.916458 2.94394L0.945707 2.87193C1.04502 2.62741 0.949236 2.34708 0.72106 2.21446V2.21446C0.253092 1.94246 0.446044 1.22652 0.987318 1.22652L1.24797 1.22652C1.46925 1.22652 1.66845 1.09241 1.75172 0.887399L1.91141 0.494217Z" fill="#C8982A"/>
</svg>
