<svg width="5" height="4" viewBox="0 0 5 4" fill="none" xmlns="http://www.w3.org/2000/svg">
<path d="M1.63749 0.490738C1.82113 0.0385824 2.46135 0.0385822 2.64499 0.490738L2.80468 0.883921C2.88795 1.08894 3.08715 1.22304 3.30843 1.22304L3.56909 1.22304C4.11036 1.22304 4.30331 1.93898 3.83534 2.21098V2.21098C3.60717 2.3436 3.51138 2.62393 3.6107 2.86845L3.63994 2.94046C3.83502 3.42076 3.31116 3.87564 2.86297 3.61514L2.41446 3.35446C2.24554 3.25627 2.03693 3.25627 1.86801 3.35446L1.41951 3.61514C0.971318 3.87564 0.44746 3.42076 0.642532 2.94046L0.671781 2.86845C0.771093 2.62393 0.67531 2.3436 0.447135 2.21098V2.21098C-0.0208336 1.93898 0.172118 1.22304 0.713392 1.22304L0.974045 1.22304C1.19532 1.22304 1.39453 1.08894 1.4778 0.88392L1.63749 0.490738Z" fill="#C8982A"/>
</svg>
