<svg width="9" height="8" viewBox="0 0 9 8" fill="none" xmlns="http://www.w3.org/2000/svg">
<path d="M3.63665 1.53069C3.97441 0.699084 5.15189 0.699085 5.48965 1.53069L5.78335 2.25383C5.9365 2.63089 6.30288 2.87753 6.70985 2.87753H7.18924C8.18475 2.87753 8.53963 4.19429 7.67894 4.69455V4.69455C7.25928 4.93847 7.08312 5.45405 7.26577 5.90377L7.31957 6.03622C7.67835 6.91958 6.71487 7.7562 5.89055 7.27708L5.06567 6.79763C4.75499 6.61706 4.37131 6.61706 4.06063 6.79763L3.23575 7.27709C2.41143 7.7562 1.44795 6.91958 1.80673 6.03622L1.86053 5.90377C2.04318 5.45405 1.86702 4.93847 1.44736 4.69455V4.69455C0.586671 4.19429 0.941547 2.87753 1.93706 2.87753H2.41645C2.82342 2.87753 3.1898 2.63089 3.34295 2.25383L3.63665 1.53069Z" fill="#C8982A"/>
</svg>
