<svg width="5" height="5" viewBox="0 0 5 5" fill="none" xmlns="http://www.w3.org/2000/svg">
<path d="M2.39338 1.26334C2.57568 0.814493 3.21122 0.814493 3.39352 1.26334L3.55204 1.65365C3.6347 1.85716 3.83244 1.99028 4.0521 1.99028H4.31085C4.84816 1.99028 5.0397 2.70098 4.57516 2.97099V2.97099C4.34865 3.10264 4.25357 3.38092 4.35215 3.62365L4.38119 3.69514C4.57484 4.17192 4.05481 4.62348 3.6099 4.36488L3.16468 4.10611C2.99699 4.00864 2.78991 4.00864 2.62222 4.1061L2.177 4.36488C1.73209 4.62348 1.21206 4.17192 1.40571 3.69514L1.43474 3.62365C1.53333 3.38092 1.43825 3.10264 1.21174 2.97099V2.97099C0.747196 2.70098 0.938737 1.99028 1.47605 1.99028H1.73479C1.95445 1.99028 2.1522 1.85716 2.23486 1.65365L2.39338 1.26334Z" fill="#C8982A"/>
</svg>
