<svg width="15" height="14" viewBox="0 0 15 14" fill="none" xmlns="http://www.w3.org/2000/svg">
<path d="M7.06267 0.824146C7.32458 0.224303 8.17542 0.224303 8.43733 0.824146L9.82388 3.99963C9.93264 4.24873 10.1677 4.41948 10.4382 4.44595L13.8867 4.78335C14.5381 4.84709 14.8011 5.65628 14.3115 6.09074L11.7199 8.3907C11.5166 8.57112 11.4268 8.84741 11.4853 9.11286L12.23 12.4969C12.3707 13.1361 11.6824 13.6362 11.1179 13.3049L8.12966 11.5509C7.89525 11.4133 7.60475 11.4133 7.37034 11.5509L4.3821 13.3049C3.81762 13.6362 3.12928 13.1361 3.26997 12.4969L4.01473 9.11286C4.07315 8.84741 3.98338 8.57112 3.78009 8.3907L1.18849 6.09074C0.698939 5.65628 0.961863 4.84709 1.61328 4.78335L5.06182 4.44595C5.33233 4.41948 5.56736 4.24873 5.67612 3.99963L7.06267 0.824146Z" fill="#FFB245"/>
</svg>
