<svg width="9" height="8" viewBox="0 0 9 8" fill="none" xmlns="http://www.w3.org/2000/svg">
<path d="M3.52858 0.953749C3.89003 0.0638179 5.1501 0.0638181 5.51155 0.95375L5.82585 1.72761C5.98973 2.13112 6.38181 2.39506 6.81733 2.39506H7.33035C8.39568 2.39506 8.77545 3.80417 7.85439 4.33952V4.33952C7.4053 4.60055 7.21678 5.15229 7.41225 5.63355L7.46981 5.77529C7.85376 6.72061 6.8227 7.61591 5.94057 7.10319L5.05783 6.59011C4.72536 6.39687 4.31477 6.39687 3.9823 6.59011L3.09956 7.10319C2.21743 7.61591 1.18637 6.72061 1.57031 5.77529L1.62788 5.63355C1.82335 5.15229 1.63483 4.60055 1.18573 4.33952V4.33952C0.264679 3.80417 0.644445 2.39506 1.70978 2.39506H2.2228C2.65832 2.39506 3.05039 2.13112 3.21428 1.72761L3.52858 0.953749Z" fill="#C8982A"/>
</svg>
