<svg width="5" height="4" viewBox="0 0 5 4" fill="none" xmlns="http://www.w3.org/2000/svg">
<path d="M2.22395 0.819493C2.40625 0.370646 3.04178 0.370645 3.22408 0.819492L3.3826 1.2098C3.46526 1.41331 3.66301 1.54643 3.88267 1.54643H4.14141C4.67873 1.54643 4.87027 2.25714 4.40572 2.52714V2.52714C4.17922 2.6588 4.08414 2.93707 4.18272 3.1798L4.21176 3.25129C4.4054 3.72808 3.88538 4.17963 3.44046 3.92104L2.99524 3.66226C2.82756 3.56479 2.62047 3.56479 2.45279 3.66226L2.00757 3.92104C1.56265 4.17963 1.04263 3.72808 1.23627 3.25129L1.26531 3.1798C1.3639 2.93707 1.26881 2.6588 1.04231 2.52714V2.52714C0.577763 2.25714 0.769303 1.54643 1.30662 1.54643H1.56536C1.78502 1.54643 1.98277 1.41331 2.06543 1.2098L2.22395 0.819493Z" fill="#C8982A"/>
</svg>
