<svg width="15" height="14" viewBox="0 0 15 14" fill="none" xmlns="http://www.w3.org/2000/svg">
<path d="M6.81267 0.824146C7.07458 0.224303 7.92542 0.224303 8.18733 0.824146L9.57388 3.99963C9.68264 4.24873 9.91767 4.41948 10.1882 4.44595L13.6367 4.78335C14.2881 4.84709 14.5511 5.65628 14.0615 6.09074L11.4699 8.3907C11.2666 8.57112 11.1768 8.84741 11.2353 9.11286L11.98 12.4969C12.1207 13.1361 11.4324 13.6362 10.8679 13.3049L7.87966 11.5509C7.64525 11.4133 7.35475 11.4133 7.12034 11.5509L4.1321 13.3049C3.56762 13.6362 2.87928 13.1361 3.01997 12.4969L3.76473 9.11286C3.82315 8.84741 3.73338 8.57112 3.53009 8.3907L0.938487 6.09074C0.448939 5.65628 0.711863 4.84709 1.36328 4.78335L4.81182 4.44595C5.08233 4.41948 5.31736 4.24873 5.42612 3.99963L6.81267 0.824146Z" fill="#FFB245"/>
</svg>
