<svg width="5" height="4" viewBox="0 0 5 4" fill="none" xmlns="http://www.w3.org/2000/svg">
<path d="M1.77445 0.497635C1.95809 0.0454794 2.59831 0.0454792 2.78195 0.497635L2.94164 0.890817C3.02491 1.09583 3.22412 1.22993 3.4454 1.22993L3.70605 1.22993C4.24732 1.22993 4.44027 1.94587 3.97231 2.21787V2.21787C3.74413 2.3505 3.64835 2.63082 3.74766 2.87534L3.77691 2.94736C3.97198 3.42766 3.44812 3.88254 2.99993 3.62204L2.55143 3.36135C2.38251 3.26317 2.1739 3.26317 2.00498 3.36135L1.55647 3.62204C1.10828 3.88254 0.584423 3.42766 0.779495 2.94736L0.808744 2.87534C0.908056 2.63082 0.812273 2.3505 0.584097 2.21787V2.21787C0.116129 1.94587 0.309081 1.22993 0.850355 1.22993L1.11101 1.22993C1.33229 1.22993 1.53149 1.09583 1.61476 0.890817L1.77445 0.497635Z" fill="#C8982A"/>
</svg>
