<svg width="5" height="4" viewBox="0 0 5 4" fill="none" xmlns="http://www.w3.org/2000/svg">
<path d="M1.91141 0.497635C2.09506 0.0454794 2.73527 0.0454792 2.91892 0.497635L3.07861 0.890817C3.16187 1.09583 3.36108 1.22993 3.58236 1.22993L3.84301 1.22993C4.38429 1.22993 4.57724 1.94587 4.10927 2.21787V2.21787C3.88109 2.3505 3.78531 2.63082 3.88462 2.87534L3.91387 2.94736C4.10894 3.42766 3.58508 3.88254 3.13689 3.62204L2.68839 3.36135C2.51947 3.26317 2.31086 3.26317 2.14194 3.36135L1.69344 3.62204C1.24524 3.88254 0.721385 3.42766 0.916458 2.94736L0.945707 2.87534C1.04502 2.63082 0.949236 2.3505 0.72106 2.21787V2.21787C0.253092 1.94587 0.446044 1.22993 0.987318 1.22993L1.24797 1.22993C1.46925 1.22993 1.66845 1.09583 1.75172 0.890817L1.91141 0.497635Z" fill="#C8982A"/>
</svg>
