<svg width="8" height="8" viewBox="0 0 8 8" fill="none" xmlns="http://www.w3.org/2000/svg">
<path d="M3.01556 1.53069C3.35331 0.699084 4.5308 0.699085 4.86856 1.53069L5.16226 2.25383C5.3154 2.63089 5.68178 2.87753 6.08876 2.87753H6.56815C7.56366 2.87753 7.91854 4.19429 7.05785 4.69455V4.69455C6.63819 4.93847 6.46202 5.45405 6.64468 5.90377L6.69847 6.03622C7.05725 6.91958 6.09377 7.7562 5.26946 7.27708L4.44457 6.79763C4.1339 6.61706 3.75022 6.61706 3.43954 6.79763L2.61465 7.27709C1.79034 7.7562 0.826861 6.91958 1.18564 6.03622L1.23943 5.90377C1.42209 5.45405 1.24592 4.93847 0.826263 4.69455V4.69455C-0.0344232 4.19429 0.320453 2.87753 1.31596 2.87753H1.79535C2.20233 2.87753 2.56871 2.63089 2.72185 2.25383L3.01556 1.53069Z" fill="#C8982A"/>
</svg>
