<svg width="8" height="8" viewBox="0 0 8 8" fill="none" xmlns="http://www.w3.org/2000/svg">
<path d="M2.88909 1.53069C3.22685 0.699084 4.40433 0.699085 4.74209 1.53069L5.03579 2.25383C5.18894 2.63089 5.55532 2.87753 5.96229 2.87753H6.44168C7.43719 2.87753 7.79207 4.19429 6.93138 4.69455V4.69455C6.51172 4.93847 6.33556 5.45405 6.51821 5.90377L6.57201 6.03622C6.93079 6.91958 5.96731 7.7562 5.14299 7.27708L4.31811 6.79763C4.00743 6.61706 3.62375 6.61706 3.31308 6.79763L2.48819 7.27709C1.66387 7.7562 0.700396 6.91958 1.05917 6.03622L1.11297 5.90377C1.29562 5.45405 1.11946 4.93847 0.699798 4.69455V4.69455C-0.160888 4.19429 0.193988 2.87753 1.1895 2.87753H1.66889C2.07587 2.87753 2.44225 2.63089 2.59539 2.25383L2.88909 1.53069Z" fill="#C8982A"/>
</svg>
