<svg width="15" height="15" viewBox="0 0 15 15" fill="none" xmlns="http://www.w3.org/2000/svg">
<path d="M6.5282 0.802878C6.80321 0.173043 7.69659 0.173042 7.9716 0.802877L9.42748 4.13714C9.54168 4.39869 9.78846 4.57798 10.0725 4.60577L13.6935 4.96005C14.3774 5.02697 14.6535 5.87662 14.1395 6.3328L11.4183 8.74776C11.2049 8.9372 11.1106 9.2273 11.1719 9.50603L11.9539 13.0592C12.1017 13.7304 11.3789 14.2556 10.7862 13.9077L7.64855 12.0659C7.40242 11.9214 7.09739 11.9214 6.85126 12.0659L3.7136 13.9077C3.12091 14.2556 2.39815 13.7304 2.54587 13.0592L3.32787 9.50603C3.38921 9.2273 3.29495 8.9372 3.0815 8.74776L0.360314 6.3328C-0.153711 5.87662 0.122358 5.02697 0.80635 4.96005L4.42731 4.60577C4.71135 4.57798 4.95813 4.39869 5.07233 4.13714L6.5282 0.802878Z" fill="#FFB245"/>
</svg>
