<svg width="15" height="15" viewBox="0 0 15 15" fill="none" xmlns="http://www.w3.org/2000/svg">
<path d="M6.6034 1.16543C6.87841 0.535592 7.77179 0.535591 8.0468 1.16543L9.50267 4.49969C9.61687 4.76124 9.86365 4.94053 10.1477 4.96832L13.7687 5.32259C14.4526 5.38952 14.7287 6.23917 14.2147 6.69535L11.4935 9.11031C11.28 9.29975 11.1858 9.58985 11.2471 9.86858L12.0291 13.4218C12.1769 14.093 11.4541 14.6181 10.8614 14.2702L7.72374 12.4285C7.47761 12.284 7.17258 12.284 6.92645 12.4285L3.7888 14.2702C3.1961 14.6181 2.47334 14.093 2.62106 13.4218L3.40307 9.86858C3.46441 9.58985 3.37015 9.29975 3.15669 9.11031L0.43551 6.69535C-0.0785158 6.23917 0.197554 5.38952 0.881546 5.32259L4.50251 4.96832C4.78655 4.94053 5.03332 4.76124 5.14752 4.49969L6.6034 1.16543Z" fill="#FFB245"/>
</svg>
