<svg width="20" height="18" viewBox="0 0 20 18" fill="none" xmlns="http://www.w3.org/2000/svg">
<path d="M9.08355 1.09886C9.43277 0.299071 10.5672 0.299071 10.9164 1.09886L12.7652 5.33284C12.9102 5.66497 13.2236 5.89264 13.5842 5.92793L18.1823 6.3778C19.0508 6.46278 19.4014 7.54171 18.7487 8.12099L15.2932 11.1876C15.0222 11.4282 14.9025 11.7965 14.9804 12.1505L15.9734 16.6625C16.161 17.5148 15.2432 18.1816 14.4905 17.7398L10.5062 15.4011C10.1937 15.2177 9.80633 15.2177 9.49379 15.4011L5.50946 17.7398C4.75683 18.1816 3.83904 17.5148 4.02662 16.6625L5.01964 12.1505C5.09754 11.7965 4.97784 11.4282 4.70679 11.1876L1.25132 8.12099C0.598586 7.54171 0.949151 6.46278 1.81771 6.3778L6.41576 5.92793C6.77644 5.89264 7.08981 5.66497 7.23483 5.33284L9.08355 1.09886Z" fill="#FFB245"/>
</svg>
