<svg width="5" height="4" viewBox="0 0 5 4" fill="none" xmlns="http://www.w3.org/2000/svg">
<path d="M2.05403 0.819493C2.23633 0.370646 2.87186 0.370645 3.05416 0.819492L3.21268 1.2098C3.29534 1.41331 3.49309 1.54643 3.71275 1.54643H3.97149C4.50881 1.54643 4.70035 2.25714 4.2358 2.52714V2.52714C4.0093 2.6588 3.91421 2.93707 4.0128 3.1798L4.04183 3.25129C4.23548 3.72808 3.71545 4.17963 3.27054 3.92104L2.82532 3.66226C2.65764 3.56479 2.45055 3.56479 2.28287 3.66226L1.83764 3.92104C1.39273 4.17963 0.872708 3.72808 1.06635 3.25129L1.09539 3.1798C1.19397 2.93707 1.09889 2.6588 0.872385 2.52714V2.52714C0.407841 2.25714 0.599381 1.54643 1.13669 1.54643H1.39544C1.6151 1.54643 1.81285 1.41331 1.89551 1.2098L2.05403 0.819493Z" fill="#C8982A"/>
</svg>
