<svg width="5" height="5" viewBox="0 0 5 5" fill="none" xmlns="http://www.w3.org/2000/svg">
<path d="M2.22395 1.03092C2.40625 0.582071 3.04178 0.582071 3.22408 1.03092L3.3826 1.42122C3.46526 1.62474 3.66301 1.75786 3.88267 1.75786H4.14141C4.67873 1.75786 4.87027 2.46856 4.40572 2.73857V2.73857C4.17922 2.87022 4.08414 3.1485 4.18272 3.39123L4.21176 3.46272C4.4054 3.9395 3.88538 4.39106 3.44046 4.13246L2.99524 3.87368C2.82756 3.77622 2.62047 3.77622 2.45279 3.87368L2.00757 4.13246C1.56265 4.39106 1.04263 3.9395 1.23627 3.46272L1.26531 3.39123C1.3639 3.1485 1.26881 2.87022 1.04231 2.73857V2.73857C0.577763 2.46856 0.769303 1.75786 1.30662 1.75786H1.56536C1.78502 1.75786 1.98277 1.62474 2.06543 1.42122L2.22395 1.03092Z" fill="#C8982A"/>
</svg>
