<svg width="9" height="8" viewBox="0 0 9 8" fill="none" xmlns="http://www.w3.org/2000/svg">
<path d="M3.45778 0.953749C3.81923 0.0638179 5.0793 0.0638181 5.44075 0.95375L5.75505 1.72761C5.91893 2.13112 6.31101 2.39506 6.74653 2.39506H7.25955C8.32488 2.39506 8.70465 3.80417 7.78359 4.33952V4.33952C7.3345 4.60055 7.14598 5.15229 7.34144 5.63355L7.39901 5.77529C7.78295 6.72061 6.7519 7.61591 5.86977 7.10319L4.98703 6.59011C4.65456 6.39687 4.24397 6.39687 3.9115 6.59011L3.02876 7.10319C2.14663 7.61591 1.11557 6.72061 1.49951 5.77529L1.55708 5.63355C1.75255 5.15229 1.56403 4.60055 1.11493 4.33952V4.33952C0.193879 3.80417 0.573644 2.39506 1.63898 2.39506H2.15199C2.58752 2.39506 2.97959 2.13112 3.14348 1.72761L3.45778 0.953749Z" fill="#C8982A"/>
</svg>
