<svg width="9" height="8" viewBox="0 0 9 8" fill="none" xmlns="http://www.w3.org/2000/svg">
<path d="M3.66945 0.953749C4.0309 0.0638179 5.29097 0.0638181 5.65242 0.95375L5.96672 1.72761C6.1306 2.13112 6.52268 2.39506 6.9582 2.39506H7.47122C8.53655 2.39506 8.91632 3.80417 7.99526 4.33952V4.33952C7.54617 4.60055 7.35765 5.15229 7.55311 5.63355L7.61068 5.77529C7.99462 6.72061 6.96357 7.61591 6.08144 7.10319L5.1987 6.59011C4.86623 6.39687 4.45564 6.39687 4.12317 6.59011L3.24043 7.10319C2.3583 7.61591 1.32724 6.72061 1.71118 5.77529L1.76875 5.63355C1.96422 5.15229 1.7757 4.60055 1.3266 4.33952V4.33952C0.405549 3.80417 0.785314 2.39506 1.85065 2.39506H2.36366C2.79919 2.39506 3.19126 2.13112 3.35515 1.72761L3.66945 0.953749Z" fill="#C8982A"/>
</svg>
