<svg width="9" height="8" viewBox="0 0 9 8" fill="none" xmlns="http://www.w3.org/2000/svg">
<path d="M3.57546 0.953749C3.9369 0.0638179 5.19698 0.0638181 5.55842 0.95375L5.87272 1.72761C6.03661 2.13112 6.42869 2.39506 6.86421 2.39506H7.37722C8.44256 2.39506 8.82232 3.80417 7.90127 4.33952V4.33952C7.45218 4.60055 7.26366 5.15229 7.45912 5.63355L7.51669 5.77529C7.90063 6.72061 6.86957 7.61591 5.98745 7.10319L5.1047 6.59011C4.77223 6.39687 4.36164 6.39687 4.02918 6.59011L3.14643 7.10319C2.2643 7.61591 1.23325 6.72061 1.61719 5.77529L1.67476 5.63355C1.87022 5.15229 1.6817 4.60055 1.23261 4.33952V4.33952C0.311554 3.80417 0.69132 2.39506 1.75665 2.39506H2.26967C2.70519 2.39506 3.09727 2.13112 3.26115 1.72761L3.57546 0.953749Z" fill="#C8982A"/>
</svg>
