<svg width="15" height="14" viewBox="0 0 15 14" fill="none" xmlns="http://www.w3.org/2000/svg">
<path d="M6.4657 0.565329C6.74071 -0.0645057 7.63409 -0.0645066 7.9091 0.565328L9.36498 3.89959C9.47918 4.16114 9.72596 4.34043 10.01 4.36822L13.631 4.7225C14.3149 4.78942 14.591 5.63907 14.077 6.09525L11.3558 8.51021C11.1424 8.69965 11.0481 8.98975 11.1094 9.26848L11.8914 12.8217C12.0392 13.4929 11.3164 14.018 10.7237 13.6701L7.58605 11.8284C7.33992 11.6839 7.03489 11.6839 6.78876 11.8284L3.6511 13.6701C3.05841 14.018 2.33565 13.4929 2.48337 12.8217L3.26537 9.26848C3.32671 8.98975 3.23245 8.69965 3.019 8.51021L0.297814 6.09526C-0.216211 5.63907 0.0598583 4.78942 0.74385 4.7225L4.36481 4.36822C4.64885 4.34043 4.89563 4.16114 5.00983 3.89959L6.4657 0.565329Z" fill="#FFB245"/>
</svg>
