<svg width="14" height="14" viewBox="0 0 14 14" fill="none" xmlns="http://www.w3.org/2000/svg">
<path d="M6.06092 1.30129C6.31556 0.718113 7.14277 0.718113 7.39741 1.30129L8.74544 4.38857C8.85118 4.63075 9.07968 4.79676 9.34268 4.82249L12.6954 5.15052C13.3287 5.21249 13.5844 5.99921 13.1084 6.4216L10.5888 8.65767C10.3912 8.83307 10.3039 9.10169 10.3607 9.35977L11.0848 12.6498C11.2215 13.2713 10.5523 13.7575 10.0035 13.4353L7.09828 11.73C6.87038 11.5963 6.58795 11.5963 6.36005 11.73L3.45482 13.4353C2.90602 13.7575 2.2368 13.2713 2.37358 12.6498L3.09766 9.35977C3.15446 9.10169 3.06718 8.83307 2.86953 8.65767L0.349918 6.42159C-0.126031 5.9992 0.129589 5.21249 0.762915 5.15052L4.11566 4.82249C4.37866 4.79676 4.60715 4.63075 4.7129 4.38857L6.06092 1.30129Z" fill="#FFB245"/>
</svg>
