<svg width="8" height="8" viewBox="0 0 8 8" fill="none" xmlns="http://www.w3.org/2000/svg">
<path d="M2.88921 1.53069C3.22697 0.699084 4.40446 0.699085 4.74221 1.53069L5.03592 2.25383C5.18906 2.63089 5.55544 2.87753 5.96241 2.87753H6.4418C7.43732 2.87753 7.79219 4.19429 6.93151 4.69455V4.69455C6.51185 4.93847 6.33568 5.45405 6.51834 5.90377L6.57213 6.03622C6.93091 6.91958 5.96743 7.7562 5.14312 7.27708L4.31823 6.79763C4.00755 6.61706 3.62387 6.61706 3.3132 6.79763L2.48831 7.27709C1.664 7.7562 0.700518 6.91958 1.05929 6.03622L1.11309 5.90377C1.29574 5.45405 1.11958 4.93847 0.699921 4.69455V4.69455C-0.160766 4.19429 0.194111 2.87753 1.18962 2.87753H1.66901C2.07599 2.87753 2.44237 2.63089 2.59551 2.25383L2.88921 1.53069Z" fill="#C8982A"/>
</svg>
