<svg width="8" height="8" viewBox="0 0 8 8" fill="none" xmlns="http://www.w3.org/2000/svg">
<path d="M3.14179 1.53063C3.47955 0.699023 4.65704 0.699024 4.99479 1.53063L5.28849 2.25377C5.44164 2.63083 5.80802 2.87747 6.21499 2.87747H6.69438C7.68989 2.87747 8.04477 4.19423 7.18408 4.69449V4.69449C6.76443 4.93841 6.58826 5.45398 6.77091 5.90371L6.82471 6.03616C7.18349 6.91952 6.22001 7.75614 5.3957 7.27702L4.57081 6.79757C4.26013 6.61699 3.87645 6.61699 3.56578 6.79757L2.74089 7.27702C1.91657 7.75614 0.953097 6.91952 1.31187 6.03616L1.36567 5.90371C1.54832 5.45398 1.37216 4.93841 0.952499 4.69449V4.69449C0.0918128 4.19423 0.446689 2.87747 1.4422 2.87747H1.92159C2.32857 2.87747 2.69495 2.63083 2.84809 2.25377L3.14179 1.53063Z" fill="#C8982A"/>
</svg>
