<svg width="15" height="14" viewBox="0 0 15 14" fill="none" xmlns="http://www.w3.org/2000/svg">
<path d="M7.0658 0.565329C7.34081 -0.0645057 8.23419 -0.0645066 8.5092 0.565328L9.96507 3.89959C10.0793 4.16114 10.3261 4.34043 10.6101 4.36822L14.2311 4.7225C14.915 4.78942 15.1911 5.63907 14.6771 6.09525L11.9559 8.51021C11.7424 8.69965 11.6482 8.98975 11.7095 9.26848L12.4915 12.8217C12.6393 13.4929 11.9165 14.018 11.3238 13.6701L8.18614 11.8284C7.94002 11.6839 7.63498 11.6839 7.38886 11.8284L4.2512 13.6701C3.65851 14.018 2.93575 13.4929 3.08346 12.8217L3.86547 9.26848C3.92681 8.98975 3.83255 8.69965 3.61909 8.51021L0.897912 6.09526C0.383887 5.63907 0.659956 4.78942 1.34395 4.7225L4.96491 4.36822C5.24895 4.34043 5.49572 4.16114 5.60993 3.89959L7.0658 0.565329Z" fill="#FFB245"/>
</svg>
