<svg width="15" height="15" viewBox="0 0 15 15" fill="none" xmlns="http://www.w3.org/2000/svg">
<path d="M6.92859 0.802878C7.2036 0.173043 8.09698 0.173042 8.37199 0.802877L9.82787 4.13714C9.94207 4.39869 10.1888 4.57798 10.4729 4.60577L14.0938 4.96005C14.7778 5.02697 15.0539 5.87662 14.5399 6.3328L11.8187 8.74776C11.6052 8.9372 11.511 9.2273 11.5723 9.50603L12.3543 13.0592C12.502 13.7304 11.7793 14.2556 11.1866 13.9077L8.04894 12.0659C7.80281 11.9214 7.49778 11.9214 7.25165 12.0659L4.114 13.9077C3.5213 14.2556 2.79854 13.7304 2.94626 13.0592L3.72826 9.50603C3.78961 9.2273 3.69535 8.9372 3.48189 8.74776L0.760705 6.3328C0.24668 5.87662 0.522749 5.02697 1.20674 4.96005L4.8277 4.60577C5.11174 4.57798 5.35852 4.39869 5.47272 4.13714L6.92859 0.802878Z" fill="#FFB245"/>
</svg>
