<svg width="5" height="4" viewBox="0 0 5 4" fill="none" xmlns="http://www.w3.org/2000/svg">
<path d="M2.18534 0.497635C2.36898 0.0454794 3.0092 0.0454792 3.19284 0.497635L3.35253 0.890817C3.4358 1.09583 3.63501 1.22993 3.85628 1.22993L4.11694 1.22993C4.65821 1.22993 4.85116 1.94587 4.38319 2.21787V2.21787C4.15502 2.3505 4.05924 2.63082 4.15855 2.87534L4.1878 2.94736C4.38287 3.42766 3.85901 3.88254 3.41082 3.62204L2.96232 3.36135C2.7934 3.26317 2.58478 3.26317 2.41586 3.36135L1.96736 3.62204C1.51917 3.88254 0.995311 3.42766 1.19038 2.94736L1.21963 2.87534C1.31894 2.63082 1.22316 2.3505 0.994986 2.21787V2.21787C0.527018 1.94587 0.71997 1.22993 1.26124 1.22993L1.5219 1.22993C1.74318 1.22993 1.94238 1.09583 2.02565 0.890817L2.18534 0.497635Z" fill="#C8982A"/>
</svg>
