<svg width="5" height="5" viewBox="0 0 5 5" fill="none" xmlns="http://www.w3.org/2000/svg">
<path d="M2.05403 1.26334C2.23633 0.814493 2.87186 0.814493 3.05416 1.26334L3.21268 1.65365C3.29534 1.85716 3.49309 1.99028 3.71275 1.99028H3.97149C4.50881 1.99028 4.70035 2.70098 4.2358 2.97099V2.97099C4.0093 3.10264 3.91421 3.38092 4.0128 3.62365L4.04183 3.69514C4.23548 4.17192 3.71545 4.62348 3.27054 4.36488L2.82532 4.10611C2.65764 4.00864 2.45055 4.00864 2.28287 4.1061L1.83764 4.36488C1.39273 4.62348 0.872708 4.17192 1.06635 3.69514L1.09539 3.62365C1.19397 3.38092 1.09889 3.10264 0.872385 2.97099V2.97099C0.407841 2.70098 0.599381 1.99028 1.13669 1.99028H1.39544C1.6151 1.99028 1.81285 1.85716 1.89551 1.65365L2.05403 1.26334Z" fill="#C8982A"/>
</svg>
