<svg width="9" height="8" viewBox="0 0 9 8" fill="none" xmlns="http://www.w3.org/2000/svg">
<path d="M3.62233 0.953749C3.98378 0.0638179 5.24385 0.0638181 5.6053 0.95375L5.9196 1.72761C6.08348 2.13112 6.47556 2.39506 6.91108 2.39506H7.4241C8.48943 2.39506 8.8692 3.80417 7.94814 4.33952V4.33952C7.49905 4.60055 7.31053 5.15229 7.506 5.63355L7.56356 5.77529C7.94751 6.72061 6.91645 7.61591 6.03432 7.10319L5.15158 6.59011C4.81911 6.39687 4.40852 6.39687 4.07605 6.59011L3.19331 7.10319C2.31118 7.61591 1.28012 6.72061 1.66406 5.77529L1.72163 5.63355C1.9171 5.15229 1.72858 4.60055 1.27948 4.33952V4.33952C0.358429 3.80417 0.738195 2.39506 1.80353 2.39506H2.31655C2.75207 2.39506 3.14414 2.13112 3.30803 1.72761L3.62233 0.953749Z" fill="#C8982A"/>
</svg>
