<svg width="14" height="14" viewBox="0 0 14 14" fill="none" xmlns="http://www.w3.org/2000/svg">
<path d="M6.39426 1.30129C6.6489 0.718113 7.4761 0.718113 7.73074 1.30129L9.07877 4.38857C9.18451 4.63075 9.41301 4.79676 9.67601 4.82249L13.0288 5.15052C13.6621 5.21249 13.9177 5.99921 13.4417 6.4216L10.9221 8.65767C10.7245 8.83307 10.6372 9.10169 10.694 9.35977L11.4181 12.6498C11.5549 13.2713 10.8856 13.7575 10.3368 13.4353L7.43161 11.73C7.20372 11.5963 6.92128 11.5963 6.69338 11.73L3.78815 13.4353C3.23936 13.7575 2.57013 13.2713 2.70691 12.6498L3.43099 9.35977C3.48779 9.10169 3.40051 8.83307 3.20286 8.65767L0.683251 6.42159C0.207301 5.9992 0.462921 5.21249 1.09625 5.15052L4.44899 4.82249C4.71199 4.79676 4.94048 4.63075 5.04623 4.38857L6.39426 1.30129Z" fill="#FFB245"/>
</svg>
