<svg width="15" height="15" viewBox="0 0 15 15" fill="none" xmlns="http://www.w3.org/2000/svg">
<path d="M7.0033 1.16543C7.27831 0.535592 8.17169 0.535591 8.4467 1.16543L9.90257 4.49969C10.0168 4.76124 10.2636 4.94053 10.5476 4.96832L14.1686 5.32259C14.8525 5.38952 15.1286 6.23917 14.6146 6.69535L11.8934 9.11031C11.6799 9.29975 11.5857 9.58985 11.647 9.86858L12.429 13.4218C12.5768 14.093 11.854 14.6181 11.2613 14.2702L8.12364 12.4285C7.87752 12.284 7.57248 12.284 7.32636 12.4285L4.1887 14.2702C3.59601 14.6181 2.87325 14.093 3.02096 13.4218L3.80297 9.86858C3.86431 9.58985 3.77005 9.29975 3.55659 9.11031L0.835412 6.69535C0.321387 6.23917 0.597456 5.38952 1.28145 5.32259L4.90241 4.96832C5.18645 4.94053 5.43322 4.76124 5.54743 4.49969L7.0033 1.16543Z" fill="#FFB245"/>
</svg>
