<svg width="8" height="8" viewBox="0 0 8 8" fill="none" xmlns="http://www.w3.org/2000/svg">
<path d="M2.7629 1.53069C3.10066 0.699084 4.27814 0.699085 4.6159 1.53069L4.9096 2.25383C5.06275 2.63089 5.42913 2.87753 5.8361 2.87753H6.31549C7.311 2.87753 7.66588 4.19429 6.80519 4.69455V4.69455C6.38553 4.93847 6.20937 5.45405 6.39202 5.90377L6.44582 6.03622C6.8046 6.91958 5.84112 7.7562 5.0168 7.27708L4.19192 6.79763C3.88124 6.61706 3.49756 6.61706 3.18688 6.79763L2.362 7.27709C1.53768 7.7562 0.574206 6.91958 0.932982 6.03622L0.986778 5.90377C1.16943 5.45405 0.993268 4.93847 0.573608 4.69455V4.69455C-0.287078 4.19429 0.0677983 2.87753 1.06331 2.87753H1.5427C1.94968 2.87753 2.31605 2.63089 2.4692 2.25383L2.7629 1.53069Z" fill="#C8982A"/>
</svg>
