<svg width="15" height="14" viewBox="0 0 15 14" fill="none" xmlns="http://www.w3.org/2000/svg">
<path d="M6.8656 0.565329C7.14061 -0.0645057 8.034 -0.0645066 8.30901 0.565328L9.76488 3.89959C9.87908 4.16114 10.1259 4.34043 10.4099 4.36822L14.0309 4.7225C14.7148 4.78942 14.9909 5.63907 14.4769 6.09525L11.7557 8.51021C11.5423 8.69965 11.448 8.98975 11.5093 9.26848L12.2913 12.8217C12.4391 13.4929 11.7163 14.018 11.1236 13.6701L7.98595 11.8284C7.73982 11.6839 7.43479 11.6839 7.18866 11.8284L4.05101 13.6701C3.45831 14.018 2.73555 13.4929 2.88327 12.8217L3.66527 9.26848C3.72662 8.98975 3.63236 8.69965 3.4189 8.51021L0.697717 6.09526C0.183691 5.63907 0.459761 4.78942 1.14375 4.7225L4.76471 4.36822C5.04875 4.34043 5.29553 4.16114 5.40973 3.89959L6.8656 0.565329Z" fill="#FFB245"/>
</svg>
