<svg width="5" height="5" viewBox="0 0 5 5" fill="none" xmlns="http://www.w3.org/2000/svg">
<path d="M2.22395 1.26334C2.40625 0.814493 3.04178 0.814493 3.22408 1.26334L3.3826 1.65365C3.46526 1.85716 3.66301 1.99028 3.88267 1.99028H4.14141C4.67873 1.99028 4.87027 2.70098 4.40572 2.97099V2.97099C4.17922 3.10264 4.08414 3.38092 4.18272 3.62365L4.21176 3.69514C4.4054 4.17192 3.88538 4.62348 3.44046 4.36488L2.99524 4.10611C2.82756 4.00864 2.62047 4.00864 2.45279 4.1061L2.00757 4.36488C1.56265 4.62348 1.04263 4.17192 1.23627 3.69514L1.26531 3.62365C1.3639 3.38092 1.26881 3.10264 1.04231 2.97099V2.97099C0.577763 2.70098 0.769303 1.99028 1.30662 1.99028H1.56536C1.78502 1.99028 1.98277 1.85716 2.06543 1.65365L2.22395 1.26334Z" fill="#C8982A"/>
</svg>
