<svg width="5" height="4" viewBox="0 0 5 4" fill="none" xmlns="http://www.w3.org/2000/svg">
<path d="M2.18534 0.490738C2.36898 0.0385824 3.0092 0.0385822 3.19284 0.490738L3.35253 0.883921C3.4358 1.08894 3.63501 1.22304 3.85628 1.22304L4.11694 1.22304C4.65821 1.22304 4.85116 1.93898 4.38319 2.21098V2.21098C4.15502 2.3436 4.05924 2.62393 4.15855 2.86845L4.1878 2.94046C4.38287 3.42076 3.85901 3.87564 3.41082 3.61514L2.96232 3.35446C2.7934 3.25627 2.58478 3.25627 2.41586 3.35446L1.96736 3.61514C1.51917 3.87564 0.995311 3.42076 1.19038 2.94046L1.21963 2.86845C1.31894 2.62393 1.22316 2.3436 0.994986 2.21098V2.21098C0.527018 1.93898 0.71997 1.22304 1.26124 1.22304L1.5219 1.22304C1.74318 1.22304 1.94238 1.08894 2.02565 0.88392L2.18534 0.490738Z" fill="#C8982A"/>
</svg>
