<svg width="5" height="5" viewBox="0 0 5 5" fill="none" xmlns="http://www.w3.org/2000/svg">
<path d="M2.13899 1.03092C2.32129 0.582071 2.95682 0.582071 3.13912 1.03092L3.29764 1.42122C3.3803 1.62474 3.57805 1.75786 3.79771 1.75786H4.05645C4.59377 1.75786 4.78531 2.46856 4.32076 2.73857V2.73857C4.09426 2.87022 3.99918 3.1485 4.09776 3.39123L4.1268 3.46272C4.32044 3.9395 3.80042 4.39106 3.3555 4.13246L2.91028 3.87368C2.7426 3.77622 2.53551 3.77622 2.36783 3.87368L1.92261 4.13246C1.47769 4.39106 0.957669 3.9395 1.15131 3.46272L1.18035 3.39123C1.27893 3.1485 1.18385 2.87022 0.957346 2.73857V2.73857C0.492802 2.46856 0.684342 1.75786 1.22166 1.75786H1.4804C1.70006 1.75786 1.89781 1.62474 1.98047 1.42122L2.13899 1.03092Z" fill="#C8982A"/>
</svg>
