<svg width="5" height="4" viewBox="0 0 5 4" fill="none" xmlns="http://www.w3.org/2000/svg">
<path d="M1.77445 0.494217C1.95809 0.0420614 2.59831 0.0420612 2.78195 0.494217L2.94164 0.8874C3.02491 1.09241 3.22412 1.22652 3.4454 1.22652L3.70605 1.22652C4.24732 1.22652 4.44027 1.94246 3.97231 2.21446V2.21446C3.74413 2.34708 3.64835 2.62741 3.74766 2.87193L3.77691 2.94394C3.97198 3.42424 3.44812 3.87912 2.99993 3.61862L2.55143 3.35793C2.38251 3.25975 2.1739 3.25975 2.00498 3.35793L1.55647 3.61862C1.10828 3.87912 0.584423 3.42424 0.779495 2.94394L0.808744 2.87193C0.908056 2.62741 0.812273 2.34708 0.584097 2.21446V2.21446C0.116129 1.94246 0.309081 1.22652 0.850355 1.22652L1.11101 1.22652C1.33229 1.22652 1.53149 1.09241 1.61476 0.887399L1.77445 0.494217Z" fill="#C8982A"/>
</svg>
