<svg width="5" height="5" viewBox="0 0 5 5" fill="none" xmlns="http://www.w3.org/2000/svg">
<path d="M2.05403 1.03092C2.23633 0.582071 2.87186 0.582071 3.05416 1.03092L3.21268 1.42122C3.29534 1.62474 3.49309 1.75786 3.71275 1.75786H3.97149C4.50881 1.75786 4.70035 2.46856 4.2358 2.73857V2.73857C4.0093 2.87022 3.91421 3.1485 4.0128 3.39123L4.04183 3.46272C4.23548 3.9395 3.71545 4.39106 3.27054 4.13246L2.82532 3.87368C2.65764 3.77622 2.45055 3.77622 2.28287 3.87368L1.83764 4.13246C1.39273 4.39106 0.872708 3.9395 1.06635 3.46272L1.09539 3.39123C1.19397 3.1485 1.09889 2.87022 0.872385 2.73857V2.73857C0.407841 2.46856 0.599381 1.75786 1.13669 1.75786H1.39544C1.6151 1.75786 1.81285 1.62474 1.89551 1.42122L2.05403 1.03092Z" fill="#C8982A"/>
</svg>
