<svg width="15" height="15" viewBox="0 0 15 15" fill="none" xmlns="http://www.w3.org/2000/svg">
<path d="M6.7284 0.802878C7.00341 0.173043 7.89679 0.173042 8.1718 0.802877L9.62767 4.13714C9.74187 4.39869 9.98865 4.57798 10.2727 4.60577L13.8937 4.96005C14.5776 5.02697 14.8537 5.87662 14.3397 6.3328L11.6185 8.74776C11.405 8.9372 11.3108 9.2273 11.3721 9.50603L12.1541 13.0592C12.3019 13.7304 11.5791 14.2556 10.9864 13.9077L7.84874 12.0659C7.60261 11.9214 7.29758 11.9214 7.05145 12.0659L3.9138 13.9077C3.3211 14.2556 2.59834 13.7304 2.74606 13.0592L3.52807 9.50603C3.58941 9.2273 3.49515 8.9372 3.28169 8.74776L0.56051 6.3328C0.0464842 5.87662 0.322554 5.02697 1.00655 4.96005L4.62751 4.60577C4.91155 4.57798 5.15832 4.39869 5.27252 4.13714L6.7284 0.802878Z" fill="#FFB245"/>
</svg>
