<svg width="8" height="8" viewBox="0 0 8 8" fill="none" xmlns="http://www.w3.org/2000/svg">
<path d="M3.01544 1.53069C3.35319 0.699084 4.53068 0.699085 4.86843 1.53069L5.16214 2.25383C5.31528 2.63089 5.68166 2.87753 6.08864 2.87753H6.56803C7.56354 2.87753 7.91841 4.19429 7.05773 4.69455V4.69455C6.63807 4.93847 6.4619 5.45405 6.64456 5.90377L6.69835 6.03622C7.05713 6.91958 6.09365 7.7562 5.26934 7.27708L4.44445 6.79763C4.13377 6.61706 3.7501 6.61706 3.43942 6.79763L2.61453 7.27709C1.79022 7.7562 0.826739 6.91958 1.18552 6.03622L1.23931 5.90377C1.42197 5.45405 1.2458 4.93847 0.826141 4.69455V4.69455C-0.0345452 4.19429 0.320331 2.87753 1.31584 2.87753H1.79523C2.20221 2.87753 2.56859 2.63089 2.72173 2.25383L3.01544 1.53069Z" fill="#C8982A"/>
</svg>
