<svg width="5" height="4" viewBox="0 0 5 4" fill="none" xmlns="http://www.w3.org/2000/svg">
<path d="M1.91141 0.490738C2.09506 0.0385824 2.73527 0.0385822 2.91892 0.490738L3.07861 0.883921C3.16187 1.08894 3.36108 1.22304 3.58236 1.22304L3.84301 1.22304C4.38429 1.22304 4.57724 1.93898 4.10927 2.21098V2.21098C3.88109 2.3436 3.78531 2.62393 3.88462 2.86845L3.91387 2.94046C4.10894 3.42076 3.58508 3.87564 3.13689 3.61514L2.68839 3.35446C2.51947 3.25627 2.31086 3.25627 2.14194 3.35446L1.69344 3.61514C1.24524 3.87564 0.721385 3.42076 0.916458 2.94046L0.945707 2.86845C1.04502 2.62393 0.949236 2.3436 0.72106 2.21098V2.21098C0.253092 1.93898 0.446044 1.22304 0.987318 1.22304L1.24797 1.22304C1.46925 1.22304 1.66845 1.08894 1.75172 0.88392L1.91141 0.490738Z" fill="#C8982A"/>
</svg>
