<svg width="5" height="4" viewBox="0 0 5 4" fill="none" xmlns="http://www.w3.org/2000/svg">
<path d="M1.77445 0.490738C1.95809 0.0385824 2.59831 0.0385822 2.78195 0.490738L2.94164 0.883921C3.02491 1.08894 3.22412 1.22304 3.4454 1.22304L3.70605 1.22304C4.24732 1.22304 4.44027 1.93898 3.97231 2.21098V2.21098C3.74413 2.3436 3.64835 2.62393 3.74766 2.86845L3.77691 2.94046C3.97198 3.42076 3.44812 3.87564 2.99993 3.61514L2.55143 3.35446C2.38251 3.25627 2.1739 3.25627 2.00498 3.35446L1.55647 3.61514C1.10828 3.87564 0.584423 3.42076 0.779495 2.94046L0.808744 2.86845C0.908056 2.62393 0.812273 2.3436 0.584097 2.21098V2.21098C0.116129 1.93898 0.309081 1.22304 0.850355 1.22304L1.11101 1.22304C1.33229 1.22304 1.53149 1.08894 1.61476 0.88392L1.77445 0.490738Z" fill="#C8982A"/>
</svg>
