<svg width="8" height="8" viewBox="0 0 8 8" fill="none" xmlns="http://www.w3.org/2000/svg">
<path d="M3.0155 1.53063C3.35325 0.699023 4.53074 0.699024 4.86849 1.53063L5.1622 2.25377C5.31534 2.63083 5.68172 2.87747 6.0887 2.87747H6.56809C7.5636 2.87747 7.91847 4.19423 7.05779 4.69449V4.69449C6.63813 4.93841 6.46196 5.45398 6.64462 5.90371L6.69841 6.03616C7.05719 6.91952 6.09371 7.75614 5.2694 7.27702L4.44451 6.79757C4.13383 6.61699 3.75016 6.61699 3.43948 6.79757L2.61459 7.27702C1.79028 7.75614 0.8268 6.91952 1.18558 6.03616L1.23937 5.90371C1.42203 5.45398 1.24586 4.93841 0.826202 4.69449V4.69449C-0.0344842 4.19423 0.320392 2.87747 1.3159 2.87747H1.79529C2.20227 2.87747 2.56865 2.63083 2.72179 2.25377L3.0155 1.53063Z" fill="#C8982A"/>
</svg>
