<svg width="5" height="5" viewBox="0 0 5 5" fill="none" xmlns="http://www.w3.org/2000/svg">
<path d="M2.30842 1.03092C2.49072 0.582071 3.12626 0.582071 3.30855 1.03092L3.46708 1.42122C3.54973 1.62474 3.74748 1.75786 3.96714 1.75786H4.22589C4.7632 1.75786 4.95474 2.46856 4.4902 2.73857V2.73857C4.26369 2.87022 4.16861 3.1485 4.26719 3.39123L4.29623 3.46272C4.48987 3.9395 3.96985 4.39106 3.52494 4.13246L3.07972 3.87368C2.91203 3.77622 2.70495 3.77622 2.53726 3.87368L2.09204 4.13246C1.64713 4.39106 1.1271 3.9395 1.32075 3.46272L1.34978 3.39123C1.44837 3.1485 1.35329 2.87022 1.12678 2.73857V2.73857C0.662235 2.46856 0.853776 1.75786 1.39109 1.75786H1.64983C1.86949 1.75786 2.06724 1.62474 2.1499 1.42122L2.30842 1.03092Z" fill="#C8982A"/>
</svg>
