<svg width="16" height="15" viewBox="0 0 16 15" fill="none" xmlns="http://www.w3.org/2000/svg">
<path d="M7.40369 1.16543C7.6787 0.535592 8.57208 0.535591 8.84709 1.16543L10.303 4.49969C10.4172 4.76124 10.6639 4.94053 10.948 4.96832L14.5689 5.32259C15.2529 5.38952 15.529 6.23917 15.015 6.69535L12.2938 9.11031C12.0803 9.29975 11.9861 9.58985 12.0474 9.86858L12.8294 13.4218C12.9771 14.093 12.2544 14.6181 11.6617 14.2702L8.52404 12.4285C8.27791 12.284 7.97288 12.284 7.72675 12.4285L4.58909 14.2702C3.9964 14.6181 3.27364 14.093 3.42135 13.4218L4.20336 9.86858C4.2647 9.58985 4.17044 9.29975 3.95698 9.11031L1.2358 6.69535C0.721777 6.23917 0.997847 5.38952 1.68184 5.32259L5.3028 4.96832C5.58684 4.94053 5.83361 4.76124 5.94782 4.49969L7.40369 1.16543Z" fill="#FFB245"/>
</svg>
