<svg width="14" height="13" viewBox="0 0 14 13" fill="none" xmlns="http://www.w3.org/2000/svg">
<path d="M6.04009 0.634545C6.29473 0.0513645 7.12194 0.0513645 7.37658 0.634545L8.7246 3.72182C8.83035 3.964 9.05884 4.13001 9.32184 4.15574L12.6746 4.48377C13.3079 4.54574 13.5635 5.33246 13.0876 5.75485L10.568 7.99092C10.3703 8.16633 10.283 8.43494 10.3398 8.69302L11.0639 11.983C11.2007 12.6045 10.5315 13.0907 9.98268 12.7686L7.07745 11.0633C6.84955 10.9295 6.56712 10.9295 6.33922 11.0633L3.43398 12.7686C2.88519 13.0907 2.21597 12.6045 2.35274 11.983L3.07682 8.69302C3.13362 8.43494 3.04634 8.16633 2.8487 7.99092L0.329084 5.75485C-0.146865 5.33246 0.108755 4.54574 0.742081 4.48377L4.09482 4.15574C4.35782 4.13001 4.58632 3.964 4.69206 3.72182L6.04009 0.634545Z" fill="#FFB245"/>
</svg>
