<svg width="8" height="8" viewBox="0 0 8 8" fill="none" xmlns="http://www.w3.org/2000/svg">
<path d="M2.76287 1.53069C3.10063 0.699084 4.27811 0.699085 4.61587 1.53069L4.90957 2.25383C5.06272 2.63089 5.4291 2.87753 5.83607 2.87753H6.31546C7.31097 2.87753 7.66585 4.19429 6.80516 4.69455V4.69455C6.3855 4.93847 6.20934 5.45405 6.39199 5.90377L6.44579 6.03622C6.80457 6.91958 5.84109 7.7562 5.01677 7.27708L4.19189 6.79763C3.88121 6.61706 3.49753 6.61706 3.18685 6.79763L2.36197 7.27709C1.53765 7.7562 0.574175 6.91958 0.932952 6.03622L0.986748 5.90377C1.1694 5.45405 0.993237 4.93847 0.573578 4.69455V4.69455C-0.287109 4.19429 0.0677677 2.87753 1.06328 2.87753H1.54267C1.94964 2.87753 2.31602 2.63089 2.46917 2.25383L2.76287 1.53069Z" fill="#C8982A"/>
</svg>
