<svg width="9" height="8" viewBox="0 0 9 8" fill="none" xmlns="http://www.w3.org/2000/svg">
<path d="M3.63665 1.53063C3.97441 0.699023 5.15189 0.699024 5.48965 1.53063L5.78335 2.25377C5.9365 2.63083 6.30288 2.87747 6.70985 2.87747H7.18924C8.18475 2.87747 8.53963 4.19423 7.67894 4.69449V4.69449C7.25928 4.93841 7.08312 5.45398 7.26577 5.90371L7.31957 6.03616C7.67835 6.91952 6.71487 7.75614 5.89055 7.27702L5.06567 6.79757C4.75499 6.61699 4.37131 6.61699 4.06063 6.79757L3.23575 7.27702C2.41143 7.75614 1.44795 6.91952 1.80673 6.03616L1.86053 5.90371C2.04318 5.45398 1.86702 4.93841 1.44736 4.69449V4.69449C0.586671 4.19423 0.941547 2.87747 1.93706 2.87747H2.41645C2.82342 2.87747 3.1898 2.63083 3.34295 2.25377L3.63665 1.53063Z" fill="#C8982A"/>
</svg>
