<svg width="16" height="15" viewBox="0 0 16 15" fill="none" xmlns="http://www.w3.org/2000/svg">
<path d="M7.32849 0.802878C7.60351 0.173043 8.49689 0.173042 8.7719 0.802877L10.2278 4.13714C10.342 4.39869 10.5887 4.57798 10.8728 4.60577L14.4937 4.96005C15.1777 5.02697 15.4538 5.87662 14.9398 6.3328L12.2186 8.74776C12.0051 8.9372 11.9109 9.2273 11.9722 9.50603L12.7542 13.0592C12.902 13.7304 12.1792 14.2556 11.5865 13.9077L8.44884 12.0659C8.20271 11.9214 7.89768 11.9214 7.65155 12.0659L4.5139 13.9077C3.9212 14.2556 3.19844 13.7304 3.34616 13.0592L4.12816 9.50603C4.18951 9.2273 4.09525 8.9372 3.88179 8.74776L1.16061 6.3328C0.646582 5.87662 0.922651 5.02697 1.60664 4.96005L5.2276 4.60577C5.51164 4.57798 5.75842 4.39869 5.87262 4.13714L7.32849 0.802878Z" fill="#FFB245"/>
</svg>
