<svg width="9" height="8" viewBox="0 0 9 8" fill="none" xmlns="http://www.w3.org/2000/svg">
<path d="M3.36403 0.953749C3.72548 0.0638179 4.98555 0.0638181 5.347 0.95375L5.6613 1.72761C5.82518 2.13112 6.21726 2.39506 6.65278 2.39506H7.1658C8.23113 2.39506 8.6109 3.80417 7.68984 4.33952V4.33952C7.24075 4.60055 7.05223 5.15229 7.24769 5.63355L7.30526 5.77529C7.6892 6.72061 6.65815 7.61591 5.77602 7.10319L4.89328 6.59011C4.56081 6.39687 4.15022 6.39687 3.81775 6.59011L2.93501 7.10319C2.05288 7.61591 1.02182 6.72061 1.40576 5.77529L1.46333 5.63355C1.6588 5.15229 1.47028 4.60055 1.02118 4.33952V4.33952C0.100129 3.80417 0.479894 2.39506 1.54523 2.39506H2.05824C2.49377 2.39506 2.88584 2.13112 3.04973 1.72761L3.36403 0.953749Z" fill="#C8982A"/>
</svg>
