<svg width="9" height="8" viewBox="0 0 9 8" fill="none" xmlns="http://www.w3.org/2000/svg">
<path d="M3.71657 0.953749C4.07801 0.0638179 5.33809 0.0638181 5.69953 0.95375L6.01384 1.72761C6.17772 2.13112 6.5698 2.39506 7.00532 2.39506H7.51834C8.58367 2.39506 8.96344 3.80417 8.04238 4.33952V4.33952C7.59329 4.60055 7.40477 5.15229 7.60023 5.63355L7.6578 5.77529C8.04174 6.72061 7.01069 7.61591 6.12856 7.10319L5.24582 6.59011C4.91335 6.39687 4.50276 6.39687 4.17029 6.59011L3.28755 7.10319C2.40542 7.61591 1.37436 6.72061 1.7583 5.77529L1.81587 5.63355C2.01134 5.15229 1.82281 4.60055 1.37372 4.33952V4.33952C0.452668 3.80417 0.832433 2.39506 1.89777 2.39506H2.41078C2.8463 2.39506 3.23838 2.13112 3.40227 1.72761L3.71657 0.953749Z" fill="#C8982A"/>
</svg>
