<svg width="5" height="5" viewBox="0 0 5 5" fill="none" xmlns="http://www.w3.org/2000/svg">
<path d="M2.13899 1.26334C2.32129 0.814493 2.95682 0.814493 3.13912 1.26334L3.29764 1.65365C3.3803 1.85716 3.57805 1.99028 3.79771 1.99028H4.05645C4.59377 1.99028 4.78531 2.70098 4.32076 2.97099V2.97099C4.09426 3.10264 3.99918 3.38092 4.09776 3.62365L4.1268 3.69514C4.32044 4.17192 3.80042 4.62348 3.3555 4.36488L2.91028 4.10611C2.7426 4.00864 2.53551 4.00864 2.36783 4.1061L1.92261 4.36488C1.47769 4.62348 0.957669 4.17192 1.15131 3.69514L1.18035 3.62365C1.27893 3.38092 1.18385 3.10264 0.957346 2.97099V2.97099C0.492802 2.70098 0.684342 1.99028 1.22166 1.99028H1.4804C1.70006 1.99028 1.89781 1.85716 1.98047 1.65365L2.13899 1.26334Z" fill="#C8982A"/>
</svg>
