<svg width="9" height="8" viewBox="0 0 9 8" fill="none" xmlns="http://www.w3.org/2000/svg">
<path d="M3.41091 0.953749C3.77235 0.0638179 5.03243 0.0638181 5.39387 0.95375L5.70817 1.72761C5.87206 2.13112 6.26414 2.39506 6.69966 2.39506H7.21267C8.27801 2.39506 8.65777 3.80417 7.73672 4.33952V4.33952C7.28763 4.60055 7.0991 5.15229 7.29457 5.63355L7.35214 5.77529C7.73608 6.72061 6.70502 7.61591 5.82289 7.10319L4.94015 6.59011C4.60768 6.39687 4.19709 6.39687 3.86463 6.59011L2.98188 7.10319C2.09975 7.61591 1.0687 6.72061 1.45264 5.77529L1.51021 5.63355C1.70567 5.15229 1.51715 4.60055 1.06806 4.33952V4.33952C0.147004 3.80417 0.526769 2.39506 1.5921 2.39506H2.10512C2.54064 2.39506 2.93272 2.13112 3.0966 1.72761L3.41091 0.953749Z" fill="#C8982A"/>
</svg>
