<svg width="14" height="13" viewBox="0 0 14 13" fill="none" xmlns="http://www.w3.org/2000/svg">
<path d="M6.08172 0.447045C6.33636 -0.136136 7.16356 -0.136135 7.4182 0.447045L8.76623 3.53432C8.87197 3.7765 9.10047 3.94251 9.36347 3.96824L12.7162 4.29627C13.3495 4.35824 13.6052 5.14496 13.1292 5.56735L10.6096 7.80342C10.4119 7.97883 10.3247 8.24744 10.3815 8.50552L11.1055 11.7955C11.2423 12.417 10.5731 12.9032 10.0243 12.5811L7.11907 10.8758C6.89118 10.742 6.60874 10.742 6.38084 10.8758L3.47561 12.5811C2.92682 12.9032 2.25759 12.417 2.39437 11.7955L3.11845 8.50552C3.17525 8.24744 3.08797 7.97883 2.89032 7.80342L0.37071 5.56735C-0.105239 5.14496 0.150381 4.35824 0.783707 4.29627L4.13645 3.96824C4.39945 3.94251 4.62794 3.7765 4.73369 3.53432L6.08172 0.447045Z" fill="#FFB245"/>
</svg>
