<svg width="14" height="13" viewBox="0 0 14 13" fill="none" xmlns="http://www.w3.org/2000/svg">
<path d="M6.37343 0.634545C6.62807 0.0513645 7.45528 0.0513645 7.70992 0.634545L9.05795 3.72182C9.16369 3.964 9.39219 4.13001 9.65519 4.15574L13.0079 4.48377C13.6413 4.54574 13.8969 5.33246 13.4209 5.75485L10.9013 7.99092C10.7037 8.16633 10.6164 8.43494 10.6732 8.69302L11.3973 11.983C11.534 12.6045 10.8648 13.0907 10.316 12.7686L7.41079 11.0633C7.18289 10.9295 6.90046 10.9295 6.67256 11.0633L3.76733 12.7686C3.21853 13.0907 2.54931 12.6045 2.68609 11.983L3.41017 8.69302C3.46697 8.43494 3.37969 8.16633 3.18204 7.99092L0.662428 5.75485C0.186478 5.33246 0.442099 4.54574 1.07542 4.48377L4.42817 4.15574C4.69117 4.13001 4.91966 3.964 5.02541 3.72182L6.37343 0.634545Z" fill="#FFB245"/>
</svg>
