<svg width="8" height="8" viewBox="0 0 8 8" fill="none" xmlns="http://www.w3.org/2000/svg">
<path d="M2.7629 1.53063C3.10066 0.699023 4.27814 0.699024 4.6159 1.53063L4.9096 2.25377C5.06275 2.63083 5.42913 2.87747 5.8361 2.87747H6.31549C7.311 2.87747 7.66588 4.19423 6.80519 4.69449V4.69449C6.38553 4.93841 6.20937 5.45398 6.39202 5.90371L6.44582 6.03616C6.8046 6.91952 5.84112 7.75614 5.0168 7.27702L4.19192 6.79757C3.88124 6.61699 3.49756 6.61699 3.18688 6.79757L2.362 7.27702C1.53768 7.75614 0.574206 6.91952 0.932982 6.03616L0.986778 5.90371C1.16943 5.45398 0.993268 4.93841 0.573608 4.69449V4.69449C-0.287078 4.19423 0.0677983 2.87747 1.06331 2.87747H1.5427C1.94968 2.87747 2.31605 2.63083 2.4692 2.25377L2.7629 1.53063Z" fill="#C8982A"/>
</svg>
