<svg width="14" height="14" viewBox="0 0 14 14" fill="none" xmlns="http://www.w3.org/2000/svg">
<path d="M6.31267 0.574146C6.57458 -0.0256972 7.42542 -0.025697 7.68733 0.574146L9.07388 3.74963C9.18264 3.99873 9.41767 4.16948 9.68818 4.19595L13.1367 4.53335C13.7881 4.59709 14.0511 5.40628 13.5615 5.84074L10.9699 8.1407C10.7666 8.32112 10.6768 8.59741 10.7353 8.86286L11.48 12.2469C11.6207 12.8861 10.9324 13.3862 10.3679 13.0549L7.37966 11.3009C7.14525 11.1633 6.85475 11.1633 6.62034 11.3009L3.6321 13.0549C3.06762 13.3862 2.37928 12.8861 2.51997 12.2469L3.26473 8.86286C3.32315 8.59741 3.23338 8.32112 3.03009 8.1407L0.438487 5.84074C-0.0510607 5.40628 0.211863 4.59709 0.863284 4.53335L4.31182 4.19595C4.58233 4.16948 4.81736 3.99873 4.92612 3.74963L6.31267 0.574146Z" fill="#FFB245"/>
</svg>
