<svg width="5" height="4" viewBox="0 0 5 4" fill="none" xmlns="http://www.w3.org/2000/svg">
<path d="M2.04813 0.490738C2.23177 0.0385824 2.87199 0.0385822 3.05563 0.490738L3.21533 0.883921C3.29859 1.08894 3.4978 1.22304 3.71908 1.22304L3.97973 1.22304C4.521 1.22304 4.71396 1.93898 4.24599 2.21098V2.21098C4.01781 2.3436 3.92203 2.62393 4.02134 2.86845L4.05059 2.94046C4.24566 3.42076 3.7218 3.87564 3.27361 3.61514L2.82511 3.35446C2.65619 3.25627 2.44758 3.25627 2.27866 3.35446L1.83015 3.61514C1.38196 3.87564 0.858104 3.42076 1.05318 2.94046L1.08243 2.86845C1.18174 2.62393 1.08595 2.3436 0.857779 2.21098V2.21098C0.389811 1.93898 0.582763 1.22304 1.12404 1.22304L1.38469 1.22304C1.60597 1.22304 1.80517 1.08894 1.88844 0.88392L2.04813 0.490738Z" fill="#C8982A"/>
</svg>
