<svg width="5" height="4" viewBox="0 0 5 4" fill="none" xmlns="http://www.w3.org/2000/svg">
<path d="M2.13899 0.819493C2.32129 0.370646 2.95682 0.370645 3.13912 0.819492L3.29764 1.2098C3.3803 1.41331 3.57805 1.54643 3.79771 1.54643H4.05645C4.59377 1.54643 4.78531 2.25714 4.32076 2.52714V2.52714C4.09426 2.6588 3.99918 2.93707 4.09776 3.1798L4.1268 3.25129C4.32044 3.72808 3.80042 4.17963 3.3555 3.92104L2.91028 3.66226C2.7426 3.56479 2.53551 3.56479 2.36783 3.66226L1.92261 3.92104C1.47769 4.17963 0.957669 3.72808 1.15131 3.25129L1.18035 3.1798C1.27893 2.93707 1.18385 2.6588 0.957346 2.52714V2.52714C0.492802 2.25714 0.684342 1.54643 1.22166 1.54643H1.4804C1.70006 1.54643 1.89781 1.41331 1.98047 1.2098L2.13899 0.819493Z" fill="#C8982A"/>
</svg>
