<svg width="5" height="4" viewBox="0 0 5 4" fill="none" xmlns="http://www.w3.org/2000/svg">
<path d="M2.04813 0.497635C2.23177 0.0454794 2.87199 0.0454792 3.05563 0.497635L3.21533 0.890817C3.29859 1.09583 3.4978 1.22993 3.71908 1.22993L3.97973 1.22993C4.521 1.22993 4.71396 1.94587 4.24599 2.21787V2.21787C4.01781 2.3505 3.92203 2.63082 4.02134 2.87534L4.05059 2.94736C4.24566 3.42766 3.7218 3.88254 3.27361 3.62204L2.82511 3.36135C2.65619 3.26317 2.44758 3.26317 2.27866 3.36135L1.83015 3.62204C1.38196 3.88254 0.858104 3.42766 1.05318 2.94736L1.08243 2.87534C1.18174 2.63082 1.08595 2.3505 0.857779 2.21787V2.21787C0.389811 1.94587 0.582763 1.22993 1.12404 1.22993L1.38469 1.22993C1.60597 1.22993 1.80517 1.09583 1.88844 0.890817L2.04813 0.497635Z" fill="#C8982A"/>
</svg>
