<svg width="5" height="4" viewBox="0 0 5 4" fill="none" xmlns="http://www.w3.org/2000/svg">
<path d="M2.04813 0.494217C2.23177 0.0420614 2.87199 0.0420612 3.05563 0.494217L3.21533 0.8874C3.29859 1.09241 3.4978 1.22652 3.71908 1.22652L3.97973 1.22652C4.521 1.22652 4.71396 1.94246 4.24599 2.21446V2.21446C4.01781 2.34708 3.92203 2.62741 4.02134 2.87193L4.05059 2.94394C4.24566 3.42424 3.7218 3.87912 3.27361 3.61862L2.82511 3.35793C2.65619 3.25975 2.44758 3.25975 2.27866 3.35793L1.83015 3.61862C1.38196 3.87912 0.858104 3.42424 1.05318 2.94394L1.08243 2.87193C1.18174 2.62741 1.08595 2.34708 0.857779 2.21446V2.21446C0.389811 1.94246 0.582763 1.22652 1.12404 1.22652L1.38469 1.22652C1.60597 1.22652 1.80517 1.09241 1.88844 0.887399L2.04813 0.494217Z" fill="#C8982A"/>
</svg>
