<svg width="9" height="8" viewBox="0 0 9 8" fill="none" xmlns="http://www.w3.org/2000/svg">
<path d="M3.31716 0.953749C3.6786 0.0638179 4.93868 0.0638181 5.30012 0.95375L5.61442 1.72761C5.77831 2.13112 6.17039 2.39506 6.60591 2.39506H7.11892C8.18426 2.39506 8.56402 3.80417 7.64297 4.33952V4.33952C7.19388 4.60055 7.00535 5.15229 7.20082 5.63355L7.25839 5.77529C7.64233 6.72061 6.61127 7.61591 5.72914 7.10319L4.8464 6.59011C4.51393 6.39687 4.10334 6.39687 3.77088 6.59011L2.88813 7.10319C2.006 7.61591 0.974947 6.72061 1.35889 5.77529L1.41646 5.63355C1.61192 5.15229 1.4234 4.60055 0.974307 4.33952V4.33952C0.0532536 3.80417 0.433019 2.39506 1.49835 2.39506H2.01137C2.44689 2.39506 2.83897 2.13112 3.00285 1.72761L3.31716 0.953749Z" fill="#C8982A"/>
</svg>
