<svg width="15" height="14" viewBox="0 0 15 14" fill="none" xmlns="http://www.w3.org/2000/svg">
<path d="M6.6659 0.565329C6.94091 -0.0645057 7.83429 -0.0645066 8.1093 0.565328L9.56517 3.89959C9.67937 4.16114 9.92615 4.34043 10.2102 4.36822L13.8312 4.7225C14.5151 4.78942 14.7912 5.63907 14.2772 6.09525L11.556 8.51021C11.3425 8.69965 11.2483 8.98975 11.3096 9.26848L12.0916 12.8217C12.2394 13.4929 11.5166 14.018 10.9239 13.6701L7.78624 11.8284C7.54011 11.6839 7.23508 11.6839 6.98895 11.8284L3.8513 13.6701C3.2586 14.018 2.53584 13.4929 2.68356 12.8217L3.46557 9.26848C3.52691 8.98975 3.43265 8.69965 3.21919 8.51021L0.49801 6.09526C-0.0160158 5.63907 0.260054 4.78942 0.944046 4.7225L4.56501 4.36822C4.84905 4.34043 5.09582 4.16114 5.21002 3.89959L6.6659 0.565329Z" fill="#FFB245"/>
</svg>
