<svg width="8" height="8" viewBox="0 0 8 8" fill="none" xmlns="http://www.w3.org/2000/svg">
<path d="M2.8892 1.53063C3.22695 0.699023 4.40444 0.699024 4.7422 1.53063L5.0359 2.25377C5.18904 2.63083 5.55542 2.87747 5.9624 2.87747H6.44179C7.4373 2.87747 7.79218 4.19423 6.93149 4.69449V4.69449C6.51183 4.93841 6.33567 5.45398 6.51832 5.90371L6.57212 6.03616C6.93089 6.91952 5.96741 7.75614 5.1431 7.27702L4.31821 6.79757C4.00754 6.61699 3.62386 6.61699 3.31318 6.79757L2.48829 7.27702C1.66398 7.75614 0.700503 6.91952 1.05928 6.03616L1.11308 5.90371C1.29573 5.45398 1.11956 4.93841 0.699905 4.69449V4.69449C-0.160781 4.19423 0.194095 2.87747 1.18961 2.87747H1.669C2.07597 2.87747 2.44235 2.63083 2.5955 2.25377L2.8892 1.53063Z" fill="#C8982A"/>
</svg>
