<svg width="15" height="14" viewBox="0 0 15 14" fill="none" xmlns="http://www.w3.org/2000/svg">
<path d="M6.72759 1.30129C6.98223 0.718113 7.80944 0.718113 8.06408 1.30129L9.4121 4.38857C9.51785 4.63075 9.74634 4.79676 10.0093 4.82249L13.3621 5.15052C13.9954 5.21249 14.251 5.99921 13.7751 6.4216L11.2555 8.65767C11.0578 8.83307 10.9705 9.10169 11.0273 9.35977L11.7514 12.6498C11.8882 13.2713 11.219 13.7575 10.6702 13.4353L7.76495 11.73C7.53705 11.5963 7.25462 11.5963 7.02672 11.73L4.12148 13.4353C3.57269 13.7575 2.90347 13.2713 3.04024 12.6498L3.76432 9.35977C3.82112 9.10169 3.73384 8.83307 3.5362 8.65767L1.01658 6.42159C0.540635 5.9992 0.796255 5.21249 1.42958 5.15052L4.78232 4.82249C5.04532 4.79676 5.27382 4.63075 5.37956 4.38857L6.72759 1.30129Z" fill="#FFB245"/>
</svg>
