<svg width="15" height="15" viewBox="0 0 15 15" fill="none" xmlns="http://www.w3.org/2000/svg">
<path d="M7.1283 0.802878C7.40331 0.173043 8.29669 0.173042 8.5717 0.802877L10.0276 4.13714C10.1418 4.39869 10.3886 4.57798 10.6726 4.60577L14.2936 4.96005C14.9775 5.02697 15.2536 5.87662 14.7396 6.3328L12.0184 8.74776C11.8049 8.9372 11.7107 9.2273 11.772 9.50603L12.554 13.0592C12.7018 13.7304 11.979 14.2556 11.3863 13.9077L8.24864 12.0659C8.00252 11.9214 7.69748 11.9214 7.45136 12.0659L4.3137 13.9077C3.72101 14.2556 2.99825 13.7304 3.14596 13.0592L3.92797 9.50603C3.98931 9.2273 3.89505 8.9372 3.68159 8.74776L0.960412 6.3328C0.446387 5.87662 0.722456 5.02697 1.40645 4.96005L5.02741 4.60577C5.31145 4.57798 5.55822 4.39869 5.67243 4.13714L7.1283 0.802878Z" fill="#FFB245"/>
</svg>
