<svg width="5" height="4" viewBox="0 0 5 4" fill="none" xmlns="http://www.w3.org/2000/svg">
<path d="M1.63749 0.497635C1.82113 0.0454794 2.46135 0.0454792 2.64499 0.497635L2.80468 0.890817C2.88795 1.09583 3.08715 1.22993 3.30843 1.22993L3.56909 1.22993C4.11036 1.22993 4.30331 1.94587 3.83534 2.21787V2.21787C3.60717 2.3505 3.51138 2.63082 3.6107 2.87534L3.63994 2.94736C3.83502 3.42766 3.31116 3.88254 2.86297 3.62204L2.41446 3.36135C2.24554 3.26317 2.03693 3.26317 1.86801 3.36135L1.41951 3.62204C0.971318 3.88254 0.44746 3.42766 0.642532 2.94736L0.671781 2.87534C0.771093 2.63082 0.67531 2.3505 0.447135 2.21787V2.21787C-0.0208336 1.94587 0.172118 1.22993 0.713392 1.22993L0.974045 1.22993C1.19532 1.22993 1.39453 1.09583 1.4778 0.890817L1.63749 0.497635Z" fill="#C8982A"/>
</svg>
